<svg width="1280" height="720" xmlns="http://www.w3.org/2000/svg" xmlns:xlink="http://www.w3.org/1999/xlink" overflow="hidden"><defs><clipPath id="clip0"><rect x="0" y="0" width="1280" height="720"/></clipPath><clipPath id="clip1"><rect x="554" y="312" width="194" height="181"/></clipPath><clipPath id="clip2"><rect x="554" y="348" width="194" height="180"/></clipPath><clipPath id="clip3"><rect x="554" y="383" width="194" height="180"/></clipPath><clipPath id="clip4"><rect x="554" y="418" width="194" height="180"/></clipPath><clipPath id="clip5"><rect x="554" y="453" width="194" height="180"/></clipPath><clipPath id="clip6"><rect x="554" y="488" width="194" height="181"/></clipPath><clipPath id="clip7"><rect x="554" y="524" width="194" height="180"/></clipPath><clipPath id="clip8"><rect x="554" y="559" width="194" height="180"/></clipPath><clipPath id="clip9"><rect x="1051" y="-42" width="182" height="158"/></clipPath><clipPath id="clip10"><rect x="1051" y="-19" width="182" height="181"/></clipPath><clipPath id="clip11"><rect x="1051" y="17" width="182" height="180"/></clipPath><clipPath id="clip12"><rect x="1051" y="52" width="182" height="180"/></clipPath><clipPath id="clip13"><rect x="1051" y="87" width="182" height="180"/></clipPath><clipPath id="clip14"><rect x="1051" y="122" width="182" height="180"/></clipPath><clipPath id="clip15"><rect x="1051" y="157" width="182" height="181"/></clipPath><clipPath id="clip16"><rect x="1051" y="193" width="182" height="180"/></clipPath><clipPath id="clip17"><rect x="1051" y="228" width="182" height="180"/></clipPath><clipPath id="clip18"><rect x="1057" y="354" width="176" height="157"/></clipPath><clipPath id="clip19"><rect x="1057" y="378" width="176" height="180"/></clipPath><clipPath id="clip20"><rect x="1057" y="413" width="176" height="180"/></clipPath><clipPath id="clip21"><rect x="796" y="139" width="162" height="158"/></clipPath><clipPath id="clip22"><rect x="796" y="163" width="162" height="180"/></clipPath><clipPath id="clip23"><rect x="796" y="198" width="162" height="180"/></clipPath><clipPath id="clip24"><rect x="796" y="233" width="162" height="180"/></clipPath><clipPath id="clip25"><rect x="796" y="268" width="162" height="181"/></clipPath><clipPath id="clip26"><rect x="800" y="394" width="159" height="158"/></clipPath><clipPath id="clip27"><rect x="800" y="419" width="159" height="180"/></clipPath><clipPath id="clip28"><rect x="800" y="454" width="159" height="180"/></clipPath><clipPath id="clip29"><rect x="800" y="489" width="159" height="180"/></clipPath><clipPath id="clip30"><rect x="800" y="524" width="159" height="181"/></clipPath><clipPath id="clip31"><rect x="800" y="560" width="159" height="180"/></clipPath><clipPath id="clip32"><rect x="312" y="162" width="181" height="158"/></clipPath><clipPath id="clip33"><rect x="312" y="187" width="181" height="180"/></clipPath><clipPath id="clip34"><rect x="312" y="222" width="181" height="180"/></clipPath><clipPath id="clip35"><rect x="312" y="257" width="181" height="180"/></clipPath><clipPath id="clip36"><rect x="312" y="292" width="181" height="180"/></clipPath><clipPath id="clip37"><rect x="312" y="327" width="181" height="181"/></clipPath><clipPath id="clip38"><rect x="39" y="352" width="195" height="158"/></clipPath><clipPath id="clip39"><rect x="39" y="376" width="195" height="181"/></clipPath><clipPath id="clip40"><rect x="39" y="412" width="195" height="180"/></clipPath><clipPath id="clip41"><rect x="39" y="447" width="195" height="180"/></clipPath><clipPath id="clip42"><rect x="41" y="157" width="194" height="157"/></clipPath><clipPath id="clip43"><rect x="41" y="181" width="194" height="180"/></clipPath><clipPath id="clip44"><rect x="41" y="216" width="194" height="180"/></clipPath><clipPath id="clip45"><rect x="41" y="251" width="194" height="181"/></clipPath><clipPath id="clip46"><rect x="313" y="-40" width="176" height="158"/></clipPath><clipPath id="clip47"><rect x="313" y="-15" width="176" height="180"/></clipPath><clipPath id="clip48"><rect x="313" y="20" width="176" height="180"/></clipPath><clipPath id="clip49"><rect x="313" y="55" width="176" height="180"/></clipPath><clipPath id="clip50"><rect x="313" y="90" width="176" height="180"/></clipPath><clipPath id="clip51"><rect x="555" y="-39" width="193" height="158"/></clipPath><clipPath id="clip52"><rect x="555" y="-17" width="193" height="180"/></clipPath><clipPath id="clip53"><rect x="555" y="18" width="193" height="181"/></clipPath><clipPath id="clip54"><rect x="555" y="54" width="193" height="180"/></clipPath><clipPath id="clip55"><rect x="555" y="89" width="193" height="180"/></clipPath><clipPath id="clip56"><rect x="555" y="124" width="193" height="180"/></clipPath><clipPath id="clip57"><rect x="555" y="159" width="193" height="180"/></clipPath><clipPath id="clip58"><rect x="555" y="194" width="193" height="181"/></clipPath><clipPath id="clip59"><rect x="1057" y="503" width="176" height="157"/></clipPath><clipPath id="clip60"><rect x="1057" y="527" width="176" height="180"/></clipPath><clipPath id="clip61"><rect x="1057" y="562" width="176" height="180"/></clipPath></defs><g clip-path="url(#clip0)"><rect x="0" y="0" width="1280" height="720" fill="#FFFFFF"/><path d="M1219 320.5C1219 315.253 1223.25 311 1228.5 311 1233.75 311 1238 315.253 1238 320.5 1238 325.747 1233.75 330 1228.5 330 1223.25 330 1219 325.747 1219 320.5Z" fill="#FFFFFF" fill-rule="evenodd"/><path d="M1060 617.5C1060 612.253 1064.25 608 1069.5 608 1074.75 608 1079 612.253 1079 617.5 1079 622.747 1074.75 627 1069.5 627 1064.25 627 1060 622.747 1060 617.5Z" fill="#FFFFFF" fill-rule="evenodd"/><path d="M729 435.5C729 430.253 733.253 426 738.5 426 743.747 426 748 430.253 748 435.5 748 440.747 743.747 445 738.5 445 733.253 445 729 440.747 729 435.5Z" fill="#FFFFFF" fill-rule="evenodd"/><path d="M729 445.5C729 440.253 733.253 436 738.5 436 743.747 436 748 440.253 748 445.5 748 450.747 743.747 455 738.5 455 733.253 455 729 450.747 729 445.5Z" fill="#FFFFFF" fill-rule="evenodd"/><path d="M791 517.5C791 512.253 795.253 508 800.5 508 805.747 508 810 512.253 810 517.5 810 522.747 805.747 527 800.5 527 795.253 527 791 522.747 791 517.5Z" fill="#FFFFFF" fill-rule="evenodd"/><path d="M796 581.5C796 576.253 800.253 572 805.5 572 810.747 572 815 576.253 815 581.5 815 586.747 810.747 591 805.5 591 800.253 591 796 586.747 796 581.5Z" fill="#FFFFFF" fill-rule="evenodd"/><text fill="#FFFFFF" font-family="Calibri,Calibri_MSFontService,sans-serif" font-weight="400" font-size="19" transform="translate(800.487 576)">0</text><text fill="#FFFFFF" font-family="Calibri,Calibri_MSFontService,sans-serif" font-weight="400" font-size="19" transform="translate(800.487 599)">0</text><path d="M559.081 214.802 524.791 214.802 524.791 75.5001 526.291 77.0001 501 77.0001 501 74.0001 527.791 74.0001 527.791 213.302 526.291 211.802 559.081 211.802ZM502.5 80.0001 493.5 75.5001 502.5 71.0001Z" fill="#4472C4"/><path d="M0-1.5 35.4434-1.5 35.4434 25.2434 33.9434 23.7434 60.3867 23.7434 60.3867 26.7434 32.4434 26.7434 32.4434 0 33.9434 1.5 0 1.5ZM58.8867 20.7434 67.8867 25.2434 58.8867 29.7434Z" fill="#4472C4" transform="matrix(-1 1.22465e-16 1.22465e-16 1 557.387 248.5)"/><path d="M0-1.5 27.6333-1.5 27.6333 151.646 9.63333 151.646 9.63333 148.646 26.1333 148.646 24.6333 150.146 24.6333 0 26.1333 1.5 0 1.5ZM11.1333 154.646 2.13333 150.146 11.1333 145.646Z" fill="#4472C4" transform="matrix(-1 1.22465e-16 1.22465e-16 1 558.633 289.5)"/><path d="M217 278.5C217 273.253 221.253 269 226.5 269 231.747 269 236 273.253 236 278.5 236 283.747 231.747 288 226.5 288 221.253 288 217 283.747 217 278.5Z" fill="#FFFFFF" fill-rule="evenodd"/><path d="M311 278.5C311 273.253 315.029 269 320 269 324.971 269 329 273.253 329 278.5 329 283.747 324.971 288 320 288 315.029 288 311 283.747 311 278.5Z" fill="#FFFFFF" fill-rule="evenodd"/><text fill="#FFFFFF" font-family="Calibri,Calibri_MSFontService,sans-serif" font-weight="400" font-size="19" transform="translate(316.872 285)">²</text><path d="M311 288.5C311 283.253 315.029 279 320 279 324.971 279 329 283.253 329 288.5 329 293.747 324.971 298 320 298 315.029 298 311 293.747 311 288.5Z" fill="#FFFFFF" fill-rule="evenodd"/><text fill="#FFFFFF" font-family="Calibri,Calibri_MSFontService,sans-serif" font-weight="400" font-size="19" transform="translate(316.872 294)">²</text><path d="M311 267.5C311 262.253 315.029 258 320 258 324.971 258 329 262.253 329 267.5 329 272.747 324.971 277 320 277 315.029 277 311 272.747 311 267.5Z" fill="#FFFFFF" fill-rule="evenodd"/><text fill="#FFFFFF" font-family="Calibri,Calibri_MSFontService,sans-serif" font-weight="400" font-size="19" transform="translate(316.872 274)">²</text><path d="M311 180.5C311 175.253 315.029 171 320 171 324.971 171 329 175.253 329 180.5 329 185.747 324.971 190 320 190 315.029 190 311 185.747 311 180.5Z" fill="#FFFFFF" fill-rule="evenodd"/><text fill="#FFFFFF" font-family="Calibri,Calibri_MSFontService,sans-serif" font-weight="400" font-size="19" transform="translate(316.872 187)">²</text><path d="M474 75C474 70.0294 478.253 66 483.5 66 488.747 66 493 70.0294 493 75 493 79.9706 488.747 84 483.5 84 478.253 84 474 79.9706 474 75Z" fill="#FFFFFF" fill-rule="evenodd"/><path d="M470 273.5C470 268.253 474.253 264 479.5 264 484.747 264 489 268.253 489 273.5 489 278.747 484.747 283 479.5 283 474.253 283 470 278.747 470 273.5Z" fill="#FFFFFF" fill-rule="evenodd"/><path d="M558 212.5C558 207.253 562.253 203 567.5 203 572.747 203 577 207.253 577 212.5 577 217.747 572.747 222 567.5 222 562.253 222 558 217.747 558 212.5Z" fill="#FFFFFF" fill-rule="evenodd"/><path d="M557 248C557 243.029 561.253 239 566.5 239 571.747 239 576 243.029 576 248 576 252.971 571.747 257 566.5 257 561.253 257 557 252.971 557 248Z" fill="#FFFFFF" fill-rule="evenodd"/><path d="M558 289.5C558 284.253 562.253 280 567.5 280 572.747 280 577 284.253 577 289.5 577 294.747 572.747 299 567.5 299 562.253 299 558 294.747 558 289.5Z" fill="#FFFFFF" fill-rule="evenodd"/><path d="M556 439.5C556 434.253 560.253 430 565.5 430 570.747 430 575 434.253 575 439.5 575 444.747 570.747 449 565.5 449 560.253 449 556 444.747 556 439.5Z" fill="#FFFFFF" fill-rule="evenodd"/><path d="M556 439.5C556 434.253 560.253 430 565.5 430 570.747 430 575 434.253 575 439.5 575 444.747 570.747 449 565.5 449 560.253 449 556 444.747 556 439.5Z" fill="#FFFFFF" fill-rule="evenodd"/><path d="M799 258.5C799 253.253 803.253 249 808.5 249 813.747 249 818 253.253 818 258.5 818 263.747 813.747 268 808.5 268 803.253 268 799 263.747 799 258.5Z" fill="#FFFFFF" fill-rule="evenodd"/><path d="M798 325.5C798 320.253 802.029 316 807 316 811.971 316 816 320.253 816 325.5 816 330.747 811.971 335 807 335 802.029 335 798 330.747 798 325.5Z" fill="#FFFFFF" fill-rule="evenodd"/><path d="M937 252.5C937 247.253 941.253 243 946.5 243 951.747 243 956 247.253 956 252.5 956 257.747 951.747 262 946.5 262 941.253 262 937 257.747 937 252.5Z" fill="#FFFFFF" fill-rule="evenodd"/><path d="M938 290.5C938 285.253 942.253 281 947.5 281 952.747 281 957 285.253 957 290.5 957 295.747 952.747 300 947.5 300 942.253 300 938 295.747 938 290.5Z" fill="#FFFFFF" fill-rule="evenodd"/><path d="M1050 82.5C1050 77.2533 1054.25 73 1059.5 73 1064.75 73 1069 77.2533 1069 82.5 1069 87.7467 1064.75 92 1059.5 92 1054.25 92 1050 87.7467 1050 82.5Z" fill="#FFFFFF" fill-rule="evenodd"/><path d="M1051 117.5C1051 112.253 1055.25 108 1060.5 108 1065.75 108 1070 112.253 1070 117.5 1070 122.747 1065.75 127 1060.5 127 1055.25 127 1051 122.747 1051 117.5Z" fill="#FFFFFF" fill-rule="evenodd"/><path d="M1052 102.5C1052 97.2533 1056.25 93 1061.5 93 1066.75 93 1071 97.2533 1071 102.5 1071 107.747 1066.75 112 1061.5 112 1056.25 112 1052 107.747 1052 102.5Z" fill="#FFFFFF" fill-rule="evenodd"/><path d="M1050 67.5C1050 62.2533 1054.25 58 1059.5 58 1064.75 58 1069 62.2533 1069 67.5 1069 72.7467 1064.75 77 1059.5 77 1054.25 77 1050 72.7467 1050 67.5Z" fill="#FFFFFF" fill-rule="evenodd"/><path d="M730 69.5C730 64.2533 734.253 60 739.5 60 744.747 60 749 64.2533 749 69.5 749 74.7467 744.747 79 739.5 79 734.253 79 730 74.7467 730 69.5Z" fill="#FFFFFF" fill-rule="evenodd"/><path d="M730 84.5C730 79.2533 734.253 75 739.5 75 744.747 75 749 79.2533 749 84.5 749 89.7467 744.747 94 739.5 94 734.253 94 730 89.7467 730 84.5Z" fill="#FFFFFF" fill-rule="evenodd"/><path d="M942 545.5C942 540.253 946.253 536 951.5 536 956.747 536 961 540.253 961 545.5 961 550.747 956.747 555 951.5 555 946.253 555 942 550.747 942 545.5Z" fill="#FFFFFF" fill-rule="evenodd"/><path d="M942 617.5C942 612.253 946.253 608 951.5 608 956.747 608 961 612.253 961 617.5 961 622.747 956.747 627 951.5 627 946.253 627 942 622.747 942 617.5Z" fill="#FFFFFF" fill-rule="evenodd"/><path d="M942 510.5C942 505.253 946.253 501 951.5 501 956.747 501 961 505.253 961 510.5 961 515.747 956.747 520 951.5 520 946.253 520 942 515.747 942 510.5Z" fill="#FFFFFF" fill-rule="evenodd"/><path d="M554.184 384.83 747.342 384.83 747.342 420.03 554.184 420.03Z" fill="#4472C4" fill-rule="evenodd"/><path d="M553.851 420.03 747.675 420.03" stroke="#4472C4" stroke-width="0.666667" stroke-miterlimit="8" fill="none" fill-rule="evenodd"/><path d="M553.851 455.23 747.675 455.23" stroke="#4472C4" stroke-width="0.666667" stroke-miterlimit="8" fill="none" fill-rule="evenodd"/><path d="M553.851 490.43 747.675 490.43" stroke="#4472C4" stroke-width="0.666667" stroke-miterlimit="8" fill="none" fill-rule="evenodd"/><path d="M553.851 525.63 747.675 525.63" stroke="#4472C4" stroke-width="0.666667" stroke-miterlimit="8" fill="none" fill-rule="evenodd"/><path d="M553.851 560.83 747.675 560.83" stroke="#4472C4" stroke-width="0.666667" stroke-miterlimit="8" fill="none" fill-rule="evenodd"/><path d="M553.851 596.03 747.675 596.03" stroke="#4472C4" stroke-width="0.666667" stroke-miterlimit="8" fill="none" fill-rule="evenodd"/><path d="M553.851 631.23 747.675 631.23" stroke="#4472C4" stroke-width="0.666667" stroke-miterlimit="8" fill="none" fill-rule="evenodd"/><path d="M554.184 384.497 554.184 666.763" stroke="#4472C4" stroke-width="0.666667" stroke-miterlimit="8" fill="none" fill-rule="evenodd"/><path d="M747.342 384.497 747.342 666.763" stroke="#4472C4" stroke-width="0.666667" stroke-miterlimit="8" fill="none" fill-rule="evenodd"/><path d="M553.851 384.83 747.675 384.83" stroke="#4472C4" stroke-width="0.666667" stroke-miterlimit="8" fill="none" fill-rule="evenodd"/><path d="M553.851 666.43 747.675 666.43" stroke="#4472C4" stroke-width="0.666667" stroke-miterlimit="8" fill="none" fill-rule="evenodd"/><g clip-path="url(#clip1)"><text fill="#FFFFFF" font-family="Calibri,Calibri_MSFontService,sans-serif" font-weight="700" font-size="21" transform="translate(563.784 410)">SALARIE</text></g><g clip-path="url(#clip2)"><text font-family="Calibri,Calibri_MSFontService,sans-serif" font-weight="700" font-size="21" transform="translate(563.784 445)">Matricule</text></g><path d="M563.784 446.83 606.284 446.83 648.784 446.83 648.784 447.83 606.284 447.83 563.784 447.83Z" fill-rule="evenodd"/><g clip-path="url(#clip3)"><text font-family="Calibri,Calibri_MSFontService,sans-serif" font-weight="400" font-size="21" transform="translate(563.784 480)">Nom</text></g><g clip-path="url(#clip4)"><text font-family="Calibri,Calibri_MSFontService,sans-serif" font-weight="400" font-size="21" transform="translate(563.784 515)">Prénom</text></g><g clip-path="url(#clip5)"><text font-family="Calibri,Calibri_MSFontService,sans-serif" font-weight="400" font-size="21" transform="translate(563.784 550)">Qualification</text></g><g clip-path="url(#clip6)"><text font-family="Calibri,Calibri_MSFontService,sans-serif" font-weight="400" font-size="21" transform="translate(563.784 586)">Niveau</text></g><g clip-path="url(#clip7)"><text font-family="Calibri,Calibri_MSFontService,sans-serif" font-weight="400" font-size="21" transform="translate(563.784 621)">DateEntree</text></g><g clip-path="url(#clip8)"><text font-family="Calibri,Calibri_MSFontService,sans-serif" font-weight="400" font-size="21" transform="translate(563.784 656)">DateSortie</text></g><text font-family="Calibri Light,Calibri Light_MSFontService,sans-serif" font-weight="300" font-size="48" transform="translate(108.675 637)">2012</text><path d="M1051.51 19.8779 1232.35 19.8779 1232.35 53.8936 1051.51 53.8936Z" fill="#4472C4" fill-rule="evenodd"/><path d="M1051.18 53.8936 1232.68 53.8936" stroke="#4472C4" stroke-width="0.666667" stroke-miterlimit="8" fill="none" fill-rule="evenodd"/><path d="M1051.18 89.0936 1232.68 89.0936" stroke="#4472C4" stroke-width="0.666667" stroke-miterlimit="8" fill="none" fill-rule="evenodd"/><path d="M1051.18 124.294 1232.68 124.294" stroke="#4472C4" stroke-width="0.666667" stroke-miterlimit="8" fill="none" fill-rule="evenodd"/><path d="M1051.18 159.494 1232.68 159.494" stroke="#4472C4" stroke-width="0.666667" stroke-miterlimit="8" fill="none" fill-rule="evenodd"/><path d="M1051.18 194.694 1232.68 194.694" stroke="#4472C4" stroke-width="0.666667" stroke-miterlimit="8" fill="none" fill-rule="evenodd"/><path d="M1051.18 229.894 1232.68 229.894" stroke="#4472C4" stroke-width="0.666667" stroke-miterlimit="8" fill="none" fill-rule="evenodd"/><path d="M1051.18 265.094 1232.68 265.094" stroke="#4472C4" stroke-width="0.666667" stroke-miterlimit="8" fill="none" fill-rule="evenodd"/><path d="M1051.18 300.294 1232.68 300.294" stroke="#4472C4" stroke-width="0.666667" stroke-miterlimit="8" fill="none" fill-rule="evenodd"/><path d="M1051.51 19.5446 1051.51 335.827" stroke="#4472C4" stroke-width="0.666667" stroke-miterlimit="8" fill="none" fill-rule="evenodd"/><path d="M1232.35 19.5446 1232.35 335.827" stroke="#4472C4" stroke-width="0.666667" stroke-miterlimit="8" fill="none" fill-rule="evenodd"/><path d="M1051.18 19.8779 1232.68 19.8779" stroke="#4472C4" stroke-width="0.666667" stroke-miterlimit="8" fill="none" fill-rule="evenodd"/><path d="M1051.18 335.494 1232.68 335.494" stroke="#4472C4" stroke-width="0.666667" stroke-miterlimit="8" fill="none" fill-rule="evenodd"/><g clip-path="url(#clip9)"><text fill="#FFFFFF" font-family="Calibri,Calibri_MSFontService,sans-serif" font-weight="700" font-size="19" transform="translate(1061.11 43)">TACHE</text></g><g clip-path="url(#clip10)"><text font-family="Calibri,Calibri_MSFontService,sans-serif" font-weight="700" font-size="21" transform="translate(1061.11 79)">NumChantier</text></g><path d="M1061.11 80.6936 1100.44 80.6936 1139.78 80.6936 1179.11 80.6936 1179.11 81.6936 1139.78 81.6936 1100.44 81.6936 1061.11 81.6936Z" fill-rule="evenodd"/><g clip-path="url(#clip11)"><text font-family="Calibri,Calibri_MSFontService,sans-serif" font-weight="700" font-size="21" transform="translate(1061.11 114)">NumTache</text></g><path d="M1061.11 115.894 1092.11 115.894 1123.11 115.894 1154.11 115.894 1154.11 116.894 1123.11 116.894 1092.11 116.894 1061.11 116.894Z" fill-rule="evenodd"/><g clip-path="url(#clip12)"><text font-family="Calibri,Calibri_MSFontService,sans-serif" font-weight="400" font-size="21" transform="translate(1061.11 149)">Description</text></g><g clip-path="url(#clip13)"><text font-family="Calibri,Calibri_MSFontService,sans-serif" font-weight="400" font-size="21" transform="translate(1061.11 184)">DateDebutPrevue</text></g><g clip-path="url(#clip14)"><text font-family="Calibri,Calibri_MSFontService,sans-serif" font-weight="400" font-size="21" transform="translate(1061.11 219)">DuréePrevue</text></g><g clip-path="url(#clip15)"><text font-family="Calibri,Calibri_MSFontService,sans-serif" font-weight="400" font-size="21" transform="translate(1061.11 255)">DateDebutReelle</text></g><g clip-path="url(#clip16)"><text font-family="Calibri,Calibri_MSFontService,sans-serif" font-weight="400" font-size="21" transform="translate(1061.11 290)">DateFinReelle</text></g><g clip-path="url(#clip17)"><text font-family="Calibri,Calibri_MSFontService,sans-serif" font-weight="400" font-size="21" transform="translate(1061.11 325)">NumCategorie</text></g><path d="M1057.63 416.411 1232.17 416.411 1232.17 450.427 1057.63 450.427Z" fill="#4472C4" fill-rule="evenodd"/><path d="M1057.3 450.427 1232.51 450.427" stroke="#4472C4" stroke-width="0.666667" stroke-miterlimit="8" fill="none" fill-rule="evenodd"/><path d="M1057.3 485.627 1232.51 485.627" stroke="#4472C4" stroke-width="0.666667" stroke-miterlimit="8" fill="none" fill-rule="evenodd"/><path d="M1057.63 416.078 1057.63 521.16" stroke="#4472C4" stroke-width="0.666667" stroke-miterlimit="8" fill="none" fill-rule="evenodd"/><path d="M1232.17 416.078 1232.17 521.16" stroke="#4472C4" stroke-width="0.666667" stroke-miterlimit="8" fill="none" fill-rule="evenodd"/><path d="M1057.3 416.411 1232.51 416.411" stroke="#4472C4" stroke-width="0.666667" stroke-miterlimit="8" fill="none" fill-rule="evenodd"/><path d="M1057.3 520.827 1232.51 520.827" stroke="#4472C4" stroke-width="0.666667" stroke-miterlimit="8" fill="none" fill-rule="evenodd"/><g clip-path="url(#clip18)"><text fill="#FFFFFF" font-family="Calibri,Calibri_MSFontService,sans-serif" font-weight="700" font-size="19" transform="translate(1067.23 438)">CATEGORIE_TACHE</text></g><g clip-path="url(#clip19)"><text font-family="Calibri,Calibri_MSFontService,sans-serif" font-weight="700" font-size="21" transform="translate(1067.23 475)">NumCategorie</text></g><path d="M1067.23 477.227 1098.98 477.227 1130.73 477.227 1162.48 477.227 1194.23 477.227 1194.23 478.227 1162.48 478.227 1130.73 478.227 1098.98 478.227 1067.23 478.227Z" fill-rule="evenodd"/><g clip-path="url(#clip20)"><text font-family="Calibri,Calibri_MSFontService,sans-serif" font-weight="400" font-size="21" transform="translate(1067.23 510)">Désignation</text></g><path d="M796.242 201.302 957.57 201.302 957.57 235.318 796.242 235.318Z" fill="#4472C4" fill-rule="evenodd"/><path d="M795.909 235.318 957.903 235.318" stroke="#4472C4" stroke-width="0.666667" stroke-miterlimit="8" fill="none" fill-rule="evenodd"/><path d="M795.909 270.518 957.903 270.518" stroke="#4472C4" stroke-width="0.666667" stroke-miterlimit="8" fill="none" fill-rule="evenodd"/><path d="M795.909 305.718 957.903 305.718" stroke="#4472C4" stroke-width="0.666667" stroke-miterlimit="8" fill="none" fill-rule="evenodd"/><path d="M795.909 340.918 957.903 340.918" stroke="#4472C4" stroke-width="0.666667" stroke-miterlimit="8" fill="none" fill-rule="evenodd"/><path d="M796.242 200.969 796.242 376.451" stroke="#4472C4" stroke-width="0.666667" stroke-miterlimit="8" fill="none" fill-rule="evenodd"/><path d="M957.57 200.969 957.57 376.451" stroke="#4472C4" stroke-width="0.666667" stroke-miterlimit="8" fill="none" fill-rule="evenodd"/><path d="M795.909 201.302 957.903 201.302" stroke="#4472C4" stroke-width="0.666667" stroke-miterlimit="8" fill="none" fill-rule="evenodd"/><path d="M795.909 376.118 957.903 376.118" stroke="#4472C4" stroke-width="0.666667" stroke-miterlimit="8" fill="none" fill-rule="evenodd"/><g clip-path="url(#clip21)"><text fill="#FFFFFF" font-family="Calibri,Calibri_MSFontService,sans-serif" font-weight="700" font-size="19" transform="translate(805.842 224)">AFFECTER</text></g><g clip-path="url(#clip22)"><text font-family="Calibri,Calibri_MSFontService,sans-serif" font-weight="700" font-size="21" transform="translate(805.842 260)">NumChantier</text></g><path d="M805.842 262.118 835.342 262.118 864.842 262.118 894.342 262.118 923.842 262.118 923.842 263.118 894.342 263.118 864.842 263.118 835.342 263.118 805.842 263.118Z" fill-rule="evenodd"/><g clip-path="url(#clip23)"><text font-family="Calibri,Calibri_MSFontService,sans-serif" font-weight="700" font-size="21" transform="translate(805.842 295)">NumTache</text></g><path d="M805.842 297.318 836.842 297.318 867.842 297.318 898.842 297.318 898.842 298.318 867.842 298.318 836.842 298.318 805.842 298.318Z" fill-rule="evenodd"/><g clip-path="url(#clip24)"><text font-family="Calibri,Calibri_MSFontService,sans-serif" font-weight="700" font-size="21" transform="translate(805.842 331)">Matricule</text></g><path d="M805.842 332.518 834.176 332.518 862.509 332.518 890.842 332.518 890.842 333.518 862.509 333.518 834.176 333.518 805.842 333.518Z" fill-rule="evenodd"/><g clip-path="url(#clip25)"><text font-family="Calibri,Calibri_MSFontService,sans-serif" font-weight="400" font-size="21" transform="translate(805.842 366)">Durée</text></g><path d="M800.225 457.271 958.317 457.271 958.317 491.287 800.225 491.287Z" fill="#4472C4" fill-rule="evenodd"/><path d="M799.892 491.287 958.65 491.287" stroke="#4472C4" stroke-width="0.666667" stroke-miterlimit="8" fill="none" fill-rule="evenodd"/><path d="M799.892 526.487 958.65 526.487" stroke="#4472C4" stroke-width="0.666667" stroke-miterlimit="8" fill="none" fill-rule="evenodd"/><path d="M799.892 561.687 958.65 561.687" stroke="#4472C4" stroke-width="0.666667" stroke-miterlimit="8" fill="none" fill-rule="evenodd"/><path d="M799.892 596.887 958.65 596.887" stroke="#4472C4" stroke-width="0.666667" stroke-miterlimit="8" fill="none" fill-rule="evenodd"/><path d="M799.892 632.087 958.65 632.087" stroke="#4472C4" stroke-width="0.666667" stroke-miterlimit="8" fill="none" fill-rule="evenodd"/><path d="M800.225 456.938 800.225 667.62" stroke="#4472C4" stroke-width="0.666667" stroke-miterlimit="8" fill="none" fill-rule="evenodd"/><path d="M958.317 456.938 958.317 667.62" stroke="#4472C4" stroke-width="0.666667" stroke-miterlimit="8" fill="none" fill-rule="evenodd"/><path d="M799.892 457.271 958.65 457.271" stroke="#4472C4" stroke-width="0.666667" stroke-miterlimit="8" fill="none" fill-rule="evenodd"/><path d="M799.892 667.287 958.65 667.287" stroke="#4472C4" stroke-width="0.666667" stroke-miterlimit="8" fill="none" fill-rule="evenodd"/><g clip-path="url(#clip26)"><text fill="#FFFFFF" font-family="Calibri,Calibri_MSFontService,sans-serif" font-weight="700" font-size="19" transform="translate(809.825 479)">EFFECTUER</text></g><g clip-path="url(#clip27)"><text font-family="Calibri,Calibri_MSFontService,sans-serif" font-weight="700" font-size="21" transform="translate(809.825 516)">NumChantier</text></g><path d="M809.825 518.087 839.325 518.087 868.825 518.087 898.325 518.087 927.825 518.087 927.825 519.087 898.325 519.087 868.825 519.087 839.325 519.087 809.825 519.087Z" fill-rule="evenodd"/><g clip-path="url(#clip28)"><text font-family="Calibri,Calibri_MSFontService,sans-serif" font-weight="700" font-size="21" transform="translate(809.825 551)">NumTache</text></g><path d="M809.825 553.287 840.825 553.287 871.825 553.287 902.825 553.287 902.825 554.287 871.825 554.287 840.825 554.287 809.825 554.287Z" fill-rule="evenodd"/><g clip-path="url(#clip29)"><text font-family="Calibri,Calibri_MSFontService,sans-serif" font-weight="700" font-size="21" transform="translate(809.825 586)">Matricule</text></g><path d="M809.825 588.487 838.158 588.487 866.492 588.487 894.825 588.487 894.825 589.487 866.492 589.487 838.158 589.487 809.825 589.487Z" fill-rule="evenodd"/><g clip-path="url(#clip30)"><text font-family="Calibri,Calibri_MSFontService,sans-serif" font-weight="700" font-size="21" transform="translate(809.825 622)">Date</text></g><path d="M809.825 623.687 830.825 623.687 851.825 623.687 851.825 624.687 830.825 624.687 809.825 624.687Z" fill-rule="evenodd"/><g clip-path="url(#clip31)"><text font-family="Calibri,Calibri_MSFontService,sans-serif" font-weight="400" font-size="21" transform="translate(809.825 657)">NombreHeures</text></g><path d="M312.521 225.037 492.153 225.037 492.153 259.052 312.521 259.052Z" fill="#4472C4" fill-rule="evenodd"/><path d="M312.188 259.052 492.486 259.052" stroke="#4472C4" stroke-width="0.666667" stroke-miterlimit="8" fill="none" fill-rule="evenodd"/><path d="M312.188 294.252 492.486 294.252" stroke="#4472C4" stroke-width="0.666667" stroke-miterlimit="8" fill="none" fill-rule="evenodd"/><path d="M312.188 329.452 492.486 329.452" stroke="#4472C4" stroke-width="0.666667" stroke-miterlimit="8" fill="none" fill-rule="evenodd"/><path d="M312.188 364.652 492.486 364.652" stroke="#4472C4" stroke-width="0.666667" stroke-miterlimit="8" fill="none" fill-rule="evenodd"/><path d="M312.188 399.852 492.486 399.852" stroke="#4472C4" stroke-width="0.666667" stroke-miterlimit="8" fill="none" fill-rule="evenodd"/><path d="M312.521 224.703 312.521 435.386" stroke="#4472C4" stroke-width="0.666667" stroke-miterlimit="8" fill="none" fill-rule="evenodd"/><path d="M492.153 224.703 492.153 435.386" stroke="#4472C4" stroke-width="0.666667" stroke-miterlimit="8" fill="none" fill-rule="evenodd"/><path d="M312.188 225.037 492.486 225.037" stroke="#4472C4" stroke-width="0.666667" stroke-miterlimit="8" fill="none" fill-rule="evenodd"/><path d="M312.188 435.052 492.486 435.052" stroke="#4472C4" stroke-width="0.666667" stroke-miterlimit="8" fill="none" fill-rule="evenodd"/><g clip-path="url(#clip32)"><text fill="#FFFFFF" font-family="Calibri,Calibri_MSFontService,sans-serif" font-weight="700" font-size="19" transform="translate(322.121 247)">CLIENT</text></g><g clip-path="url(#clip33)"><text font-family="Calibri,Calibri_MSFontService,sans-serif" font-weight="700" font-size="21" transform="translate(322.121 284)">NumCli</text></g><path d="M322.121 285.852 354.621 285.852 387.121 285.852 387.121 286.852 354.621 286.852 322.121 286.852Z" fill-rule="evenodd"/><g clip-path="url(#clip34)"><text font-family="Calibri,Calibri_MSFontService,sans-serif" font-weight="400" font-size="21" transform="translate(322.121 319)">AdresseCli</text></g><g clip-path="url(#clip35)"><text font-family="Calibri,Calibri_MSFontService,sans-serif" font-weight="400" font-size="21" transform="translate(322.121 354)">CodePostalCli</text></g><g clip-path="url(#clip36)"><text font-family="Calibri,Calibri_MSFontService,sans-serif" font-weight="400" font-size="21" transform="translate(322.121 389)">VilleCli</text></g><g clip-path="url(#clip37)"><text font-family="Calibri,Calibri_MSFontService,sans-serif" font-weight="400" font-size="21" transform="translate(322.121 425)">TéléphoneCli</text></g><path d="M39.863 414.841 233.5 414.841 233.5 448.857 39.863 448.857Z" fill="#4472C4" fill-rule="evenodd"/><path d="M39.5297 448.857 233.833 448.857" stroke="#4472C4" stroke-width="0.666667" stroke-miterlimit="8" fill="none" fill-rule="evenodd"/><path d="M39.5297 484.057 233.833 484.057" stroke="#4472C4" stroke-width="0.666667" stroke-miterlimit="8" fill="none" fill-rule="evenodd"/><path d="M39.5297 519.257 233.833 519.257" stroke="#4472C4" stroke-width="0.666667" stroke-miterlimit="8" fill="none" fill-rule="evenodd"/><path d="M39.863 414.508 39.863 554.79" stroke="#4472C4" stroke-width="0.666667" stroke-miterlimit="8" fill="none" fill-rule="evenodd"/><path d="M233.5 414.508 233.5 554.79" stroke="#4472C4" stroke-width="0.666667" stroke-miterlimit="8" fill="none" fill-rule="evenodd"/><path d="M39.5297 414.841 233.833 414.841" stroke="#4472C4" stroke-width="0.666667" stroke-miterlimit="8" fill="none" fill-rule="evenodd"/><path d="M39.5297 554.457 233.833 554.457" stroke="#4472C4" stroke-width="0.666667" stroke-miterlimit="8" fill="none" fill-rule="evenodd"/><g clip-path="url(#clip38)"><text fill="#FFFFFF" font-family="Calibri,Calibri_MSFontService,sans-serif" font-weight="700" font-size="19" transform="translate(49.463 437)">PARTICULIER</text></g><g clip-path="url(#clip39)"><text font-family="Calibri,Calibri_MSFontService,sans-serif" font-weight="700" font-size="21" transform="translate(49.463 474)">NumCli</text></g><path d="M49.463 475.657 81.963 475.657 114.463 475.657 114.463 476.657 81.963 476.657 49.463 476.657Z" fill-rule="evenodd"/><g clip-path="url(#clip40)"><text font-family="Calibri,Calibri_MSFontService,sans-serif" font-weight="400" font-size="21" transform="translate(49.463 509)">NomCliPart</text></g><g clip-path="url(#clip41)"><text font-family="Calibri,Calibri_MSFontService,sans-serif" font-weight="400" font-size="21" transform="translate(49.463 544)">PrénomCliPart</text></g><path d="M41.3414 219.581 234.978 219.581 234.978 253.597 41.3414 253.597Z" fill="#4472C4" fill-rule="evenodd"/><path d="M41.0081 253.597 235.312 253.597" stroke="#4472C4" stroke-width="0.666667" stroke-miterlimit="8" fill="none" fill-rule="evenodd"/><path d="M41.0081 288.797 235.312 288.797" stroke="#4472C4" stroke-width="0.666667" stroke-miterlimit="8" fill="none" fill-rule="evenodd"/><path d="M41.0081 323.997 235.312 323.997" stroke="#4472C4" stroke-width="0.666667" stroke-miterlimit="8" fill="none" fill-rule="evenodd"/><path d="M41.3414 219.247 41.3414 359.53" stroke="#4472C4" stroke-width="0.666667" stroke-miterlimit="8" fill="none" fill-rule="evenodd"/><path d="M234.978 219.247 234.978 359.53" stroke="#4472C4" stroke-width="0.666667" stroke-miterlimit="8" fill="none" fill-rule="evenodd"/><path d="M41.0081 219.581 235.312 219.581" stroke="#4472C4" stroke-width="0.666667" stroke-miterlimit="8" fill="none" fill-rule="evenodd"/><path d="M41.0081 359.197 235.312 359.197" stroke="#4472C4" stroke-width="0.666667" stroke-miterlimit="8" fill="none" fill-rule="evenodd"/><g clip-path="url(#clip42)"><text fill="#FFFFFF" font-family="Calibri,Calibri_MSFontService,sans-serif" font-weight="700" font-size="19" transform="translate(50.9414 241)">ENTREPRISE</text></g><g clip-path="url(#clip43)"><text font-family="Calibri,Calibri_MSFontService,sans-serif" font-weight="700" font-size="21" transform="translate(50.9414 278)">NumCli</text></g><path d="M50.9414 280.397 83.4414 280.397 115.941 280.397 115.941 281.397 83.4414 281.397 50.9414 281.397Z" fill-rule="evenodd"/><g clip-path="url(#clip44)"><text font-family="Calibri,Calibri_MSFontService,sans-serif" font-weight="400" font-size="21" transform="translate(50.9414 314)">RaisonSocialeCliEnt</text></g><g clip-path="url(#clip45)"><text font-family="Calibri,Calibri_MSFontService,sans-serif" font-weight="400" font-size="21" transform="translate(50.9414 349)">NumSiretCliEnt</text></g><path d="M313.721 23.17 488.376 23.17 488.376 57.1857 313.721 57.1857Z" fill="#4472C4" fill-rule="evenodd"/><path d="M313.388 57.1857 488.709 57.1857" stroke="#4472C4" stroke-width="0.666667" stroke-miterlimit="8" fill="none" fill-rule="evenodd"/><path d="M313.388 92.3857 488.709 92.3857" stroke="#4472C4" stroke-width="0.666667" stroke-miterlimit="8" fill="none" fill-rule="evenodd"/><path d="M313.388 127.586 488.709 127.586" stroke="#4472C4" stroke-width="0.666667" stroke-miterlimit="8" fill="none" fill-rule="evenodd"/><path d="M313.388 162.786 488.709 162.786" stroke="#4472C4" stroke-width="0.666667" stroke-miterlimit="8" fill="none" fill-rule="evenodd"/><path d="M313.721 22.8366 313.721 198.319" stroke="#4472C4" stroke-width="0.666667" stroke-miterlimit="8" fill="none" fill-rule="evenodd"/><path d="M488.376 22.8366 488.376 198.319" stroke="#4472C4" stroke-width="0.666667" stroke-miterlimit="8" fill="none" fill-rule="evenodd"/><path d="M313.388 23.17 488.709 23.17" stroke="#4472C4" stroke-width="0.666667" stroke-miterlimit="8" fill="none" fill-rule="evenodd"/><path d="M313.388 197.986 488.709 197.986" stroke="#4472C4" stroke-width="0.666667" stroke-miterlimit="8" fill="none" fill-rule="evenodd"/><g clip-path="url(#clip46)"><text fill="#FFFFFF" font-family="Calibri,Calibri_MSFontService,sans-serif" font-weight="700" font-size="19" transform="translate(323.321 45)">MAITRE_OUVRAGE</text></g><g clip-path="url(#clip47)"><text font-family="Calibri,Calibri_MSFontService,sans-serif" font-weight="700" font-size="21" transform="translate(323.321 82)">NumMO</text></g><path d="M323.321 83.9857 361.321 83.9857 399.321 83.9857 399.321 84.9857 361.321 84.9857 323.321 84.9857Z" fill-rule="evenodd"/><g clip-path="url(#clip48)"><text font-family="Calibri,Calibri_MSFontService,sans-serif" font-weight="400" font-size="21" transform="translate(323.321 117)">NomMO</text></g><g clip-path="url(#clip49)"><text font-family="Calibri,Calibri_MSFontService,sans-serif" font-weight="400" font-size="21" transform="translate(323.321 152)">PrénomMO</text></g><g clip-path="url(#clip50)"><text font-family="Calibri,Calibri_MSFontService,sans-serif" font-weight="400" font-size="21" transform="translate(323.321 188)">NumCli</text></g><path d="M555.948 23.7033 747.576 23.7033 747.576 55.7033 555.948 55.7033Z" fill="#4472C4" fill-rule="evenodd"/><path d="M555.614 55.7033 747.909 55.7033" stroke="#4472C4" stroke-width="0.666667" stroke-miterlimit="8" fill="none" fill-rule="evenodd"/><path d="M555.614 90.9033 747.909 90.9033" stroke="#4472C4" stroke-width="0.666667" stroke-miterlimit="8" fill="none" fill-rule="evenodd"/><path d="M555.614 126.103 747.909 126.103" stroke="#4472C4" stroke-width="0.666667" stroke-miterlimit="8" fill="none" fill-rule="evenodd"/><path d="M555.614 161.303 747.909 161.303" stroke="#4472C4" stroke-width="0.666667" stroke-miterlimit="8" fill="none" fill-rule="evenodd"/><path d="M555.614 196.503 747.909 196.503" stroke="#4472C4" stroke-width="0.666667" stroke-miterlimit="8" fill="none" fill-rule="evenodd"/><path d="M555.614 231.703 747.909 231.703" stroke="#4472C4" stroke-width="0.666667" stroke-miterlimit="8" fill="none" fill-rule="evenodd"/><path d="M555.614 266.903 747.909 266.903" stroke="#4472C4" stroke-width="0.666667" stroke-miterlimit="8" fill="none" fill-rule="evenodd"/><path d="M555.948 23.37 555.948 302.437" stroke="#4472C4" stroke-width="0.666667" stroke-miterlimit="8" fill="none" fill-rule="evenodd"/><path d="M747.576 23.37 747.576 302.437" stroke="#4472C4" stroke-width="0.666667" stroke-miterlimit="8" fill="none" fill-rule="evenodd"/><path d="M555.614 23.7033 747.909 23.7033" stroke="#4472C4" stroke-width="0.666667" stroke-miterlimit="8" fill="none" fill-rule="evenodd"/><path d="M555.614 302.103 747.909 302.103" stroke="#4472C4" stroke-width="0.666667" stroke-miterlimit="8" fill="none" fill-rule="evenodd"/><g clip-path="url(#clip51)"><text fill="#FFFFFF" font-family="Calibri,Calibri_MSFontService,sans-serif" font-weight="700" font-size="19" transform="translate(565.547 46)">CHANTIER</text></g><g clip-path="url(#clip52)"><text font-family="Calibri,Calibri_MSFontService,sans-serif" font-weight="700" font-size="21" transform="translate(565.547 81)">NumChantier</text></g><path d="M565.547 82.5033 604.881 82.5033 644.214 82.5033 683.547 82.5033 683.547 83.5033 644.214 83.5033 604.881 83.5033 565.547 83.5033Z" fill-rule="evenodd"/><g clip-path="url(#clip53)"><text font-family="Calibri,Calibri_MSFontService,sans-serif" font-weight="400" font-size="21" transform="translate(565.547 116)">AdresseChantier</text></g><g clip-path="url(#clip54)"><text font-family="Calibri,Calibri_MSFontService,sans-serif" font-weight="400" font-size="21" transform="translate(565.547 151)">CodePostalChantier</text></g><g clip-path="url(#clip55)"><text font-family="Calibri,Calibri_MSFontService,sans-serif" font-weight="400" font-size="21" transform="translate(565.547 186)">VilleChantier</text></g><g clip-path="url(#clip56)"><text font-family="Calibri,Calibri_MSFontService,sans-serif" font-weight="400" font-size="21" transform="translate(565.547 221)">NumMo</text></g><g clip-path="url(#clip57)"><text font-family="Calibri,Calibri_MSFontService,sans-serif" font-weight="400" font-size="21" transform="translate(565.547 257)">NumCli</text></g><g clip-path="url(#clip58)"><text font-family="Calibri,Calibri_MSFontService,sans-serif" font-weight="400" font-size="21" transform="translate(565.547 292)">Matricule</text></g><path d="M1057.63 565.447 1232.17 565.447 1232.17 599.463 1057.63 599.463Z" fill="#4472C4" fill-rule="evenodd"/><path d="M1057.3 599.463 1232.51 599.463" stroke="#4472C4" stroke-width="0.666667" stroke-miterlimit="8" fill="none" fill-rule="evenodd"/><path d="M1057.3 634.663 1232.51 634.663" stroke="#4472C4" stroke-width="0.666667" stroke-miterlimit="8" fill="none" fill-rule="evenodd"/><path d="M1057.63 565.114 1057.63 670.197" stroke="#4472C4" stroke-width="0.666667" stroke-miterlimit="8" fill="none" fill-rule="evenodd"/><path d="M1232.17 565.114 1232.17 670.197" stroke="#4472C4" stroke-width="0.666667" stroke-miterlimit="8" fill="none" fill-rule="evenodd"/><path d="M1057.3 565.447 1232.51 565.447" stroke="#4472C4" stroke-width="0.666667" stroke-miterlimit="8" fill="none" fill-rule="evenodd"/><path d="M1057.3 669.863 1232.51 669.863" stroke="#4472C4" stroke-width="0.666667" stroke-miterlimit="8" fill="none" fill-rule="evenodd"/><g clip-path="url(#clip59)"><text fill="#FFFFFF" font-family="Calibri,Calibri_MSFontService,sans-serif" font-weight="700" font-size="19" transform="translate(1067.23 587)">DATE</text></g><g clip-path="url(#clip60)"><text font-family="Calibri,Calibri_MSFontService,sans-serif" font-weight="700" font-size="21" transform="translate(1067.23 624)">Date</text></g><path d="M1067.23 626.263 1088.23 626.263 1109.23 626.263 1109.23 627.263 1088.23 627.263 1067.23 627.263Z" fill-rule="evenodd"/><g clip-path="url(#clip61)"><text font-family="Calibri,Calibri_MSFontService,sans-serif" font-weight="400" font-size="21" transform="translate(1067.23 659)">Désignation</text></g><path d="M215 468C215 463.029 219.253 459 224.5 459 229.747 459 234 463.029 234 468 234 472.971 229.747 477 224.5 477 219.253 477 215 472.971 215 468Z" fill="#FFFFFF" fill-rule="evenodd"/><path d="M236.5 278 275.444 278 275.444 279.707 273.944 278.207 303.888 278.207 303.888 281.207 272.444 281.207 272.444 279.5 273.944 281 236.5 281ZM302.388 275.207 311.388 279.707 302.388 284.207Z" fill="#4472C4"/><path d="M0-1.5 40.0356-1.5 40.0356 179.355 38.5356 177.855 69.5711 177.855 69.5711 180.855 37.0356 180.855 37.0356 0 38.5356 1.5 0 1.5ZM68.0711 174.855 77.0711 179.355 68.0711 183.855Z" fill="#4472C4" transform="matrix(1 0 0 -1 234.5 468.855)"/><path d="M0-1.5 25.5-1.5 25.5 88.3156 8.83333 88.3156 8.83333 85.3156 24 85.3156 22.5 86.8156 22.5 0 24 1.5 0 1.5ZM10.3333 91.3156 1.33333 86.8156 10.3333 82.3156Z" fill="#4472C4" transform="matrix(-1 1.22465e-16 1.22465e-16 1 312.833 181.5)"/><path d="M1214 474.5C1214 469.253 1218.25 465 1223.5 465 1228.75 465 1233 469.253 1233 474.5 1233 479.747 1228.75 484 1223.5 484 1218.25 484 1214 479.747 1214 474.5Z" fill="#FFFFFF" fill-rule="evenodd"/><path d="M0-1.5 51.0972-1.5 51.0972 0.195486 49.5972-1.30451 91.6943-1.30451 91.6943 1.69549 48.0972 1.69549 48.0972 0 49.5972 1.5 0 1.5ZM90.1943-4.30451 99.1943 0.195486 90.1943 4.69549Z" fill="#4472C4" transform="matrix(1 0 0 -1 961.5 617.696)"/><path d="M0-1.5 74.6203-1.5 74.6203 428.709 73.1203 427.209 82.8414 427.209 82.8414 430.209 71.6203 430.209 71.6203 0 73.1203 1.5 0 1.5ZM81.3414 424.209 90.3414 428.709 81.3414 433.209Z" fill="#4472C4" transform="matrix(1 0 0 -1 961.5 546.209)"/><path d="M0-1.5 60.7129-1.5 60.7129 427.972 59.2129 426.472 81.7624 426.472 81.7624 429.472 57.7129 429.472 57.7129 0 59.2129 1.5 0 1.5ZM80.2624 423.472 89.2624 427.972 80.2624 432.472Z" fill="#4472C4" transform="matrix(1 0 0 -1 961.5 511.472)"/><path d="M0-1.5 21.7357-1.5 21.7357 184.553 20.2357 183.053 86.4404 183.053 86.4404 186.053 18.7357 186.053 18.7357 0 20.2357 1.5 0 1.5ZM84.9404 180.053 93.9404 184.553 84.9404 189.053Z" fill="#4472C4" transform="matrix(1 0 0 -1 956.5 253.053)"/><path d="M0-1.5 36.7728-1.5 36.7728 188.301 35.2728 186.801 87.3502 186.801 87.3502 189.801 33.7728 189.801 33.7728 0 35.2728 1.5 0 1.5ZM85.8502 183.801 94.8502 188.301 85.8502 192.801Z" fill="#4472C4" transform="matrix(1 0 0 -1 957.5 291.801)"/><path d="M0-1.5 26.2029-1.5 26.2029 109.371 24.7029 107.871 41.9059 107.871 41.9059 110.871 23.2029 110.871 23.2029 0 24.7029 1.5 0 1.5ZM40.4059 104.871 49.4059 109.371 40.4059 113.871Z" fill="#4472C4" transform="matrix(-1 1.22465e-16 1.22465e-16 1 797.906 326.5)"/><path d="M796.179 582.974 770.839 582.974 770.839 445.5 772.339 447 756 447 756 444 773.839 444 773.839 581.474 772.339 579.974 796.179 579.974ZM757.5 450 748.5 445.5 757.5 441Z" fill="#4472C4"/><path d="M0 1.5-24.0001 1.5-22.5001 0-22.5001 153.772-24.0001 152.272-2.83606 152.272-2.83606 155.272-25.5001 155.272-25.5001-1.5 0-1.5ZM-4.33606 149.272 4.66394 153.772-4.33606 158.272Z" fill="#4472C4" transform="matrix(-1 0 0 1 1238.16 321.5)"/></g></svg>