<svg width="1280" height="720" xmlns="http://www.w3.org/2000/svg" xmlns:xlink="http://www.w3.org/1999/xlink" overflow="hidden"><defs><clipPath id="clip0"><rect x="0" y="0" width="1280" height="720"/></clipPath><clipPath id="clip1"><rect x="57" y="100" width="175" height="203"/></clipPath><clipPath id="clip2"><rect x="57" y="139" width="175" height="203"/></clipPath><clipPath id="clip3"><rect x="57" y="178" width="175" height="203"/></clipPath><clipPath id="clip4"><rect x="57" y="217" width="175" height="202"/></clipPath><clipPath id="clip5"><rect x="57" y="256" width="175" height="202"/></clipPath><clipPath id="clip6"><rect x="57" y="295" width="175" height="202"/></clipPath><clipPath id="clip7"><rect x="57" y="334" width="175" height="202"/></clipPath><clipPath id="clip8"><rect x="585" y="400" width="175" height="202"/></clipPath><clipPath id="clip9"><rect x="585" y="439" width="175" height="202"/></clipPath><clipPath id="clip10"><rect x="585" y="477" width="175" height="203"/></clipPath><clipPath id="clip11"><rect x="322" y="103" width="176" height="203"/></clipPath><clipPath id="clip12"><rect x="322" y="142" width="176" height="202"/></clipPath><clipPath id="clip13"><rect x="322" y="181" width="176" height="202"/></clipPath><clipPath id="clip14"><rect x="322" y="220" width="176" height="202"/></clipPath><clipPath id="clip15"><rect x="322" y="259" width="176" height="202"/></clipPath><clipPath id="clip16"><rect x="322" y="298" width="176" height="202"/></clipPath><clipPath id="clip17"><rect x="322" y="337" width="176" height="202"/></clipPath><clipPath id="clip18"><rect x="812" y="124" width="212" height="202"/></clipPath><clipPath id="clip19"><rect x="812" y="163" width="212" height="202"/></clipPath><clipPath id="clip20"><rect x="812" y="202" width="212" height="202"/></clipPath><clipPath id="clip21"><rect x="812" y="241" width="212" height="202"/></clipPath><clipPath id="clip22"><rect x="812" y="280" width="212" height="202"/></clipPath><clipPath id="clip23"><rect x="812" y="318" width="212" height="203"/></clipPath><clipPath id="clip24"><rect x="812" y="357" width="212" height="203"/></clipPath><clipPath id="clip25"><rect x="1079" y="122" width="185" height="203"/></clipPath><clipPath id="clip26"><rect x="1079" y="161" width="185" height="203"/></clipPath><clipPath id="clip27"><rect x="1079" y="200" width="185" height="202"/></clipPath><clipPath id="clip28"><rect x="1079" y="239" width="185" height="202"/></clipPath><clipPath id="clip29"><rect x="1079" y="278" width="185" height="202"/></clipPath><clipPath id="clip30"><rect x="1079" y="317" width="185" height="202"/></clipPath><clipPath id="clip31"><rect x="579" y="114" width="176" height="203"/></clipPath><clipPath id="clip32"><rect x="579" y="153" width="176" height="203"/></clipPath><clipPath id="clip33"><rect x="579" y="192" width="176" height="203"/></clipPath><clipPath id="clip34"><rect x="579" y="231" width="176" height="202"/></clipPath></defs><g clip-path="url(#clip0)"><rect x="0" y="0" width="1280" height="720" fill="#FFFFFF"/><path d="M1082 263.5C1082 258.253 1086.03 254 1091 254 1095.97 254 1100 258.253 1100 263.5 1100 268.747 1095.97 273 1091 273 1086.03 273 1082 268.747 1082 263.5Z" fill="#FFFFFF" fill-rule="evenodd"/><path d="M213 239.5C213 234.253 217.253 230 222.5 230 227.747 230 232 234.253 232 239.5 232 244.747 227.747 249 222.5 249 217.253 249 213 244.747 213 239.5Z" fill="#FFFFFF" fill-rule="evenodd"/><path d="M322 397.5C322 392.253 326.253 388 331.5 388 336.747 388 341 392.253 341 397.5 341 402.747 336.747 407 331.5 407 326.253 407 322 402.747 322 397.5Z" fill="#FFFFFF" fill-rule="evenodd"/><path d="M479 436C479 431.029 483.253 427 488.5 427 493.747 427 498 431.029 498 436 498 440.971 493.747 445 488.5 445 483.253 445 479 440.971 479 436Z" fill="#FFFFFF" fill-rule="evenodd"/><path d="M583 535.5C583 530.253 587.253 526 592.5 526 597.747 526 602 530.253 602 535.5 602 540.747 597.747 545 592.5 545 587.253 545 583 540.747 583 535.5Z" fill="#FFFFFF" fill-rule="evenodd"/><path d="M570 294.5C570 289.253 574.253 285 579.5 285 584.747 285 589 289.253 589 294.5 589 299.747 584.747 304 579.5 304 574.253 304 570 299.747 570 294.5Z" fill="#FFFFFF" fill-rule="evenodd"/><path d="M736 254.5C736 249.253 740.253 245 745.5 245 750.747 245 755 249.253 755 254.5 755 259.747 750.747 264 745.5 264 740.253 264 736 259.747 736 254.5Z" fill="#FFFFFF" fill-rule="evenodd"/><path d="M794 267.5C794 262.253 798.253 258 803.5 258 808.747 258 813 262.253 813 267.5 813 272.747 808.747 277 803.5 277 798.253 277 794 272.747 794 267.5Z" fill="#FFFFFF" fill-rule="evenodd"/><path d="M1006 457.5C1006 452.253 1010.25 448 1015.5 448 1020.75 448 1025 452.253 1025 457.5 1025 462.747 1020.75 467 1015.5 467 1010.25 467 1006 462.747 1006 457.5Z" fill="#FFFFFF" fill-rule="evenodd"/><path d="M479 241.5C479 236.253 483.253 232 488.5 232 493.747 232 498 236.253 498 241.5 498 246.747 493.747 251 488.5 251 483.253 251 479 246.747 479 241.5Z" fill="#FFFFFF" fill-rule="evenodd"/><path d="M1244 338.5C1244 333.253 1248.25 329 1253.5 329 1258.75 329 1263 333.253 1263 338.5 1263 343.747 1258.75 348 1253.5 348 1248.25 348 1244 343.747 1244 338.5Z" fill="#FFFFFF" fill-rule="evenodd"/><path d="M57.2121 182.141 231.757 182.141 231.757 221.074 57.2121 221.074Z" fill="#4472C4" fill-rule="evenodd"/><path d="M57.2121 221.074 231.757 221.074 231.757 260.008 57.2121 260.008Z" fill="#CFD5EA" fill-rule="evenodd"/><path d="M57.2121 260.008 231.757 260.008 231.757 298.941 57.2121 298.941Z" fill="#E9EBF5" fill-rule="evenodd"/><path d="M57.2121 298.941 231.757 298.941 231.757 337.874 57.2121 337.874Z" fill="#CFD5EA" fill-rule="evenodd"/><path d="M57.2121 337.874 231.757 337.874 231.757 376.808 57.2121 376.808Z" fill="#E9EBF5" fill-rule="evenodd"/><path d="M57.2121 376.808 231.757 376.808 231.757 415.741 57.2121 415.741Z" fill="#CFD5EA" fill-rule="evenodd"/><path d="M57.2121 415.741 231.757 415.741 231.757 454.674 57.2121 454.674Z" fill="#E9EBF5" fill-rule="evenodd"/><path d="M56.5454 221.074 232.424 221.074" stroke="#FFFFFF" stroke-width="4" stroke-linejoin="round" stroke-miterlimit="10" fill="none" fill-rule="evenodd"/><path d="M56.5454 260.008 232.424 260.008" stroke="#FFFFFF" stroke-width="1.33333" stroke-linejoin="round" stroke-miterlimit="10" fill="none" fill-rule="evenodd"/><path d="M56.5454 298.941 232.424 298.941" stroke="#FFFFFF" stroke-width="1.33333" stroke-linejoin="round" stroke-miterlimit="10" fill="none" fill-rule="evenodd"/><path d="M56.5454 337.874 232.424 337.874" stroke="#FFFFFF" stroke-width="1.33333" stroke-linejoin="round" stroke-miterlimit="10" fill="none" fill-rule="evenodd"/><path d="M56.5454 376.808 232.424 376.808" stroke="#FFFFFF" stroke-width="1.33333" stroke-linejoin="round" stroke-miterlimit="10" fill="none" fill-rule="evenodd"/><path d="M56.5454 415.741 232.424 415.741" stroke="#FFFFFF" stroke-width="1.33333" stroke-linejoin="round" stroke-miterlimit="10" fill="none" fill-rule="evenodd"/><path d="M57.2121 181.474 57.2121 455.341" stroke="#FFFFFF" stroke-width="1.33333" stroke-linejoin="round" stroke-miterlimit="10" fill="none" fill-rule="evenodd"/><path d="M231.757 181.474 231.757 455.341" stroke="#FFFFFF" stroke-width="1.33333" stroke-linejoin="round" stroke-miterlimit="10" fill="none" fill-rule="evenodd"/><path d="M56.5454 182.141 232.424 182.141" stroke="#FFFFFF" stroke-width="1.33333" stroke-linejoin="round" stroke-miterlimit="10" fill="none" fill-rule="evenodd"/><path d="M56.5454 454.674 232.424 454.674" stroke="#FFFFFF" stroke-width="1.33333" stroke-linejoin="round" stroke-miterlimit="10" fill="none" fill-rule="evenodd"/><g clip-path="url(#clip1)"><text fill="#FFFFFF" font-family="Calibri,Calibri_MSFontService,sans-serif" font-weight="700" font-size="24" transform="translate(66.8121 209)">CLIENT</text></g><g clip-path="url(#clip2)"><text font-family="Calibri,Calibri_MSFontService,sans-serif" font-weight="400" font-size="24" transform="translate(66.8121 248)">N</text></g><text font-family="Calibri,Calibri_MSFontService,sans-serif" font-weight="400" font-size="24" transform="translate(82.3121 248)">°</text><text font-family="Calibri,Calibri_MSFontService,sans-serif" font-weight="400" font-size="24" transform="translate(90.4787 248)">Client</text><path d="M66.8121 250.874 93.4787 250.874 120.145 250.874 146.812 250.874 146.812 252.874 120.145 252.874 93.4787 252.874 66.8121 252.874Z" fill-rule="evenodd"/><g clip-path="url(#clip3)"><text font-family="Calibri,Calibri_MSFontService,sans-serif" font-weight="400" font-size="24" transform="translate(66.8121 287)">Nom</text></g><g clip-path="url(#clip4)"><text font-family="Calibri,Calibri_MSFontService,sans-serif" font-weight="400" font-size="24" transform="translate(66.8121 326)">Prénom</text></g><g clip-path="url(#clip5)"><text font-family="Calibri,Calibri_MSFontService,sans-serif" font-weight="400" font-size="24" transform="translate(66.8121 365)">Ad_Rue</text></g><g clip-path="url(#clip6)"><text font-family="Calibri,Calibri_MSFontService,sans-serif" font-weight="400" font-size="24" transform="translate(66.8121 404)">Ad_Code</text></g><g clip-path="url(#clip7)"><text font-family="Calibri,Calibri_MSFontService,sans-serif" font-weight="400" font-size="24" transform="translate(66.8121 443)">Ad_Ville</text></g><path d="M585.426 481.667 759.971 481.667 759.971 520.6 585.426 520.6Z" fill="#4472C4" fill-rule="evenodd"/><path d="M585.426 520.6 759.971 520.6 759.971 559.533 585.426 559.533Z" fill="#CFD5EA" fill-rule="evenodd"/><path d="M585.426 559.533 759.971 559.533 759.971 598.467 585.426 598.467Z" fill="#E9EBF5" fill-rule="evenodd"/><path d="M584.759 520.6 760.638 520.6" stroke="#FFFFFF" stroke-width="4" stroke-linejoin="round" stroke-miterlimit="10" fill="none" fill-rule="evenodd"/><path d="M584.759 559.533 760.638 559.533" stroke="#FFFFFF" stroke-width="1.33333" stroke-linejoin="round" stroke-miterlimit="10" fill="none" fill-rule="evenodd"/><path d="M585.426 481 585.426 599.133" stroke="#FFFFFF" stroke-width="1.33333" stroke-linejoin="round" stroke-miterlimit="10" fill="none" fill-rule="evenodd"/><path d="M759.971 481 759.971 599.133" stroke="#FFFFFF" stroke-width="1.33333" stroke-linejoin="round" stroke-miterlimit="10" fill="none" fill-rule="evenodd"/><path d="M584.759 481.667 760.638 481.667" stroke="#FFFFFF" stroke-width="1.33333" stroke-linejoin="round" stroke-miterlimit="10" fill="none" fill-rule="evenodd"/><path d="M584.759 598.467 760.638 598.467" stroke="#FFFFFF" stroke-width="1.33333" stroke-linejoin="round" stroke-miterlimit="10" fill="none" fill-rule="evenodd"/><g clip-path="url(#clip8)"><text fill="#FFFFFF" font-family="Calibri,Calibri_MSFontService,sans-serif" font-weight="700" font-size="24" transform="translate(595.026 508)">CATEGORIE</text></g><g clip-path="url(#clip9)"><text font-family="Calibri,Calibri_MSFontService,sans-serif" font-weight="400" font-size="24" transform="translate(595.026 547)">N</text></g><text font-family="Calibri,Calibri_MSFontService,sans-serif" font-weight="400" font-size="24" transform="translate(610.526 547)">°</text><text font-family="Calibri,Calibri_MSFontService,sans-serif" font-weight="400" font-size="24" transform="translate(618.693 547)">Catégorie</text><path d="M595.026 550.4 624.276 550.4 653.526 550.4 682.776 550.4 712.026 550.4 712.026 552.4 682.776 552.4 653.526 552.4 624.276 552.4 595.026 552.4Z" fill-rule="evenodd"/><g clip-path="url(#clip10)"><text font-family="Calibri,Calibri_MSFontService,sans-serif" font-weight="400" font-size="24" transform="translate(595.026 586)">Lib_Catégorie</text></g><path d="M322.91 185.05 497.456 185.05 497.456 223.983 322.91 223.983Z" fill="#4472C4" fill-rule="evenodd"/><path d="M322.91 223.983 497.456 223.983 497.456 262.917 322.91 262.917Z" fill="#CFD5EA" fill-rule="evenodd"/><path d="M322.91 262.917 497.456 262.917 497.456 301.85 322.91 301.85Z" fill="#E9EBF5" fill-rule="evenodd"/><path d="M322.91 301.85 497.456 301.85 497.456 340.783 322.91 340.783Z" fill="#CFD5EA" fill-rule="evenodd"/><path d="M322.91 340.783 497.456 340.783 497.456 379.717 322.91 379.717Z" fill="#E9EBF5" fill-rule="evenodd"/><path d="M322.91 379.717 497.456 379.717 497.456 418.65 322.91 418.65Z" fill="#CFD5EA" fill-rule="evenodd"/><path d="M322.91 418.65 497.456 418.65 497.456 457.583 322.91 457.583Z" fill="#E9EBF5" fill-rule="evenodd"/><path d="M322.244 223.983 498.123 223.983" stroke="#FFFFFF" stroke-width="4" stroke-linejoin="round" stroke-miterlimit="10" fill="none" fill-rule="evenodd"/><path d="M322.244 262.917 498.123 262.917" stroke="#FFFFFF" stroke-width="1.33333" stroke-linejoin="round" stroke-miterlimit="10" fill="none" fill-rule="evenodd"/><path d="M322.244 301.85 498.123 301.85" stroke="#FFFFFF" stroke-width="1.33333" stroke-linejoin="round" stroke-miterlimit="10" fill="none" fill-rule="evenodd"/><path d="M322.244 340.783 498.123 340.783" stroke="#FFFFFF" stroke-width="1.33333" stroke-linejoin="round" stroke-miterlimit="10" fill="none" fill-rule="evenodd"/><path d="M322.244 379.717 498.123 379.717" stroke="#FFFFFF" stroke-width="1.33333" stroke-linejoin="round" stroke-miterlimit="10" fill="none" fill-rule="evenodd"/><path d="M322.244 418.65 498.123 418.65" stroke="#FFFFFF" stroke-width="1.33333" stroke-linejoin="round" stroke-miterlimit="10" fill="none" fill-rule="evenodd"/><path d="M322.91 184.383 322.91 458.25" stroke="#FFFFFF" stroke-width="1.33333" stroke-linejoin="round" stroke-miterlimit="10" fill="none" fill-rule="evenodd"/><path d="M497.456 184.383 497.456 458.25" stroke="#FFFFFF" stroke-width="1.33333" stroke-linejoin="round" stroke-miterlimit="10" fill="none" fill-rule="evenodd"/><path d="M322.244 185.05 498.123 185.05" stroke="#FFFFFF" stroke-width="1.33333" stroke-linejoin="round" stroke-miterlimit="10" fill="none" fill-rule="evenodd"/><path d="M322.244 457.583 498.123 457.583" stroke="#FFFFFF" stroke-width="1.33333" stroke-linejoin="round" stroke-miterlimit="10" fill="none" fill-rule="evenodd"/><g clip-path="url(#clip11)"><text fill="#FFFFFF" font-family="Calibri,Calibri_MSFontService,sans-serif" font-weight="700" font-size="24" transform="translate(332.51 212)">COMPTE</text></g><g clip-path="url(#clip12)"><text font-family="Calibri,Calibri_MSFontService,sans-serif" font-weight="400" font-size="24" transform="translate(332.51 251)">N</text></g><text font-family="Calibri,Calibri_MSFontService,sans-serif" font-weight="400" font-size="24" transform="translate(348.01 251)">°</text><text font-family="Calibri,Calibri_MSFontService,sans-serif" font-weight="400" font-size="24" transform="translate(356.177 251)">Compte</text><path d="M332.51 253.783 366.177 253.783 399.844 253.783 433.51 253.783 433.51 255.783 399.844 255.783 366.177 255.783 332.51 255.783Z" fill-rule="evenodd"/><g clip-path="url(#clip13)"><text font-family="Calibri,Calibri_MSFontService,sans-serif" font-weight="400" font-size="24" transform="translate(332.51 290)">Date_Création</text></g><g clip-path="url(#clip14)"><text font-family="Calibri,Calibri_MSFontService,sans-serif" font-weight="400" font-size="24" transform="translate(332.51 329)">Type_Extrait</text></g><g clip-path="url(#clip15)"><text font-family="Calibri,Calibri_MSFontService,sans-serif" font-weight="400" font-size="24" transform="translate(332.51 368)">Fiscalité</text></g><g clip-path="url(#clip16)"><text font-family="Calibri,Calibri_MSFontService,sans-serif" font-weight="400" font-size="24" transform="translate(332.51 407)">N</text></g><text font-family="Calibri,Calibri_MSFontService,sans-serif" font-weight="400" font-size="24" transform="translate(348.01 407)">°</text><text font-family="Calibri,Calibri_MSFontService,sans-serif" font-weight="400" font-size="24" transform="translate(356.177 407)">Client</text><g clip-path="url(#clip17)"><text font-family="Calibri,Calibri_MSFontService,sans-serif" font-weight="400" font-size="24" transform="translate(332.51 445)">N</text></g><text font-family="Calibri,Calibri_MSFontService,sans-serif" font-weight="400" font-size="24" transform="translate(348.01 445)">°</text><text font-family="Calibri,Calibri_MSFontService,sans-serif" font-weight="400" font-size="24" transform="translate(356.177 445)">Catégorie</text><path d="M812.101 205.884 1023.99 205.884 1023.99 244.818 812.101 244.818Z" fill="#4472C4" fill-rule="evenodd"/><path d="M812.101 244.818 1023.99 244.818 1023.99 283.751 812.101 283.751Z" fill="#CFD5EA" fill-rule="evenodd"/><path d="M812.101 283.751 1023.99 283.751 1023.99 322.684 812.101 322.684Z" fill="#E9EBF5" fill-rule="evenodd"/><path d="M812.101 322.684 1023.99 322.684 1023.99 361.618 812.101 361.618Z" fill="#CFD5EA" fill-rule="evenodd"/><path d="M812.101 361.618 1023.99 361.618 1023.99 400.551 812.101 400.551Z" fill="#E9EBF5" fill-rule="evenodd"/><path d="M812.101 400.551 1023.99 400.551 1023.99 439.484 812.101 439.484Z" fill="#CFD5EA" fill-rule="evenodd"/><path d="M812.101 439.484 1023.99 439.484 1023.99 478.418 812.101 478.418Z" fill="#E9EBF5" fill-rule="evenodd"/><path d="M811.434 244.818 1024.66 244.818" stroke="#FFFFFF" stroke-width="4" stroke-linejoin="round" stroke-miterlimit="10" fill="none" fill-rule="evenodd"/><path d="M811.434 283.751 1024.66 283.751" stroke="#FFFFFF" stroke-width="1.33333" stroke-linejoin="round" stroke-miterlimit="10" fill="none" fill-rule="evenodd"/><path d="M811.434 322.684 1024.66 322.684" stroke="#FFFFFF" stroke-width="1.33333" stroke-linejoin="round" stroke-miterlimit="10" fill="none" fill-rule="evenodd"/><path d="M811.434 361.618 1024.66 361.618" stroke="#FFFFFF" stroke-width="1.33333" stroke-linejoin="round" stroke-miterlimit="10" fill="none" fill-rule="evenodd"/><path d="M811.434 400.551 1024.66 400.551" stroke="#FFFFFF" stroke-width="1.33333" stroke-linejoin="round" stroke-miterlimit="10" fill="none" fill-rule="evenodd"/><path d="M811.434 439.484 1024.66 439.484" stroke="#FFFFFF" stroke-width="1.33333" stroke-linejoin="round" stroke-miterlimit="10" fill="none" fill-rule="evenodd"/><path d="M812.101 205.218 812.101 479.084" stroke="#FFFFFF" stroke-width="1.33333" stroke-linejoin="round" stroke-miterlimit="10" fill="none" fill-rule="evenodd"/><path d="M1023.99 205.218 1023.99 479.084" stroke="#FFFFFF" stroke-width="1.33333" stroke-linejoin="round" stroke-miterlimit="10" fill="none" fill-rule="evenodd"/><path d="M811.434 205.884 1024.66 205.884" stroke="#FFFFFF" stroke-width="1.33333" stroke-linejoin="round" stroke-miterlimit="10" fill="none" fill-rule="evenodd"/><path d="M811.434 478.418 1024.66 478.418" stroke="#FFFFFF" stroke-width="1.33333" stroke-linejoin="round" stroke-miterlimit="10" fill="none" fill-rule="evenodd"/><g clip-path="url(#clip18)"><text fill="#FFFFFF" font-family="Calibri,Calibri_MSFontService,sans-serif" font-weight="700" font-size="24" transform="translate(821.701 233)">OPERATION</text></g><g clip-path="url(#clip19)"><text font-family="Calibri,Calibri_MSFontService,sans-serif" font-weight="400" font-size="24" transform="translate(821.701 272)">N</text></g><text font-family="Calibri,Calibri_MSFontService,sans-serif" font-weight="400" font-size="24" transform="translate(837.201 272)">°</text><text font-family="Calibri,Calibri_MSFontService,sans-serif" font-weight="400" font-size="24" transform="translate(845.367 272)">Opération</text><path d="M821.701 274.618 862.367 274.618 903.034 274.618 943.701 274.618 943.701 276.618 903.034 276.618 862.367 276.618 821.701 276.618Z" fill-rule="evenodd"/><g clip-path="url(#clip20)"><text font-family="Calibri,Calibri_MSFontService,sans-serif" font-weight="400" font-size="24" transform="translate(821.701 311)">Date_Opération</text></g><g clip-path="url(#clip21)"><text font-family="Calibri,Calibri_MSFontService,sans-serif" font-weight="400" font-size="24" transform="translate(821.701 349)">Sens_Opération</text></g><g clip-path="url(#clip22)"><text font-family="Calibri,Calibri_MSFontService,sans-serif" font-weight="400" font-size="24" transform="translate(821.701 388)">Quantité_Négociée</text></g><g clip-path="url(#clip23)"><text font-family="Calibri,Calibri_MSFontService,sans-serif" font-weight="400" font-size="24" transform="translate(821.701 427)">Cours_Négocié</text></g><g clip-path="url(#clip24)"><text font-family="Calibri,Calibri_MSFontService,sans-serif" font-weight="400" font-size="24" transform="translate(821.701 466)">Code_Valeur</text></g><path d="M1079.27 204.117 1263.03 204.117 1263.03 243.05 1079.27 243.05Z" fill="#4472C4" fill-rule="evenodd"/><path d="M1079.27 243.05 1263.03 243.05 1263.03 281.983 1079.27 281.983Z" fill="#CFD5EA" fill-rule="evenodd"/><path d="M1079.27 281.983 1263.03 281.983 1263.03 320.917 1079.27 320.917Z" fill="#E9EBF5" fill-rule="evenodd"/><path d="M1079.27 320.917 1263.03 320.917 1263.03 359.85 1079.27 359.85Z" fill="#CFD5EA" fill-rule="evenodd"/><path d="M1079.27 359.85 1263.03 359.85 1263.03 398.783 1079.27 398.783Z" fill="#E9EBF5" fill-rule="evenodd"/><path d="M1079.27 398.783 1263.03 398.783 1263.03 437.717 1079.27 437.717Z" fill="#CFD5EA" fill-rule="evenodd"/><path d="M1078.61 243.05 1263.7 243.05" stroke="#FFFFFF" stroke-width="4" stroke-linejoin="round" stroke-miterlimit="10" fill="none" fill-rule="evenodd"/><path d="M1078.61 281.983 1263.7 281.983" stroke="#FFFFFF" stroke-width="1.33333" stroke-linejoin="round" stroke-miterlimit="10" fill="none" fill-rule="evenodd"/><path d="M1078.61 320.917 1263.7 320.917" stroke="#FFFFFF" stroke-width="1.33333" stroke-linejoin="round" stroke-miterlimit="10" fill="none" fill-rule="evenodd"/><path d="M1078.61 359.85 1263.7 359.85" stroke="#FFFFFF" stroke-width="1.33333" stroke-linejoin="round" stroke-miterlimit="10" fill="none" fill-rule="evenodd"/><path d="M1078.61 398.783 1263.7 398.783" stroke="#FFFFFF" stroke-width="1.33333" stroke-linejoin="round" stroke-miterlimit="10" fill="none" fill-rule="evenodd"/><path d="M1079.27 203.45 1079.27 438.383" stroke="#FFFFFF" stroke-width="1.33333" stroke-linejoin="round" stroke-miterlimit="10" fill="none" fill-rule="evenodd"/><path d="M1263.03 203.45 1263.03 438.383" stroke="#FFFFFF" stroke-width="1.33333" stroke-linejoin="round" stroke-miterlimit="10" fill="none" fill-rule="evenodd"/><path d="M1078.61 204.117 1263.7 204.117" stroke="#FFFFFF" stroke-width="1.33333" stroke-linejoin="round" stroke-miterlimit="10" fill="none" fill-rule="evenodd"/><path d="M1078.61 437.717 1263.7 437.717" stroke="#FFFFFF" stroke-width="1.33333" stroke-linejoin="round" stroke-miterlimit="10" fill="none" fill-rule="evenodd"/><g clip-path="url(#clip25)"><text fill="#FFFFFF" font-family="Calibri,Calibri_MSFontService,sans-serif" font-weight="700" font-size="24" transform="translate(1088.87 231)">VALEUR</text></g><g clip-path="url(#clip26)"><text font-family="Calibri,Calibri_MSFontService,sans-serif" font-weight="400" font-size="24" transform="translate(1088.87 270)">Code_Valeur</text></g><path d="M1088.87 272.85 1120.12 272.85 1151.37 272.85 1182.62 272.85 1213.87 272.85 1213.87 274.85 1182.62 274.85 1151.37 274.85 1120.12 274.85 1088.87 274.85Z" fill-rule="evenodd"/><g clip-path="url(#clip27)"><text font-family="Calibri,Calibri_MSFontService,sans-serif" font-weight="400" font-size="24" transform="translate(1088.87 309)">Libellé_Valeur</text></g><g clip-path="url(#clip28)"><text font-family="Calibri,Calibri_MSFontService,sans-serif" font-weight="400" font-size="24" transform="translate(1088.87 348)">Nominal_Valeur</text></g><g clip-path="url(#clip29)"><text font-family="Calibri,Calibri_MSFontService,sans-serif" font-weight="400" font-size="24" transform="translate(1088.87 387)">Date_Emission</text></g><g clip-path="url(#clip30)"><text font-family="Calibri,Calibri_MSFontService,sans-serif" font-weight="400" font-size="24" transform="translate(1088.87 426)">Date_Echéance</text></g><path d="M579.88 196.149 754.425 196.149 754.425 235.083 579.88 235.083Z" fill="#4472C4" fill-rule="evenodd"/><path d="M579.88 235.083 754.425 235.083 754.425 274.016 579.88 274.016Z" fill="#CFD5EA" fill-rule="evenodd"/><path d="M579.88 274.016 754.425 274.016 754.425 312.949 579.88 312.949Z" fill="#E9EBF5" fill-rule="evenodd"/><path d="M579.88 312.949 754.425 312.949 754.425 351.883 579.88 351.883Z" fill="#CFD5EA" fill-rule="evenodd"/><path d="M579.213 235.083 755.092 235.083" stroke="#FFFFFF" stroke-width="4" stroke-linejoin="round" stroke-miterlimit="10" fill="none" fill-rule="evenodd"/><path d="M579.213 274.016 755.092 274.016" stroke="#FFFFFF" stroke-width="1.33333" stroke-linejoin="round" stroke-miterlimit="10" fill="none" fill-rule="evenodd"/><path d="M579.213 312.949 755.092 312.949" stroke="#FFFFFF" stroke-width="1.33333" stroke-linejoin="round" stroke-miterlimit="10" fill="none" fill-rule="evenodd"/><path d="M579.88 195.483 579.88 352.549" stroke="#FFFFFF" stroke-width="1.33333" stroke-linejoin="round" stroke-miterlimit="10" fill="none" fill-rule="evenodd"/><path d="M754.425 195.483 754.425 352.549" stroke="#FFFFFF" stroke-width="1.33333" stroke-linejoin="round" stroke-miterlimit="10" fill="none" fill-rule="evenodd"/><path d="M579.213 196.149 755.092 196.149" stroke="#FFFFFF" stroke-width="1.33333" stroke-linejoin="round" stroke-miterlimit="10" fill="none" fill-rule="evenodd"/><path d="M579.213 351.883 755.092 351.883" stroke="#FFFFFF" stroke-width="1.33333" stroke-linejoin="round" stroke-miterlimit="10" fill="none" fill-rule="evenodd"/><g clip-path="url(#clip31)"><text fill="#FFFFFF" font-family="Calibri,Calibri_MSFontService,sans-serif" font-weight="700" font-size="24" transform="translate(589.48 223)">AFFECTER</text></g><g clip-path="url(#clip32)"><text font-family="Calibri,Calibri_MSFontService,sans-serif" font-weight="400" font-size="24" transform="translate(589.48 262)">N</text></g><text font-family="Calibri,Calibri_MSFontService,sans-serif" font-weight="400" font-size="24" transform="translate(604.98 262)">°</text><text font-family="Calibri,Calibri_MSFontService,sans-serif" font-weight="400" font-size="24" transform="translate(613.147 262)">Opération</text><path d="M589.48 264.883 619.98 264.883 650.48 264.883 680.98 264.883 711.48 264.883 711.48 266.883 680.98 266.883 650.48 266.883 619.98 266.883 589.48 266.883Z" fill-rule="evenodd"/><g clip-path="url(#clip33)"><text font-family="Calibri,Calibri_MSFontService,sans-serif" font-weight="400" font-size="24" transform="translate(589.48 301)">N</text></g><text font-family="Calibri,Calibri_MSFontService,sans-serif" font-weight="400" font-size="24" transform="translate(604.98 301)">°</text><text font-family="Calibri,Calibri_MSFontService,sans-serif" font-weight="400" font-size="24" transform="translate(613.147 301)">_Compte</text><path d="M589.48 303.816 627.147 303.816 664.813 303.816 702.48 303.816 702.48 305.816 664.813 305.816 627.147 305.816 589.48 305.816Z" fill-rule="evenodd"/><g clip-path="url(#clip34)"><text font-family="Calibri,Calibri_MSFontService,sans-serif" font-weight="400" font-size="24" transform="translate(589.48 340)">Quantité_Aff</text></g><path d="M322.551 399.303 276.026 399.303 276.026 239.5 277.526 241 240 241 240 238 279.026 238 279.026 397.803 277.526 396.303 322.551 396.303ZM241.5 244 232.5 239.5 241.5 235Z" fill="#4472C4"/><path d="M498.5 435 542.427 435 542.427 536.358 540.927 534.858 575.853 534.858 575.853 537.858 539.427 537.858 539.427 436.5 540.927 438 498.5 438ZM574.353 531.858 583.353 536.358 574.353 540.858Z" fill="#4472C4"/><path d="M755.5 253 779.894 253 779.894 267.696 778.394 266.196 793.788 266.196 793.788 269.196 776.894 269.196 776.894 254.5 778.394 256 755.5 256ZM792.288 263.196 801.288 267.696 792.288 272.196Z" fill="#4472C4"/><path d="M0-1.5 29.9641-1.5 29.9641 194.253 28.4641 192.753 49.4281 192.753 49.4281 195.753 26.9641 195.753 26.9641 0 28.4641 1.5 0 1.5ZM47.9281 189.753 56.9281 194.253 47.9281 198.753Z" fill="#4472C4" transform="matrix(1 0 0 -1 1025.5 457.753)"/><path d="M570.067 295.823 532.783 295.823 532.783 241.5 534.283 243 506 243 506 240 535.783 240 535.783 294.323 534.283 292.823 570.067 292.823ZM507.5 246 498.5 241.5 507.5 237Z" fill="#4472C4"/><text font-family="Calibri Light,Calibri Light_MSFontService,sans-serif" font-weight="300" font-size="59" transform="translate(580.667 79)">2009</text></g></svg>