<svg width="1280" height="720" xmlns="http://www.w3.org/2000/svg" xmlns:xlink="http://www.w3.org/1999/xlink" overflow="hidden"><defs><clipPath id="clip0"><rect x="0" y="0" width="1280" height="720"/></clipPath><clipPath id="clip1"><rect x="76" y="345" width="175" height="203"/></clipPath><clipPath id="clip2"><rect x="76" y="384" width="175" height="203"/></clipPath><clipPath id="clip3"><rect x="76" y="423" width="175" height="202"/></clipPath><clipPath id="clip4"><rect x="76" y="462" width="175" height="202"/></clipPath><clipPath id="clip5"><rect x="76" y="501" width="175" height="202"/></clipPath><clipPath id="clip6"><rect x="76" y="540" width="175" height="202"/></clipPath><clipPath id="clip7"><rect x="984" y="236" width="215" height="203"/></clipPath><clipPath id="clip8"><rect x="984" y="275" width="215" height="203"/></clipPath><clipPath id="clip9"><rect x="984" y="314" width="215" height="203"/></clipPath><clipPath id="clip10"><rect x="72" y="16" width="176" height="202"/></clipPath><clipPath id="clip11"><rect x="72" y="55" width="176" height="202"/></clipPath><clipPath id="clip12"><rect x="72" y="94" width="176" height="202"/></clipPath><clipPath id="clip13"><rect x="72" y="133" width="176" height="202"/></clipPath><clipPath id="clip14"><rect x="72" y="171" width="176" height="203"/></clipPath><clipPath id="clip15"><rect x="72" y="210" width="176" height="203"/></clipPath><clipPath id="clip16"><rect x="367" y="16" width="213" height="203"/></clipPath><clipPath id="clip17"><rect x="367" y="55" width="213" height="203"/></clipPath><clipPath id="clip18"><rect x="367" y="94" width="213" height="202"/></clipPath><clipPath id="clip19"><rect x="367" y="133" width="213" height="202"/></clipPath><clipPath id="clip20"><rect x="367" y="172" width="213" height="202"/></clipPath><clipPath id="clip21"><rect x="367" y="211" width="213" height="202"/></clipPath><clipPath id="clip22"><rect x="367" y="250" width="213" height="202"/></clipPath><clipPath id="clip23"><rect x="367" y="289" width="213" height="202"/></clipPath><clipPath id="clip24"><rect x="367" y="327" width="213" height="203"/></clipPath><clipPath id="clip25"><rect x="367" y="366" width="213" height="203"/></clipPath><clipPath id="clip26"><rect x="367" y="405" width="213" height="203"/></clipPath><clipPath id="clip27"><rect x="367" y="444" width="213" height="203"/></clipPath><clipPath id="clip28"><rect x="367" y="483" width="213" height="203"/></clipPath><clipPath id="clip29"><rect x="695" y="316" width="185" height="202"/></clipPath><clipPath id="clip30"><rect x="695" y="355" width="185" height="202"/></clipPath><clipPath id="clip31"><rect x="695" y="394" width="185" height="202"/></clipPath><clipPath id="clip32"><rect x="695" y="433" width="185" height="202"/></clipPath><clipPath id="clip33"><rect x="695" y="471" width="185" height="203"/></clipPath><clipPath id="clip34"><rect x="984" y="421" width="215" height="202"/></clipPath><clipPath id="clip35"><rect x="984" y="460" width="215" height="202"/></clipPath><clipPath id="clip36"><rect x="984" y="498" width="215" height="203"/></clipPath><clipPath id="clip37"><rect x="979" y="11" width="215" height="203"/></clipPath><clipPath id="clip38"><rect x="979" y="50" width="215" height="203"/></clipPath><clipPath id="clip39"><rect x="979" y="89" width="215" height="203"/></clipPath><clipPath id="clip40"><rect x="979" y="128" width="215" height="203"/></clipPath><clipPath id="clip41"><rect x="689" y="14" width="185" height="202"/></clipPath><clipPath id="clip42"><rect x="689" y="53" width="185" height="202"/></clipPath><clipPath id="clip43"><rect x="689" y="92" width="185" height="202"/></clipPath><clipPath id="clip44"><rect x="689" y="131" width="185" height="202"/></clipPath><clipPath id="clip45"><rect x="689" y="169" width="185" height="203"/></clipPath><clipPath id="clip46"><rect x="689" y="208" width="185" height="203"/></clipPath></defs><g clip-path="url(#clip0)"><rect x="0" y="0" width="1280" height="720" fill="#FFFFFF"/><path d="M865 449C865 444.029 869.253 440 874.5 440 879.747 440 884 444.029 884 449 884 453.971 879.747 458 874.5 458 869.253 458 865 453.971 865 449Z" fill="#FFFFFF" fill-rule="evenodd"/><path d="M690 232.5C690 227.253 694.253 223 699.5 223 704.747 223 709 227.253 709 232.5 709 237.747 704.747 242 699.5 242 694.253 242 690 237.747 690 232.5Z" fill="#FFFFFF" fill-rule="evenodd"/><path d="M569 201.5C569 196.253 573.253 192 578.5 192 583.747 192 588 196.253 588 201.5 588 206.747 583.747 211 578.5 211 573.253 211 569 206.747 569 201.5Z" fill="#FFFFFF" fill-rule="evenodd"/><path d="M688 191.5C688 186.253 692.253 182 697.5 182 702.747 182 707 186.253 707 191.5 707 196.747 702.747 201 697.5 201 692.253 201 688 196.747 688 191.5Z" fill="#FFFFFF" fill-rule="evenodd"/><path d="M693 458.5C693 453.253 697.253 449 702.5 449 707.747 449 712 453.253 712 458.5 712 463.747 707.747 468 702.5 468 697.253 468 693 463.747 693 458.5Z" fill="#FFFFFF" fill-rule="evenodd"/><path d="M865 463.5C865 458.253 869.253 454 874.5 454 879.747 454 884 458.253 884 463.5 884 468.747 879.747 473 874.5 473 869.253 473 865 468.747 865 463.5Z" fill="#FFFFFF" fill-rule="evenodd"/><path d="M563 584.5C563 579.253 567.253 575 572.5 575 577.747 575 582 579.253 582 584.5 582 589.747 577.747 594 572.5 594 567.253 594 563 589.747 563 584.5Z" fill="#FFFFFF" fill-rule="evenodd"/><path d="M565 155.5C565 150.253 569.253 146 574.5 146 579.747 146 584 150.253 584 155.5 584 160.747 579.747 165 574.5 165 569.253 165 565 160.747 565 155.5Z" fill="#FFFFFF" fill-rule="evenodd"/><path d="M368 545.5C368 540.253 372.029 536 377 536 381.971 536 386 540.253 386 545.5 386 550.747 381.971 555 377 555 372.029 555 368 550.747 368 545.5Z" fill="#FFFFFF" fill-rule="evenodd"/><path d="M230 154.5C230 149.253 234.253 145 239.5 145 244.747 145 249 149.253 249 154.5 249 159.747 244.747 164 239.5 164 234.253 164 230 159.747 230 154.5Z" fill="#FFFFFF" fill-rule="evenodd"/><path d="M232 484.5C232 479.253 236.253 475 241.5 475 246.747 475 251 479.253 251 484.5 251 489.747 246.747 494 241.5 494 236.253 494 232 489.747 232 484.5Z" fill="#FFFFFF" fill-rule="evenodd"/><path d="M364 194.5C364 189.253 368.253 185 373.5 185 378.747 185 383 189.253 383 194.5 383 199.747 378.747 204 373.5 204 368.253 204 364 199.747 364 194.5Z" fill="#FFFFFF" fill-rule="evenodd"/><path d="M980 372.5C980 367.253 984.253 363 989.5 363 994.747 363 999 367.253 999 372.5 999 377.747 994.747 382 989.5 382 984.253 382 980 377.747 980 372.5Z" fill="#FFFFFF" fill-rule="evenodd"/><path d="M982 600.5C982 595.253 986.253 591 991.5 591 996.747 591 1001 595.253 1001 600.5 1001 605.747 996.747 610 991.5 610 986.253 610 982 605.747 982 600.5Z" fill="#FFFFFF" fill-rule="evenodd"/><path d="M1192 417.5C1192 412.253 1196.03 408 1201 408 1205.97 408 1210 412.253 1210 417.5 1210 422.747 1205.97 427 1201 427 1196.03 427 1192 422.747 1192 417.5Z" fill="#FFFFFF" fill-rule="evenodd"/><path d="M76.4064 427.13 250.952 427.13 250.952 466.064 76.4064 466.064Z" fill-rule="evenodd"/><path d="M76.0731 466.064 251.285 466.064" stroke="#000000" stroke-width="0.666667" stroke-miterlimit="8" fill="none" fill-rule="evenodd"/><path d="M76.0731 504.997 251.285 504.997" stroke="#000000" stroke-width="0.666667" stroke-miterlimit="8" fill="none" fill-rule="evenodd"/><path d="M76.0731 543.93 251.285 543.93" stroke="#000000" stroke-width="0.666667" stroke-miterlimit="8" fill="none" fill-rule="evenodd"/><path d="M76.0731 582.864 251.285 582.864" stroke="#000000" stroke-width="0.666667" stroke-miterlimit="8" fill="none" fill-rule="evenodd"/><path d="M76.0731 621.797 251.285 621.797" stroke="#000000" stroke-width="0.666667" stroke-miterlimit="8" fill="none" fill-rule="evenodd"/><path d="M76.4064 426.797 76.4064 661.063" stroke="#000000" stroke-width="0.666667" stroke-miterlimit="8" fill="none" fill-rule="evenodd"/><path d="M250.952 426.797 250.952 661.063" stroke="#000000" stroke-width="0.666667" stroke-miterlimit="8" fill="none" fill-rule="evenodd"/><path d="M76.0731 427.13 251.285 427.13" stroke="#000000" stroke-width="0.666667" stroke-miterlimit="8" fill="none" fill-rule="evenodd"/><path d="M76.0731 660.73 251.285 660.73" stroke="#000000" stroke-width="0.666667" stroke-miterlimit="8" fill="none" fill-rule="evenodd"/><g clip-path="url(#clip1)"><text fill="#FFFFFF" font-family="Calibri,Calibri_MSFontService,sans-serif" font-weight="700" font-size="24" transform="translate(86.0064 454)">CLIENT</text></g><g clip-path="url(#clip2)"><text font-family="Calibri,Calibri_MSFontService,sans-serif" font-weight="700" font-size="24" transform="translate(86.0064 493)">NumClient</text></g><path d="M86.0064 495.864 121.006 495.864 156.006 495.864 191.006 495.864 191.006 497.864 156.006 497.864 121.006 497.864 86.0064 497.864Z" fill-rule="evenodd"/><g clip-path="url(#clip3)"><text font-family="Calibri,Calibri_MSFontService,sans-serif" font-weight="400" font-size="24" transform="translate(86.0064 532)">NomClient</text></g><g clip-path="url(#clip4)"><text font-family="Calibri,Calibri_MSFontService,sans-serif" font-weight="400" font-size="24" transform="translate(86.0064 571)">AdresseClient</text></g><g clip-path="url(#clip5)"><text font-family="Calibri,Calibri_MSFontService,sans-serif" font-weight="400" font-size="24" transform="translate(86.0064 610)">CPClient</text></g><g clip-path="url(#clip6)"><text font-family="Calibri,Calibri_MSFontService,sans-serif" font-weight="400" font-size="24" transform="translate(86.0064 649)">VilleClient</text></g><path d="M984.088 318.445 1198.36 318.445 1198.36 357.378 984.088 357.378Z" fill-rule="evenodd"/><path d="M983.755 357.378 1198.69 357.378" stroke="#000000" stroke-width="0.666667" stroke-miterlimit="8" fill="none" fill-rule="evenodd"/><path d="M983.755 396.312 1198.69 396.312" stroke="#000000" stroke-width="0.666667" stroke-miterlimit="8" fill="none" fill-rule="evenodd"/><path d="M984.088 318.112 984.088 435.578" stroke="#000000" stroke-width="0.666667" stroke-miterlimit="8" fill="none" fill-rule="evenodd"/><path d="M1198.36 318.112 1198.36 435.578" stroke="#000000" stroke-width="0.666667" stroke-miterlimit="8" fill="none" fill-rule="evenodd"/><path d="M983.755 318.445 1198.69 318.445" stroke="#000000" stroke-width="0.666667" stroke-miterlimit="8" fill="none" fill-rule="evenodd"/><path d="M983.755 435.245 1198.69 435.245" stroke="#000000" stroke-width="0.666667" stroke-miterlimit="8" fill="none" fill-rule="evenodd"/><g clip-path="url(#clip7)"><text fill="#FFFFFF" font-family="Calibri,Calibri_MSFontService,sans-serif" font-weight="700" font-size="24" transform="translate(993.688 345)">SANS_CHAUFFEUR</text></g><g clip-path="url(#clip8)"><text font-family="Calibri,Calibri_MSFontService,sans-serif" font-weight="400" font-size="24" transform="translate(993.688 384)">NumVeh</text></g><g clip-path="url(#clip9)"><text font-family="Calibri,Calibri_MSFontService,sans-serif" font-weight="400" font-size="24" transform="translate(993.688 423)">NumCategorie</text></g><path d="M72.7272 97.8342 247.273 97.8342 247.273 136.768 72.7272 136.768Z" fill-rule="evenodd"/><path d="M72.3939 136.768 247.606 136.768" stroke="#000000" stroke-width="0.666667" stroke-miterlimit="8" fill="none" fill-rule="evenodd"/><path d="M72.3939 175.701 247.606 175.701" stroke="#000000" stroke-width="0.666667" stroke-miterlimit="8" fill="none" fill-rule="evenodd"/><path d="M72.3939 214.634 247.606 214.634" stroke="#000000" stroke-width="0.666667" stroke-miterlimit="8" fill="none" fill-rule="evenodd"/><path d="M72.3939 253.568 247.606 253.568" stroke="#000000" stroke-width="0.666667" stroke-miterlimit="8" fill="none" fill-rule="evenodd"/><path d="M72.3939 292.501 247.606 292.501" stroke="#000000" stroke-width="0.666667" stroke-miterlimit="8" fill="none" fill-rule="evenodd"/><path d="M72.7272 97.5009 72.7272 331.768" stroke="#000000" stroke-width="0.666667" stroke-miterlimit="8" fill="none" fill-rule="evenodd"/><path d="M247.273 97.5009 247.273 331.768" stroke="#000000" stroke-width="0.666667" stroke-miterlimit="8" fill="none" fill-rule="evenodd"/><path d="M72.3939 97.8342 247.606 97.8342" stroke="#000000" stroke-width="0.666667" stroke-miterlimit="8" fill="none" fill-rule="evenodd"/><path d="M72.3939 331.434 247.606 331.434" stroke="#000000" stroke-width="0.666667" stroke-miterlimit="8" fill="none" fill-rule="evenodd"/><g clip-path="url(#clip10)"><text fill="#FFFFFF" font-family="Calibri,Calibri_MSFontService,sans-serif" font-weight="700" font-size="24" transform="translate(82.3272 125)">AGENCE</text></g><g clip-path="url(#clip11)"><text font-family="Calibri,Calibri_MSFontService,sans-serif" font-weight="700" font-size="24" transform="translate(82.3272 164)">NumAgence</text></g><path d="M82.3272 166.568 112.577 166.568 142.827 166.568 173.077 166.568 203.327 166.568 203.327 168.568 173.077 168.568 142.827 168.568 112.577 168.568 82.3272 168.568Z" fill-rule="evenodd"/><g clip-path="url(#clip12)"><text font-family="Calibri,Calibri_MSFontService,sans-serif" font-weight="400" font-size="24" transform="translate(82.3272 203)">NomAgence</text></g><g clip-path="url(#clip13)"><text font-family="Calibri,Calibri_MSFontService,sans-serif" font-weight="400" font-size="24" transform="translate(82.3272 241)">AdresseAgence</text></g><g clip-path="url(#clip14)"><text font-family="Calibri,Calibri_MSFontService,sans-serif" font-weight="400" font-size="24" transform="translate(82.3272 280)">VilleAgence</text></g><g clip-path="url(#clip15)"><text font-family="Calibri,Calibri_MSFontService,sans-serif" font-weight="400" font-size="24" transform="translate(82.3272 319)">CPAgence</text></g><path d="M367.838 98.0924 579.727 98.0924 579.727 137.026 367.838 137.026Z" fill-rule="evenodd"/><path d="M367.504 137.026 580.06 137.026" stroke="#000000" stroke-width="0.666667" stroke-miterlimit="8" fill="none" fill-rule="evenodd"/><path d="M367.504 175.959 580.06 175.959" stroke="#000000" stroke-width="0.666667" stroke-miterlimit="8" fill="none" fill-rule="evenodd"/><path d="M367.504 214.892 580.06 214.892" stroke="#000000" stroke-width="0.666667" stroke-miterlimit="8" fill="none" fill-rule="evenodd"/><path d="M367.504 253.826 580.06 253.826" stroke="#000000" stroke-width="0.666667" stroke-miterlimit="8" fill="none" fill-rule="evenodd"/><path d="M367.504 292.759 580.06 292.759" stroke="#000000" stroke-width="0.666667" stroke-miterlimit="8" fill="none" fill-rule="evenodd"/><path d="M367.504 331.692 580.06 331.692" stroke="#000000" stroke-width="0.666667" stroke-miterlimit="8" fill="none" fill-rule="evenodd"/><path d="M367.504 370.626 580.06 370.626" stroke="#000000" stroke-width="0.666667" stroke-miterlimit="8" fill="none" fill-rule="evenodd"/><path d="M367.504 409.559 580.06 409.559" stroke="#000000" stroke-width="0.666667" stroke-miterlimit="8" fill="none" fill-rule="evenodd"/><path d="M367.504 448.492 580.06 448.492" stroke="#000000" stroke-width="0.666667" stroke-miterlimit="8" fill="none" fill-rule="evenodd"/><path d="M367.504 487.426 580.06 487.426" stroke="#000000" stroke-width="0.666667" stroke-miterlimit="8" fill="none" fill-rule="evenodd"/><path d="M367.504 526.359 580.06 526.359" stroke="#000000" stroke-width="0.666667" stroke-miterlimit="8" fill="none" fill-rule="evenodd"/><path d="M367.504 565.292 580.06 565.292" stroke="#000000" stroke-width="0.666667" stroke-miterlimit="8" fill="none" fill-rule="evenodd"/><path d="M367.838 97.7591 367.838 604.559" stroke="#000000" stroke-width="0.666667" stroke-miterlimit="8" fill="none" fill-rule="evenodd"/><path d="M579.727 97.7591 579.727 604.559" stroke="#000000" stroke-width="0.666667" stroke-miterlimit="8" fill="none" fill-rule="evenodd"/><path d="M367.504 98.0924 580.06 98.0924" stroke="#000000" stroke-width="0.666667" stroke-miterlimit="8" fill="none" fill-rule="evenodd"/><path d="M367.504 604.226 580.06 604.226" stroke="#000000" stroke-width="0.666667" stroke-miterlimit="8" fill="none" fill-rule="evenodd"/><g clip-path="url(#clip16)"><text fill="#FFFFFF" font-family="Calibri,Calibri_MSFontService,sans-serif" font-weight="700" font-size="24" transform="translate(377.438 125)">CONTRAT</text></g><g clip-path="url(#clip17)"><text font-family="Calibri,Calibri_MSFontService,sans-serif" font-weight="700" font-size="24" transform="translate(377.438 164)">NumContrat</text></g><path d="M377.438 166.826 418.438 166.826 459.438 166.826 500.438 166.826 500.438 168.826 459.438 168.826 418.438 168.826 377.438 168.826Z" fill-rule="evenodd"/><g clip-path="url(#clip18)"><text font-family="Calibri,Calibri_MSFontService,sans-serif" font-weight="700" font-size="24" transform="translate(377.438 203)">NumAgence</text></g><path d="M377.438 205.759 417.771 205.759 458.104 205.759 498.438 205.759 498.438 207.759 458.104 207.759 417.771 207.759 377.438 207.759Z" fill-rule="evenodd"/><g clip-path="url(#clip19)"><text font-family="Calibri,Calibri_MSFontService,sans-serif" font-weight="400" font-size="24" transform="translate(377.438 242)">DateContrat</text></g><g clip-path="url(#clip20)"><text font-family="Calibri,Calibri_MSFontService,sans-serif" font-weight="400" font-size="24" transform="translate(377.438 281)">DateDebut</text></g><g clip-path="url(#clip21)"><text font-family="Calibri,Calibri_MSFontService,sans-serif" font-weight="400" font-size="24" transform="translate(377.438 320)">HeureDebut</text></g><g clip-path="url(#clip22)"><text font-family="Calibri,Calibri_MSFontService,sans-serif" font-weight="400" font-size="24" transform="translate(377.438 358)">DateFin</text></g><g clip-path="url(#clip23)"><text font-family="Calibri,Calibri_MSFontService,sans-serif" font-weight="400" font-size="24" transform="translate(377.438 397)">HeurFin</text></g><g clip-path="url(#clip24)"><text font-family="Calibri,Calibri_MSFontService,sans-serif" font-weight="400" font-size="24" transform="translate(377.438 436)">KmsRemise</text></g><g clip-path="url(#clip25)"><text font-family="Calibri,Calibri_MSFontService,sans-serif" font-weight="400" font-size="24" transform="translate(377.438 475)">KmsRetour</text></g><g clip-path="url(#clip26)"><text font-family="Calibri,Calibri_MSFontService,sans-serif" font-weight="400" font-size="24" transform="translate(377.438 514)">EtatVeh</text></g><g clip-path="url(#clip27)"><text font-family="Calibri,Calibri_MSFontService,sans-serif" font-weight="400" font-size="24" transform="translate(377.438 553)">NumClient</text></g><g clip-path="url(#clip28)"><text font-family="Calibri,Calibri_MSFontService,sans-serif" font-weight="400" font-size="24" transform="translate(377.438 592)">NumVeh</text></g><path d="M695.64 397.816 879.398 397.816 879.398 436.749 695.64 436.749Z" fill-rule="evenodd"/><path d="M695.307 436.749 879.732 436.749" stroke="#000000" stroke-width="0.666667" stroke-miterlimit="8" fill="none" fill-rule="evenodd"/><path d="M695.307 475.683 879.732 475.683" stroke="#000000" stroke-width="0.666667" stroke-miterlimit="8" fill="none" fill-rule="evenodd"/><path d="M695.307 514.616 879.732 514.616" stroke="#000000" stroke-width="0.666667" stroke-miterlimit="8" fill="none" fill-rule="evenodd"/><path d="M695.307 553.549 879.732 553.549" stroke="#000000" stroke-width="0.666667" stroke-miterlimit="8" fill="none" fill-rule="evenodd"/><path d="M695.64 397.483 695.64 592.816" stroke="#000000" stroke-width="0.666667" stroke-miterlimit="8" fill="none" fill-rule="evenodd"/><path d="M879.398 397.483 879.398 592.816" stroke="#000000" stroke-width="0.666667" stroke-miterlimit="8" fill="none" fill-rule="evenodd"/><path d="M695.307 397.816 879.732 397.816" stroke="#000000" stroke-width="0.666667" stroke-miterlimit="8" fill="none" fill-rule="evenodd"/><path d="M695.307 592.483 879.732 592.483" stroke="#000000" stroke-width="0.666667" stroke-miterlimit="8" fill="none" fill-rule="evenodd"/><g clip-path="url(#clip29)"><text fill="#FFFFFF" font-family="Calibri,Calibri_MSFontService,sans-serif" font-weight="700" font-size="24" transform="translate(705.24 425)">VEHICULE</text></g><g clip-path="url(#clip30)"><text font-family="Calibri,Calibri_MSFontService,sans-serif" font-weight="700" font-size="24" transform="translate(705.24 464)">NumVeh</text></g><path d="M705.24 466.549 733.907 466.549 762.574 466.549 791.24 466.549 791.24 468.549 762.574 468.549 733.907 468.549 705.24 468.549Z" fill-rule="evenodd"/><g clip-path="url(#clip31)"><text font-family="Calibri,Calibri_MSFontService,sans-serif" font-weight="400" font-size="24" transform="translate(705.24 502)">DateAchat</text></g><g clip-path="url(#clip32)"><text font-family="Calibri,Calibri_MSFontService,sans-serif" font-weight="400" font-size="24" transform="translate(705.24 541)">Capacité</text></g><g clip-path="url(#clip33)"><text font-family="Calibri,Calibri_MSFontService,sans-serif" font-weight="400" font-size="24" transform="translate(705.24 580)">MontantCaution</text></g><path d="M984.088 502.696 1198.36 502.696 1198.36 541.63 984.088 541.63Z" fill-rule="evenodd"/><path d="M983.755 541.63 1198.69 541.63" stroke="#000000" stroke-width="0.666667" stroke-miterlimit="8" fill="none" fill-rule="evenodd"/><path d="M983.755 580.563 1198.69 580.563" stroke="#000000" stroke-width="0.666667" stroke-miterlimit="8" fill="none" fill-rule="evenodd"/><path d="M984.088 502.363 984.088 619.83" stroke="#000000" stroke-width="0.666667" stroke-miterlimit="8" fill="none" fill-rule="evenodd"/><path d="M1198.36 502.363 1198.36 619.83" stroke="#000000" stroke-width="0.666667" stroke-miterlimit="8" fill="none" fill-rule="evenodd"/><path d="M983.755 502.696 1198.69 502.696" stroke="#000000" stroke-width="0.666667" stroke-miterlimit="8" fill="none" fill-rule="evenodd"/><path d="M983.755 619.496 1198.69 619.496" stroke="#000000" stroke-width="0.666667" stroke-miterlimit="8" fill="none" fill-rule="evenodd"/><g clip-path="url(#clip34)"><text fill="#FFFFFF" font-family="Calibri,Calibri_MSFontService,sans-serif" font-weight="700" font-size="24" transform="translate(993.688 529)">AVEC_CHAUFFEUR</text></g><g clip-path="url(#clip35)"><text font-family="Calibri,Calibri_MSFontService,sans-serif" font-weight="400" font-size="24" transform="translate(993.688 568)">ForfaitJour</text></g><g clip-path="url(#clip36)"><text font-family="Calibri,Calibri_MSFontService,sans-serif" font-weight="400" font-size="24" transform="translate(993.688 607)">NumVeh</text></g><path d="M368.231 547.156 308.366 547.156 308.366 484.5 309.866 486 259 486 259 483 311.366 483 311.366 545.656 309.866 544.156 368.231 544.156ZM260.5 489 251.5 484.5 260.5 480Z"/><path d="M0-1.5 49.7595-1.5 49.7595 76.325 48.2595 74.825 89.019 74.825 89.019 77.825 46.7595 77.825 46.7595 0 48.2595 1.5 0 1.5ZM87.5189 71.825 96.5189 76.325 87.5189 80.825Z" transform="matrix(-1 1.22465e-16 1.22465e-16 1 981.019 373.5)"/><path d="M1211.38 416.786 1235.38 416.786 1233.88 418.286 1233.88 154.5 1235.38 156 1212 156 1212 153 1236.88 153 1236.88 419.786 1211.38 419.786ZM1213.5 159 1204.5 154.5 1213.5 150Z"/><path d="M0-1.5 57.0975-1.5 57.0975 125.997 55.5975 124.497 103.695 124.497 103.695 127.497 54.0975 127.497 54.0975 0 55.5975 1.5 0 1.5ZM102.195 121.497 111.195 125.997 102.195 130.497Z" transform="matrix(1 0 0 -1 582.5 585.497)"/><path d="M983.141 603.119 932.321 603.119 932.321 464.5 933.821 466 892 466 892 463 935.321 463 935.321 601.619 933.821 600.119 983.141 600.119ZM893.5 469 884.5 464.5 893.5 460Z"/><text font-family="Calibri Light,Calibri Light_MSFontService,sans-serif" font-weight="300" font-size="59" transform="translate(457.5 47)">2016 (simplifié)</text><path d="M364.277 196.24 305.388 196.24 305.388 154.5 306.888 156 257 156 257 153 308.388 153 308.388 194.74 306.888 193.24 364.277 193.24ZM258.5 159 249.5 154.5 258.5 150Z"/><path d="M1185 153.5C1185 148.253 1189.25 144 1194.5 144 1199.75 144 1204 148.253 1204 153.5 1204 158.747 1199.75 163 1194.5 163 1189.25 163 1185 158.747 1185 153.5Z" fill="#FFFFFF" fill-rule="evenodd"/><path d="M979.162 93.569 1193.43 93.569 1193.43 132.502 979.162 132.502Z" fill-rule="evenodd"/><path d="M978.828 132.502 1193.77 132.502" stroke="#000000" stroke-width="0.666667" stroke-miterlimit="8" fill="none" fill-rule="evenodd"/><path d="M978.828 171.436 1193.77 171.436" stroke="#000000" stroke-width="0.666667" stroke-miterlimit="8" fill="none" fill-rule="evenodd"/><path d="M978.828 210.369 1193.77 210.369" stroke="#000000" stroke-width="0.666667" stroke-miterlimit="8" fill="none" fill-rule="evenodd"/><path d="M979.162 93.2357 979.162 249.636" stroke="#000000" stroke-width="0.666667" stroke-miterlimit="8" fill="none" fill-rule="evenodd"/><path d="M1193.43 93.2357 1193.43 249.636" stroke="#000000" stroke-width="0.666667" stroke-miterlimit="8" fill="none" fill-rule="evenodd"/><path d="M978.828 93.569 1193.77 93.569" stroke="#000000" stroke-width="0.666667" stroke-miterlimit="8" fill="none" fill-rule="evenodd"/><path d="M978.828 249.302 1193.77 249.302" stroke="#000000" stroke-width="0.666667" stroke-miterlimit="8" fill="none" fill-rule="evenodd"/><g clip-path="url(#clip37)"><text fill="#FFFFFF" font-family="Calibri,Calibri_MSFontService,sans-serif" font-weight="700" font-size="24" transform="translate(988.762 120)">CATEGORIE</text></g><g clip-path="url(#clip38)"><text font-family="Calibri,Calibri_MSFontService,sans-serif" font-weight="700" font-size="24" transform="translate(988.762 159)">NumCategorie</text></g><path d="M988.762 162.302 1036.43 162.302 1084.1 162.302 1131.76 162.302 1131.76 164.302 1084.1 164.302 1036.43 164.302 988.762 164.302Z" fill-rule="evenodd"/><g clip-path="url(#clip39)"><text font-family="Calibri,Calibri_MSFontService,sans-serif" font-weight="400" font-size="24" transform="translate(988.762 198)">NomCategorie</text></g><g clip-path="url(#clip40)"><text font-family="Calibri,Calibri_MSFontService,sans-serif" font-weight="400" font-size="24" transform="translate(988.762 237)">TarifKm</text></g><path d="M689.711 95.8277 873.469 95.8277 873.469 134.761 689.711 134.761Z" fill-rule="evenodd"/><path d="M689.378 134.761 873.803 134.761" stroke="#000000" stroke-width="0.666667" stroke-miterlimit="8" fill="none" fill-rule="evenodd"/><path d="M689.378 173.694 873.803 173.694" stroke="#000000" stroke-width="0.666667" stroke-miterlimit="8" fill="none" fill-rule="evenodd"/><path d="M689.378 212.628 873.803 212.628" stroke="#000000" stroke-width="0.666667" stroke-miterlimit="8" fill="none" fill-rule="evenodd"/><path d="M689.378 251.561 873.803 251.561" stroke="#000000" stroke-width="0.666667" stroke-miterlimit="8" fill="none" fill-rule="evenodd"/><path d="M689.378 290.494 873.803 290.494" stroke="#000000" stroke-width="0.666667" stroke-miterlimit="8" fill="none" fill-rule="evenodd"/><path d="M689.711 95.4944 689.711 329.761" stroke="#000000" stroke-width="0.666667" stroke-miterlimit="8" fill="none" fill-rule="evenodd"/><path d="M873.469 95.4944 873.469 329.761" stroke="#000000" stroke-width="0.666667" stroke-miterlimit="8" fill="none" fill-rule="evenodd"/><path d="M689.378 95.8277 873.803 95.8277" stroke="#000000" stroke-width="0.666667" stroke-miterlimit="8" fill="none" fill-rule="evenodd"/><path d="M689.378 329.428 873.803 329.428" stroke="#000000" stroke-width="0.666667" stroke-miterlimit="8" fill="none" fill-rule="evenodd"/><g clip-path="url(#clip41)"><text fill="#FFFFFF" font-family="Calibri,Calibri_MSFontService,sans-serif" font-weight="700" font-size="24" transform="translate(699.311 123)">CONTENTIEUX</text></g><g clip-path="url(#clip42)"><text font-family="Calibri,Calibri_MSFontService,sans-serif" font-weight="700" font-size="24" transform="translate(699.311 162)">NumDossier</text></g><path d="M699.311 164.561 739.978 164.561 780.644 164.561 821.311 164.561 821.311 166.561 780.644 166.561 739.978 166.561 699.311 166.561Z" fill-rule="evenodd"/><g clip-path="url(#clip43)"><text font-family="Calibri,Calibri_MSFontService,sans-serif" font-weight="700" font-size="24" transform="translate(699.311 200)">NumContrat</text></g><path d="M699.311 203.494 740.311 203.494 781.311 203.494 822.311 203.494 822.311 205.494 781.311 205.494 740.311 205.494 699.311 205.494Z" fill-rule="evenodd"/><g clip-path="url(#clip44)"><text font-family="Calibri,Calibri_MSFontService,sans-serif" font-weight="700" font-size="24" transform="translate(699.311 239)">NumAgence</text></g><path d="M699.311 242.428 739.644 242.428 779.978 242.428 820.311 242.428 820.311 244.428 779.978 244.428 739.644 244.428 699.311 244.428Z" fill-rule="evenodd"/><g clip-path="url(#clip45)"><text font-family="Calibri,Calibri_MSFontService,sans-serif" font-weight="400" font-size="24" transform="translate(699.311 278)">DateOuverture</text></g><g clip-path="url(#clip46)"><text font-family="Calibri,Calibri_MSFontService,sans-serif" font-weight="400" font-size="24" transform="translate(699.311 317)">DateCloture</text></g><path d="M688.481 193.658 634.991 193.658 634.991 156.5 636.491 158 592 158 592 155 637.991 155 637.991 192.158 636.491 190.658 688.481 190.658ZM593.5 161 584.5 156.5 593.5 152Z"/><path d="M690.958 234.086 638.229 234.086 638.229 201.5 639.729 203 596 203 596 200 641.229 200 641.229 232.586 639.729 231.086 690.958 231.086ZM597.5 206 588.5 201.5 597.5 197Z"/></g></svg>