<svg width="1280" height="720" xmlns="http://www.w3.org/2000/svg" xmlns:xlink="http://www.w3.org/1999/xlink" overflow="hidden"><defs><clipPath id="clip0"><rect x="0" y="0" width="1280" height="720"/></clipPath><clipPath id="clip1"><rect x="66" y="176" width="176" height="202"/></clipPath><clipPath id="clip2"><rect x="66" y="215" width="176" height="202"/></clipPath><clipPath id="clip3"><rect x="66" y="254" width="176" height="202"/></clipPath><clipPath id="clip4"><rect x="66" y="206" width="176" height="404"/></clipPath><clipPath id="clip5"><rect x="66" y="206" width="176" height="404"/></clipPath><clipPath id="clip6"><rect x="66" y="360" width="176" height="202"/></clipPath><clipPath id="clip7"><rect x="66" y="399" width="176" height="202"/></clipPath><clipPath id="clip8"><rect x="66" y="438" width="176" height="202"/></clipPath><clipPath id="clip9"><rect x="66" y="477" width="176" height="202"/></clipPath><clipPath id="clip10"><rect x="66" y="516" width="176" height="202"/></clipPath><clipPath id="clip11"><rect x="66" y="554" width="176" height="203"/></clipPath><clipPath id="clip12"><rect x="271" y="430" width="176" height="203"/></clipPath><clipPath id="clip13"><rect x="271" y="469" width="176" height="203"/></clipPath><clipPath id="clip14"><rect x="271" y="508" width="176" height="203"/></clipPath></defs><g clip-path="url(#clip0)"><rect x="0" y="0" width="1280" height="720" fill="#FFFFFF"/><path d="M230 619.5C230 614.253 234.253 610 239.5 610 244.747 610 249 614.253 249 619.5 249 624.747 244.747 629 239.5 629 234.253 629 230 624.747 230 619.5Z" fill="#FFFFFF" fill-rule="evenodd"/><path d="M231 318.5C231 313.253 235.253 309 240.5 309 245.747 309 250 313.253 250 318.5 250 323.747 245.747 328 240.5 328 235.253 328 231 323.747 231 318.5Z" fill="#FFFFFF" fill-rule="evenodd"/><path d="M231 309C231 304.029 235.253 300 240.5 300 245.747 300 250 304.029 250 309 250 313.971 245.747 318 240.5 318 235.253 318 231 313.971 231 309Z" fill="#FFFFFF" fill-rule="evenodd"/><path d="M53 575.5C53 570.253 57.2533 566 62.5 566 67.7467 566 72 570.253 72 575.5 72 580.747 67.7467 585 62.5 585 57.2533 585 53 580.747 53 575.5Z" fill="#FFFFFF" fill-rule="evenodd"/><path d="M66.7218 257.917 241.267 257.917 241.267 296.85 66.7218 296.85Z" fill="#4472C4" fill-rule="evenodd"/><path d="M66.3885 296.85 241.601 296.85" stroke="#4472C4" stroke-width="0.666667" stroke-miterlimit="8" fill="none" fill-rule="evenodd"/><path d="M66.3885 335.784 241.601 335.784" stroke="#4472C4" stroke-width="0.666667" stroke-miterlimit="8" fill="none" fill-rule="evenodd"/><path d="M66.3885 374.717 241.601 374.717" stroke="#4472C4" stroke-width="0.666667" stroke-miterlimit="8" fill="none" fill-rule="evenodd"/><path d="M66.3885 441.917 241.601 441.917" stroke="#4472C4" stroke-width="0.666667" stroke-miterlimit="8" fill="none" fill-rule="evenodd"/><path d="M66.3885 480.85 241.601 480.85" stroke="#4472C4" stroke-width="0.666667" stroke-miterlimit="8" fill="none" fill-rule="evenodd"/><path d="M66.3885 519.784 241.601 519.784" stroke="#4472C4" stroke-width="0.666667" stroke-miterlimit="8" fill="none" fill-rule="evenodd"/><path d="M66.3885 558.717 241.601 558.717" stroke="#4472C4" stroke-width="0.666667" stroke-miterlimit="8" fill="none" fill-rule="evenodd"/><path d="M66.3885 597.65 241.601 597.65" stroke="#4472C4" stroke-width="0.666667" stroke-miterlimit="8" fill="none" fill-rule="evenodd"/><path d="M66.3885 636.583 241.601 636.583" stroke="#4472C4" stroke-width="0.666667" stroke-miterlimit="8" fill="none" fill-rule="evenodd"/><path d="M66.7218 257.583 66.7218 675.85" stroke="#4472C4" stroke-width="0.666667" stroke-miterlimit="8" fill="none" fill-rule="evenodd"/><path d="M241.267 257.583 241.267 675.85" stroke="#4472C4" stroke-width="0.666667" stroke-miterlimit="8" fill="none" fill-rule="evenodd"/><path d="M66.3885 257.917 241.601 257.917" stroke="#4472C4" stroke-width="0.666667" stroke-miterlimit="8" fill="none" fill-rule="evenodd"/><path d="M66.3885 675.517 241.601 675.517" stroke="#4472C4" stroke-width="0.666667" stroke-miterlimit="8" fill="none" fill-rule="evenodd"/><g clip-path="url(#clip1)"><text fill="#FFFFFF" font-family="Calibri,Calibri_MSFontService,sans-serif" font-weight="700" font-size="24" transform="translate(76.3218 285)">FORMATEUR</text></g><g clip-path="url(#clip2)"><text font-family="Calibri,Calibri_MSFontService,sans-serif" font-weight="700" font-size="24" transform="translate(76.3218 324)">NumFormateur</text></g><path d="M76.3218 326.65 114.572 326.65 152.822 326.65 191.072 326.65 229.322 326.65 229.322 328.65 191.072 328.65 152.822 328.65 114.572 328.65 76.3218 328.65Z" fill-rule="evenodd"/><g clip-path="url(#clip3)"><text font-family="Calibri,Calibri_MSFontService,sans-serif" font-weight="400" font-size="24" transform="translate(76.3218 363)">NomFormateur</text></g><g clip-path="url(#clip4)"><text font-family="Calibri,Calibri_MSFontService,sans-serif" font-weight="400" font-size="24" transform="translate(76.3218 402)">PrénomFormat</text></g><g clip-path="url(#clip5)"><text font-family="Calibri,Calibri_MSFontService,sans-serif" font-weight="400" font-size="24" transform="translate(76.3218 431)">eur</text></g><g clip-path="url(#clip6)"><text font-family="Calibri,Calibri_MSFontService,sans-serif" font-weight="400" font-size="24" transform="translate(76.3218 469)">AdresseRue</text></g><g clip-path="url(#clip7)"><text font-family="Calibri,Calibri_MSFontService,sans-serif" font-weight="400" font-size="24" transform="translate(76.3218 508)">AdresseCP</text></g><g clip-path="url(#clip8)"><text font-family="Calibri,Calibri_MSFontService,sans-serif" font-weight="400" font-size="24" transform="translate(76.3218 547)">AdresseVille</text></g><g clip-path="url(#clip9)"><text font-family="Calibri,Calibri_MSFontService,sans-serif" font-weight="400" font-size="24" transform="translate(76.3218 586)">TelFormateur</text></g><g clip-path="url(#clip10)"><text font-family="Calibri,Calibri_MSFontService,sans-serif" font-weight="400" font-size="24" transform="translate(76.3218 624)">MailFormateur</text></g><g clip-path="url(#clip11)"><text font-family="Calibri,Calibri_MSFontService,sans-serif" font-weight="400" font-size="24" transform="translate(76.3218 663)">Spécialité</text></g><path d="M428 566.5C428 561.253 432.253 557 437.5 557 442.747 557 447 561.253 447 566.5 447 571.747 442.747 576 437.5 576 432.253 576 428 571.747 428 566.5Z" fill="#FFFFFF" fill-rule="evenodd"/><path d="M260 566.5C260 561.253 264.253 557 269.5 557 274.747 557 279 561.253 279 566.5 279 571.747 274.747 576 269.5 576 264.253 576 260 571.747 260 566.5Z" fill="#FFFFFF" fill-rule="evenodd"/><path d="M440 646.5C440 641.253 444.253 637 449.5 637 454.747 637 459 641.253 459 646.5 459 651.747 454.747 656 449.5 656 444.253 656 440 651.747 440 646.5Z" fill="#FFFFFF" fill-rule="evenodd"/><path d="M271.964 512.375 446.509 512.375 446.509 551.308 271.964 551.308Z" fill="#4472C4" fill-rule="evenodd"/><path d="M271.631 551.308 446.843 551.308" stroke="#4472C4" stroke-width="0.666667" stroke-miterlimit="8" fill="none" fill-rule="evenodd"/><path d="M271.631 590.241 446.843 590.241" stroke="#4472C4" stroke-width="0.666667" stroke-miterlimit="8" fill="none" fill-rule="evenodd"/><path d="M271.964 512.041 271.964 629.508" stroke="#4472C4" stroke-width="0.666667" stroke-miterlimit="8" fill="none" fill-rule="evenodd"/><path d="M446.509 512.041 446.509 629.508" stroke="#4472C4" stroke-width="0.666667" stroke-miterlimit="8" fill="none" fill-rule="evenodd"/><path d="M271.631 512.375 446.843 512.375" stroke="#4472C4" stroke-width="0.666667" stroke-miterlimit="8" fill="none" fill-rule="evenodd"/><path d="M271.631 629.175 446.843 629.175" stroke="#4472C4" stroke-width="0.666667" stroke-miterlimit="8" fill="none" fill-rule="evenodd"/><g clip-path="url(#clip12)"><text fill="#FFFFFF" font-family="Calibri,Calibri_MSFontService,sans-serif" font-weight="700" font-size="24" transform="translate(281.564 539)">SPORT</text></g><g clip-path="url(#clip13)"><text font-family="Calibri,Calibri_MSFontService,sans-serif" font-weight="700" font-size="24" transform="translate(281.564 578)">CodeSport</text></g><path d="M281.564 581.108 316.231 581.108 350.897 581.108 385.564 581.108 385.564 583.108 350.897 583.108 316.231 583.108 281.564 583.108Z" fill-rule="evenodd"/><g clip-path="url(#clip14)"><text font-family="Calibri,Calibri_MSFontService,sans-serif" font-weight="400" font-size="24" transform="translate(281.564 617)">LibelleSport</text></g><path d="M0-1.5 16.8483-1.5 16.8483 83.3289 15.3483 81.8289 23.1967 81.8289 23.1967 84.8289 13.8483 84.8289 13.8483 0 15.3483 1.5 0 1.5ZM21.6967 78.8289 30.6967 83.3289 21.6967 87.8289Z" fill="#4472C4" transform="matrix(1 0 0 -1 241.5 654.829)"/><text font-family="Calibri Light,Calibri Light_MSFontService,sans-serif" font-weight="300" font-size="59" transform="translate(463.8 49)">2011 Annexe A</text></g></svg>