<svg width="1280" height="720" xmlns="http://www.w3.org/2000/svg" xmlns:xlink="http://www.w3.org/1999/xlink" overflow="hidden"><defs><clipPath id="clip0"><rect x="0" y="0" width="1280" height="720"/></clipPath><clipPath id="clip1"><rect x="62" y="29" width="176" height="203"/></clipPath><clipPath id="clip2"><rect x="62" y="68" width="176" height="203"/></clipPath><clipPath id="clip3"><rect x="62" y="107" width="176" height="203"/></clipPath><clipPath id="clip4"><rect x="300" y="317" width="175" height="202"/></clipPath><clipPath id="clip5"><rect x="300" y="356" width="175" height="202"/></clipPath><clipPath id="clip6"><rect x="300" y="395" width="175" height="202"/></clipPath><clipPath id="clip7"><rect x="300" y="434" width="175" height="202"/></clipPath><clipPath id="clip8"><rect x="66" y="214" width="176" height="203"/></clipPath><clipPath id="clip9"><rect x="66" y="253" width="176" height="203"/></clipPath><clipPath id="clip10"><rect x="66" y="292" width="176" height="203"/></clipPath><clipPath id="clip11"><rect x="66" y="245" width="176" height="404"/></clipPath><clipPath id="clip12"><rect x="66" y="245" width="176" height="404"/></clipPath><clipPath id="clip13"><rect x="66" y="398" width="176" height="203"/></clipPath><clipPath id="clip14"><rect x="66" y="437" width="176" height="203"/></clipPath><clipPath id="clip15"><rect x="66" y="476" width="176" height="203"/></clipPath><clipPath id="clip16"><rect x="66" y="515" width="176" height="203"/></clipPath><clipPath id="clip17"><rect x="66" y="554" width="176" height="203"/></clipPath><clipPath id="clip18"><rect x="756" y="35" width="274" height="203"/></clipPath><clipPath id="clip19"><rect x="756" y="74" width="274" height="203"/></clipPath><clipPath id="clip20"><rect x="756" y="113" width="274" height="203"/></clipPath><clipPath id="clip21"><rect x="756" y="152" width="274" height="203"/></clipPath><clipPath id="clip22"><rect x="756" y="191" width="274" height="203"/></clipPath><clipPath id="clip23"><rect x="756" y="230" width="274" height="202"/></clipPath><clipPath id="clip24"><rect x="1060" y="30" width="176" height="203"/></clipPath><clipPath id="clip25"><rect x="1060" y="69" width="176" height="203"/></clipPath><clipPath id="clip26"><rect x="1060" y="108" width="176" height="203"/></clipPath><clipPath id="clip27"><rect x="528" y="29" width="176" height="203"/></clipPath><clipPath id="clip28"><rect x="528" y="68" width="176" height="203"/></clipPath><clipPath id="clip29"><rect x="528" y="107" width="176" height="203"/></clipPath><clipPath id="clip30"><rect x="528" y="146" width="176" height="203"/></clipPath><clipPath id="clip31"><rect x="528" y="185" width="176" height="203"/></clipPath><clipPath id="clip32"><rect x="528" y="224" width="176" height="203"/></clipPath><clipPath id="clip33"><rect x="528" y="263" width="176" height="203"/></clipPath><clipPath id="clip34"><rect x="528" y="302" width="176" height="203"/></clipPath><clipPath id="clip35"><rect x="761" y="380" width="273" height="203"/></clipPath><clipPath id="clip36"><rect x="761" y="419" width="273" height="203"/></clipPath><clipPath id="clip37"><rect x="761" y="458" width="273" height="203"/></clipPath><clipPath id="clip38"><rect x="301" y="26" width="176" height="203"/></clipPath><clipPath id="clip39"><rect x="301" y="65" width="176" height="203"/></clipPath><clipPath id="clip40"><rect x="301" y="104" width="176" height="203"/></clipPath><clipPath id="clip41"><rect x="301" y="143" width="176" height="203"/></clipPath><clipPath id="clip42"><rect x="301" y="182" width="176" height="203"/></clipPath></defs><g clip-path="url(#clip0)"><rect x="0" y="0" width="1280" height="720" fill="#FFFFFF"/><path d="M1217 166.5C1217 161.253 1221.25 157 1226.5 157 1231.75 157 1236 161.253 1236 166.5 1236 171.747 1231.75 176 1226.5 176 1221.25 176 1217 171.747 1217 166.5Z" fill="#FFFFFF" fill-rule="evenodd"/><path d="M230 658.5C230 653.253 234.253 649 239.5 649 244.747 649 249 653.253 249 658.5 249 663.747 244.747 668 239.5 668 234.253 668 230 663.747 230 658.5Z" fill="#FFFFFF" fill-rule="evenodd"/><path d="M1021 520.5C1021 515.253 1025.25 511 1030.5 511 1035.75 511 1040 515.253 1040 520.5 1040 525.747 1035.75 530 1030.5 530 1025.25 530 1021 525.747 1021 520.5Z" fill="#FFFFFF" fill-rule="evenodd"/><path d="M1021 511.5C1021 506.253 1025.25 502 1030.5 502 1035.75 502 1040 506.253 1040 511.5 1040 516.747 1035.75 521 1030.5 521 1025.25 521 1021 516.747 1021 511.5Z" fill="#FFFFFF" fill-rule="evenodd"/><path d="M1021 526.5C1021 521.253 1025.25 517 1030.5 517 1035.75 517 1040 521.253 1040 526.5 1040 531.747 1035.75 536 1030.5 536 1025.25 536 1021 531.747 1021 526.5Z" fill="#FFFFFF" fill-rule="evenodd"/><path d="M231 357.5C231 352.253 235.253 348 240.5 348 245.747 348 250 352.253 250 357.5 250 362.747 245.747 367 240.5 367 235.253 367 231 362.747 231 357.5Z" fill="#FFFFFF" fill-rule="evenodd"/><path d="M231 347.5C231 342.253 235.253 338 240.5 338 245.747 338 250 342.253 250 347.5 250 352.747 245.747 357 240.5 357 235.253 357 231 352.747 231 347.5Z" fill="#FFFFFF" fill-rule="evenodd"/><path d="M466 495.5C466 490.253 470.253 486 475.5 486 480.747 486 485 490.253 485 495.5 485 500.747 480.747 505 475.5 505 470.253 505 466 500.747 466 495.5Z" fill="#FFFFFF" fill-rule="evenodd"/><path d="M756 517.5C756 512.253 760.253 508 765.5 508 770.747 508 775 512.253 775 517.5 775 522.747 770.747 527 765.5 527 760.253 527 756 522.747 756 517.5Z" fill="#FFFFFF" fill-rule="evenodd"/><path d="M1015 292.5C1015 287.253 1019.25 283 1024.5 283 1029.75 283 1034 287.253 1034 292.5 1034 297.747 1029.75 302 1024.5 302 1019.25 302 1015 297.747 1015 292.5Z" fill="#FFFFFF" fill-rule="evenodd"/><path d="M1015 330.5C1015 325.253 1019.25 321 1024.5 321 1029.75 321 1034 325.253 1034 330.5 1034 335.747 1029.75 340 1024.5 340 1019.25 340 1015 335.747 1015 330.5Z" fill="#FFFFFF" fill-rule="evenodd"/><path d="M460 165.5C460 160.253 464.253 156 469.5 156 474.747 156 479 160.253 479 165.5 479 170.747 474.747 175 469.5 175 464.253 175 460 170.747 460 165.5Z" fill="#FFFFFF" fill-rule="evenodd"/><path d="M460 203.5C460 198.253 464.253 194 469.5 194 474.747 194 479 198.253 479 203.5 479 208.747 474.747 213 469.5 213 464.253 213 460 208.747 460 203.5Z" fill="#FFFFFF" fill-rule="evenodd"/><path d="M0-1.5 25.0475-1.5 25.0475 0.328504 23.5475-1.1715 39.5949-1.1715 39.5949 1.8285 22.0475 1.8285 22.0475 0 23.5475 1.5 0 1.5ZM38.0949-4.1715 47.0949 0.328504 38.0949 4.8285Z" fill="#4472C4" transform="matrix(1 0 0 -1 479.5 166.829)"/><path d="M526 165.5C526 160.253 530.253 156 535.5 156 540.747 156 545 160.253 545 165.5 545 170.747 540.747 175 535.5 175 530.253 175 526 170.747 526 165.5Z" fill="#FFFFFF" fill-rule="evenodd"/><path d="M526 203.5C526 198.253 530.253 194 535.5 194 540.747 194 545 198.253 545 203.5 545 208.747 540.747 213 535.5 213 530.253 213 526 208.747 526 203.5Z" fill="#FFFFFF" fill-rule="evenodd"/><path d="M0-1.5 25.0475-1.5 25.0475 0.328504 23.5475-1.1715 39.5949-1.1715 39.5949 1.8285 22.0475 1.8285 22.0475 0 23.5475 1.5 0 1.5ZM38.0949-4.1715 47.0949 0.328504 38.0949 4.8285Z" fill="#4472C4" transform="matrix(1 0 0 -1 479.5 203.829)"/><path d="M1011 254.5C1011 249.253 1015.25 245 1020.5 245 1025.75 245 1030 249.253 1030 254.5 1030 259.747 1025.75 264 1020.5 264 1015.25 264 1011 259.747 1011 254.5Z" fill="#FFFFFF" fill-rule="evenodd"/><path d="M51 170.5C51 165.253 55.2533 161 60.5 161 65.7467 161 70 165.253 70 170.5 70 175.747 65.7467 180 60.5 180 55.2533 180 51 175.747 51 170.5Z" fill="#FFFFFF" fill-rule="evenodd"/><path d="M53 613.5C53 608.253 57.2533 604 62.5 604 67.7467 604 72 608.253 72 613.5 72 618.747 67.7467 623 62.5 623 57.2533 623 53 618.747 53 613.5Z" fill="#FFFFFF" fill-rule="evenodd"/><path d="M292 243.5C292 238.253 296.253 234 301.5 234 306.747 234 311 238.253 311 243.5 311 248.747 306.747 253 301.5 253 296.253 253 292 248.747 292 243.5Z" fill="#FFFFFF" fill-rule="evenodd"/><path d="M296 454.5C296 449.253 300.253 445 305.5 445 310.747 445 315 449.253 315 454.5 315 459.747 310.747 464 305.5 464 300.253 464 296 459.747 296 454.5Z" fill="#FFFFFF" fill-rule="evenodd"/><path d="M355 168.5C355 163.253 359.253 159 364.5 159 369.747 159 374 163.253 374 168.5 374 173.747 369.747 178 364.5 178 359.253 178 355 173.747 355 168.5Z" fill="#FFFFFF" fill-rule="evenodd"/><path d="M685 205.5C685 200.253 689.253 196 694.5 196 699.747 196 704 200.253 704 205.5 704 210.747 699.747 215 694.5 215 689.253 215 685 210.747 685 205.5Z" fill="#FFFFFF" fill-rule="evenodd"/><path d="M753 178.5C753 173.253 757.253 169 762.5 169 767.747 169 772 173.253 772 178.5 772 183.747 767.747 188 762.5 188 757.253 188 753 183.747 753 178.5Z" fill="#FFFFFF" fill-rule="evenodd"/><path d="M1049 166.5C1049 161.253 1053.25 157 1058.5 157 1063.75 157 1068 161.253 1068 166.5 1068 171.747 1063.75 176 1058.5 176 1053.25 176 1049 171.747 1049 166.5Z" fill="#FFFFFF" fill-rule="evenodd"/><path d="M1229 246.5C1229 241.253 1233.25 237 1238.5 237 1243.75 237 1248 241.253 1248 246.5 1248 251.747 1243.75 256 1238.5 256 1233.25 256 1229 251.747 1229 246.5Z" fill="#FFFFFF" fill-rule="evenodd"/><path d="M62.5454 111.353 237.091 111.353 237.091 150.286 62.5454 150.286Z" fill="#4472C4" fill-rule="evenodd"/><path d="M62.2121 150.286 237.424 150.286" stroke="#4472C4" stroke-width="0.666667" stroke-miterlimit="8" fill="none" fill-rule="evenodd"/><path d="M62.2121 189.22 237.424 189.22" stroke="#4472C4" stroke-width="0.666667" stroke-miterlimit="8" fill="none" fill-rule="evenodd"/><path d="M62.5454 111.02 62.5454 228.486" stroke="#4472C4" stroke-width="0.666667" stroke-miterlimit="8" fill="none" fill-rule="evenodd"/><path d="M237.091 111.02 237.091 228.486" stroke="#4472C4" stroke-width="0.666667" stroke-miterlimit="8" fill="none" fill-rule="evenodd"/><path d="M62.2121 111.353 237.424 111.353" stroke="#4472C4" stroke-width="0.666667" stroke-miterlimit="8" fill="none" fill-rule="evenodd"/><path d="M62.2121 228.153 237.424 228.153" stroke="#4472C4" stroke-width="0.666667" stroke-miterlimit="8" fill="none" fill-rule="evenodd"/><g clip-path="url(#clip1)"><text fill="#FFFFFF" font-family="Calibri,Calibri_MSFontService,sans-serif" font-weight="700" font-size="24" transform="translate(72.1454 138)">ASSOCIATION</text></g><g clip-path="url(#clip2)"><text font-family="Calibri,Calibri_MSFontService,sans-serif" font-weight="700" font-size="24" transform="translate(72.1454 177)">CodeAssoc</text></g><path d="M72.1454 180.086 107.812 180.086 143.479 180.086 179.145 180.086 179.145 182.086 143.479 182.086 107.812 182.086 72.1454 182.086Z" fill-rule="evenodd"/><g clip-path="url(#clip3)"><text font-family="Calibri,Calibri_MSFontService,sans-serif" font-weight="400" font-size="24" transform="translate(72.1454 216)">NomAssoc</text></g><path d="M300.33 398.926 474.876 398.926 474.876 437.859 300.33 437.859Z" fill="#4472C4" fill-rule="evenodd"/><path d="M299.997 437.859 475.209 437.859" stroke="#4472C4" stroke-width="0.666667" stroke-miterlimit="8" fill="none" fill-rule="evenodd"/><path d="M299.997 476.792 475.209 476.792" stroke="#4472C4" stroke-width="0.666667" stroke-miterlimit="8" fill="none" fill-rule="evenodd"/><path d="M299.997 515.726 475.209 515.726" stroke="#4472C4" stroke-width="0.666667" stroke-miterlimit="8" fill="none" fill-rule="evenodd"/><path d="M300.33 398.592 300.33 554.992" stroke="#4472C4" stroke-width="0.666667" stroke-miterlimit="8" fill="none" fill-rule="evenodd"/><path d="M474.876 398.592 474.876 554.992" stroke="#4472C4" stroke-width="0.666667" stroke-miterlimit="8" fill="none" fill-rule="evenodd"/><path d="M299.997 398.926 475.209 398.926" stroke="#4472C4" stroke-width="0.666667" stroke-miterlimit="8" fill="none" fill-rule="evenodd"/><path d="M299.997 554.659 475.209 554.659" stroke="#4472C4" stroke-width="0.666667" stroke-miterlimit="8" fill="none" fill-rule="evenodd"/><g clip-path="url(#clip4)"><text fill="#FFFFFF" font-family="Calibri,Calibri_MSFontService,sans-serif" font-weight="700" font-size="24" transform="translate(309.93 426)">OBTENTION</text></g><g clip-path="url(#clip5)"><text font-family="Calibri,Calibri_MSFontService,sans-serif" font-weight="700" font-size="24" transform="translate(309.93 465)">CodeFormateur</text></g><path d="M309.93 467.659 348.68 467.659 387.43 467.659 426.18 467.659 464.93 467.659 464.93 469.659 426.18 469.659 387.43 469.659 348.68 469.659 309.93 469.659Z" fill-rule="evenodd"/><g clip-path="url(#clip6)"><text font-family="Calibri,Calibri_MSFontService,sans-serif" font-weight="400" font-size="24" transform="translate(309.93 504)">CodeDiplome</text></g><g clip-path="url(#clip7)"><text font-family="Calibri,Calibri_MSFontService,sans-serif" font-weight="400" font-size="24" transform="translate(309.93 543)">DateObtention</text></g><path d="M66.7218 296.317 241.267 296.317 241.267 335.25 66.7218 335.25Z" fill="#4472C4" fill-rule="evenodd"/><path d="M66.3885 335.25 241.601 335.25" stroke="#4472C4" stroke-width="0.666667" stroke-miterlimit="8" fill="none" fill-rule="evenodd"/><path d="M66.3885 374.184 241.601 374.184" stroke="#4472C4" stroke-width="0.666667" stroke-miterlimit="8" fill="none" fill-rule="evenodd"/><path d="M66.3885 413.117 241.601 413.117" stroke="#4472C4" stroke-width="0.666667" stroke-miterlimit="8" fill="none" fill-rule="evenodd"/><path d="M66.3885 480.317 241.601 480.317" stroke="#4472C4" stroke-width="0.666667" stroke-miterlimit="8" fill="none" fill-rule="evenodd"/><path d="M66.3885 519.25 241.601 519.25" stroke="#4472C4" stroke-width="0.666667" stroke-miterlimit="8" fill="none" fill-rule="evenodd"/><path d="M66.3885 558.184 241.601 558.184" stroke="#4472C4" stroke-width="0.666667" stroke-miterlimit="8" fill="none" fill-rule="evenodd"/><path d="M66.3885 597.117 241.601 597.117" stroke="#4472C4" stroke-width="0.666667" stroke-miterlimit="8" fill="none" fill-rule="evenodd"/><path d="M66.3885 636.05 241.601 636.05" stroke="#4472C4" stroke-width="0.666667" stroke-miterlimit="8" fill="none" fill-rule="evenodd"/><path d="M66.7218 295.984 66.7218 675.317" stroke="#4472C4" stroke-width="0.666667" stroke-miterlimit="8" fill="none" fill-rule="evenodd"/><path d="M241.267 295.984 241.267 675.317" stroke="#4472C4" stroke-width="0.666667" stroke-miterlimit="8" fill="none" fill-rule="evenodd"/><path d="M66.3885 296.317 241.601 296.317" stroke="#4472C4" stroke-width="0.666667" stroke-miterlimit="8" fill="none" fill-rule="evenodd"/><path d="M66.3885 674.984 241.601 674.984" stroke="#4472C4" stroke-width="0.666667" stroke-miterlimit="8" fill="none" fill-rule="evenodd"/><g clip-path="url(#clip8)"><text fill="#FFFFFF" font-family="Calibri,Calibri_MSFontService,sans-serif" font-weight="700" font-size="24" transform="translate(76.3218 323)">FORMATEUR</text></g><g clip-path="url(#clip9)"><text font-family="Calibri,Calibri_MSFontService,sans-serif" font-weight="700" font-size="24" transform="translate(76.3218 362)">NumFormateur</text></g><path d="M76.3218 365.05 114.572 365.05 152.822 365.05 191.072 365.05 229.322 365.05 229.322 367.05 191.072 367.05 152.822 367.05 114.572 367.05 76.3218 367.05Z" fill-rule="evenodd"/><g clip-path="url(#clip10)"><text font-family="Calibri,Calibri_MSFontService,sans-serif" font-weight="400" font-size="24" transform="translate(76.3218 401)">NomFormateur</text></g><g clip-path="url(#clip11)"><text font-family="Calibri,Calibri_MSFontService,sans-serif" font-weight="400" font-size="24" transform="translate(76.3218 440)">PrénomFormat</text></g><g clip-path="url(#clip12)"><text font-family="Calibri,Calibri_MSFontService,sans-serif" font-weight="400" font-size="24" transform="translate(76.3218 469)">eur</text></g><g clip-path="url(#clip13)"><text font-family="Calibri,Calibri_MSFontService,sans-serif" font-weight="400" font-size="24" transform="translate(76.3218 507)">AdresseRue</text></g><g clip-path="url(#clip14)"><text font-family="Calibri,Calibri_MSFontService,sans-serif" font-weight="400" font-size="24" transform="translate(76.3218 546)">AdresseCP</text></g><g clip-path="url(#clip15)"><text font-family="Calibri,Calibri_MSFontService,sans-serif" font-weight="400" font-size="24" transform="translate(76.3218 585)">AdresseVille</text></g><g clip-path="url(#clip16)"><text font-family="Calibri,Calibri_MSFontService,sans-serif" font-weight="400" font-size="24" transform="translate(76.3218 624)">CodeAssoc</text></g><g clip-path="url(#clip17)"><text font-family="Calibri,Calibri_MSFontService,sans-serif" font-weight="400" font-size="24" transform="translate(76.3218 663)">CodeSport</text></g><path d="M756.285 117.293 1029.29 117.293 1029.29 156.227 756.285 156.227Z" fill="#4472C4" fill-rule="evenodd"/><path d="M755.952 156.227 1029.62 156.227" stroke="#4472C4" stroke-width="0.666667" stroke-miterlimit="8" fill="none" fill-rule="evenodd"/><path d="M755.952 195.16 1029.62 195.16" stroke="#4472C4" stroke-width="0.666667" stroke-miterlimit="8" fill="none" fill-rule="evenodd"/><path d="M755.952 234.093 1029.62 234.093" stroke="#4472C4" stroke-width="0.666667" stroke-miterlimit="8" fill="none" fill-rule="evenodd"/><path d="M755.952 273.027 1029.62 273.027" stroke="#4472C4" stroke-width="0.666667" stroke-miterlimit="8" fill="none" fill-rule="evenodd"/><path d="M755.952 311.96 1029.62 311.96" stroke="#4472C4" stroke-width="0.666667" stroke-miterlimit="8" fill="none" fill-rule="evenodd"/><path d="M756.285 116.96 756.285 351.227" stroke="#4472C4" stroke-width="0.666667" stroke-miterlimit="8" fill="none" fill-rule="evenodd"/><path d="M1029.29 116.96 1029.29 351.227" stroke="#4472C4" stroke-width="0.666667" stroke-miterlimit="8" fill="none" fill-rule="evenodd"/><path d="M755.952 117.293 1029.62 117.293" stroke="#4472C4" stroke-width="0.666667" stroke-miterlimit="8" fill="none" fill-rule="evenodd"/><path d="M755.952 350.893 1029.62 350.893" stroke="#4472C4" stroke-width="0.666667" stroke-miterlimit="8" fill="none" fill-rule="evenodd"/><g clip-path="url(#clip18)"><text fill="#FFFFFF" font-family="Calibri,Calibri_MSFontService,sans-serif" font-weight="700" font-size="24" transform="translate(765.885 144)">FORMATON</text></g><g clip-path="url(#clip19)"><text font-family="Calibri,Calibri_MSFontService,sans-serif" font-weight="700" font-size="24" transform="translate(765.885 183)">CodeFormation</text></g><path d="M765.885 186.027 816.885 186.027 867.885 186.027 918.885 186.027 918.885 188.027 867.885 188.027 816.885 188.027 765.885 188.027Z" fill-rule="evenodd"/><g clip-path="url(#clip20)"><text font-family="Calibri,Calibri_MSFontService,sans-serif" font-weight="400" font-size="24" transform="translate(765.885 222)">LibelleFormation</text></g><g clip-path="url(#clip21)"><text font-family="Calibri,Calibri_MSFontService,sans-serif" font-weight="400" font-size="24" transform="translate(765.885 261)">CodeSport</text></g><g clip-path="url(#clip22)"><text font-family="Calibri,Calibri_MSFontService,sans-serif" font-weight="400" font-size="24" transform="translate(765.885 300)">CodeDiplomeDélivré</text></g><g clip-path="url(#clip23)"><text font-family="Calibri,Calibri_MSFontService,sans-serif" font-weight="400" font-size="24" transform="translate(765.885 339)">CodeDiplomeNécessaire</text></g><path d="M1060.95 112.432 1235.49 112.432 1235.49 151.366 1060.95 151.366Z" fill="#4472C4" fill-rule="evenodd"/><path d="M1060.61 151.366 1235.82 151.366" stroke="#4472C4" stroke-width="0.666667" stroke-miterlimit="8" fill="none" fill-rule="evenodd"/><path d="M1060.61 190.299 1235.82 190.299" stroke="#4472C4" stroke-width="0.666667" stroke-miterlimit="8" fill="none" fill-rule="evenodd"/><path d="M1060.95 112.099 1060.95 229.566" stroke="#4472C4" stroke-width="0.666667" stroke-miterlimit="8" fill="none" fill-rule="evenodd"/><path d="M1235.49 112.099 1235.49 229.566" stroke="#4472C4" stroke-width="0.666667" stroke-miterlimit="8" fill="none" fill-rule="evenodd"/><path d="M1060.61 112.432 1235.82 112.432" stroke="#4472C4" stroke-width="0.666667" stroke-miterlimit="8" fill="none" fill-rule="evenodd"/><path d="M1060.61 229.232 1235.82 229.232" stroke="#4472C4" stroke-width="0.666667" stroke-miterlimit="8" fill="none" fill-rule="evenodd"/><g clip-path="url(#clip24)"><text fill="#FFFFFF" font-family="Calibri,Calibri_MSFontService,sans-serif" font-weight="700" font-size="24" transform="translate(1070.55 139)">SPORT</text></g><g clip-path="url(#clip25)"><text font-family="Calibri,Calibri_MSFontService,sans-serif" font-weight="700" font-size="24" transform="translate(1070.55 178)">CodeSport</text></g><path d="M1070.55 181.166 1105.21 181.166 1139.88 181.166 1174.55 181.166 1174.55 183.166 1139.88 183.166 1105.21 183.166 1070.55 183.166Z" fill-rule="evenodd"/><g clip-path="url(#clip26)"><text font-family="Calibri,Calibri_MSFontService,sans-serif" font-weight="400" font-size="24" transform="translate(1070.55 217)">LibelleSport</text></g><path d="M528.776 111.495 703.321 111.495 703.321 150.428 528.776 150.428Z" fill="#4472C4" fill-rule="evenodd"/><path d="M528.443 150.428 703.655 150.428" stroke="#4472C4" stroke-width="0.666667" stroke-miterlimit="8" fill="none" fill-rule="evenodd"/><path d="M528.443 189.361 703.655 189.361" stroke="#4472C4" stroke-width="0.666667" stroke-miterlimit="8" fill="none" fill-rule="evenodd"/><path d="M528.443 228.295 703.655 228.295" stroke="#4472C4" stroke-width="0.666667" stroke-miterlimit="8" fill="none" fill-rule="evenodd"/><path d="M528.443 267.228 703.655 267.228" stroke="#4472C4" stroke-width="0.666667" stroke-miterlimit="8" fill="none" fill-rule="evenodd"/><path d="M528.443 306.161 703.655 306.161" stroke="#4472C4" stroke-width="0.666667" stroke-miterlimit="8" fill="none" fill-rule="evenodd"/><path d="M528.443 345.095 703.655 345.095" stroke="#4472C4" stroke-width="0.666667" stroke-miterlimit="8" fill="none" fill-rule="evenodd"/><path d="M528.443 384.028 703.655 384.028" stroke="#4472C4" stroke-width="0.666667" stroke-miterlimit="8" fill="none" fill-rule="evenodd"/><path d="M528.776 111.161 528.776 423.295" stroke="#4472C4" stroke-width="0.666667" stroke-miterlimit="8" fill="none" fill-rule="evenodd"/><path d="M703.321 111.161 703.321 423.295" stroke="#4472C4" stroke-width="0.666667" stroke-miterlimit="8" fill="none" fill-rule="evenodd"/><path d="M528.443 111.495 703.655 111.495" stroke="#4472C4" stroke-width="0.666667" stroke-miterlimit="8" fill="none" fill-rule="evenodd"/><path d="M528.443 422.961 703.655 422.961" stroke="#4472C4" stroke-width="0.666667" stroke-miterlimit="8" fill="none" fill-rule="evenodd"/><g clip-path="url(#clip27)"><text fill="#FFFFFF" font-family="Calibri,Calibri_MSFontService,sans-serif" font-weight="700" font-size="24" transform="translate(538.376 138)">SESSION</text></g><g clip-path="url(#clip28)"><text font-family="Calibri,Calibri_MSFontService,sans-serif" font-weight="700" font-size="24" transform="translate(538.376 177)">NumSession</text></g><path d="M538.376 180.228 568.876 180.228 599.376 180.228 629.876 180.228 660.376 180.228 660.376 182.228 629.876 182.228 599.376 182.228 568.876 182.228 538.376 182.228Z" fill-rule="evenodd"/><g clip-path="url(#clip29)"><text font-family="Calibri,Calibri_MSFontService,sans-serif" font-weight="700" font-size="24" transform="translate(538.376 216)">CodeFormation</text></g><path d="M538.376 219.161 576.626 219.161 614.876 219.161 653.126 219.161 691.376 219.161 691.376 221.161 653.126 221.161 614.876 221.161 576.626 221.161 538.376 221.161Z" fill-rule="evenodd"/><g clip-path="url(#clip30)"><text font-family="Calibri,Calibri_MSFontService,sans-serif" font-weight="400" font-size="24" transform="translate(538.376 255)">Coût</text></g><g clip-path="url(#clip31)"><text font-family="Calibri,Calibri_MSFontService,sans-serif" font-weight="400" font-size="24" transform="translate(538.376 294)">DateDebut</text></g><g clip-path="url(#clip32)"><text font-family="Calibri,Calibri_MSFontService,sans-serif" font-weight="400" font-size="24" transform="translate(538.376 333)">DateFin</text></g><g clip-path="url(#clip33)"><text font-family="Calibri,Calibri_MSFontService,sans-serif" font-weight="400" font-size="24" transform="translate(538.376 372)">DateLimiteInsc</text></g><g clip-path="url(#clip34)"><text font-family="Calibri,Calibri_MSFontService,sans-serif" font-weight="400" font-size="24" transform="translate(538.376 411)">Lieu</text></g><path d="M53.2819 616.022 26.0001 616.022 26.0001 170 44.0001 170 44.0001 173 27.5001 173 29.0001 171.5 29.0001 614.522 27.5001 613.022 53.2819 613.022ZM42.5001 167 51.5001 171.5 42.5001 176Z" fill="#4472C4"/><path d="M296.193 455.977 271.847 455.977 271.847 357.5 273.347 359 258 359 258 356 274.847 356 274.847 454.477 273.347 452.977 296.193 452.977ZM259.5 362 250.5 357.5 259.5 353Z" fill="#4472C4"/><path d="M0-1.5 25.7088-1.5 25.7088 26.9529 24.2088 25.4529 40.9176 25.4529 40.9176 28.4529 22.7088 28.4529 22.7088 0 24.2088 1.5 0 1.5ZM39.4176 22.4529 48.4176 26.9529 39.4176 31.4529Z" fill="#4472C4" transform="matrix(1 0 0 -1 704.5 205.453)"/><path d="M0-1.5 16.8483-1.5 16.8483 83.3289 15.3483 81.8289 23.1967 81.8289 23.1967 84.8289 13.8483 84.8289 13.8483 0 15.3483 1.5 0 1.5ZM21.6967 78.8289 30.6967 83.3289 21.6967 87.8289Z" fill="#4472C4" transform="matrix(1 0 0 -1 1030.5 254.829)"/><path d="M0-1.5 22.6925-1.5 22.6925 103.981 21.1925 102.481 34.8849 102.481 34.8849 105.481 19.6925 105.481 19.6925 0 21.1925 1.5 0 1.5ZM33.3849 99.481 42.3849 103.981 33.3849 108.481Z" fill="#4472C4" transform="matrix(-1 1.22465e-16 1.22465e-16 1 292.885 243.5)"/><text font-family="Calibri Light,Calibri Light_MSFontService,sans-serif" font-weight="300" font-size="59" transform="translate(580.667 49)">2011</text><path d="M761.899 462.416 1033.6 462.416 1033.6 501.349 761.899 501.349Z" fill="#4472C4" fill-rule="evenodd"/><path d="M761.565 501.349 1033.93 501.349" stroke="#4472C4" stroke-width="0.666667" stroke-miterlimit="8" fill="none" fill-rule="evenodd"/><path d="M761.565 540.283 1033.93 540.283" stroke="#4472C4" stroke-width="0.666667" stroke-miterlimit="8" fill="none" fill-rule="evenodd"/><path d="M761.899 462.083 761.899 579.549" stroke="#4472C4" stroke-width="0.666667" stroke-miterlimit="8" fill="none" fill-rule="evenodd"/><path d="M1033.6 462.083 1033.6 579.549" stroke="#4472C4" stroke-width="0.666667" stroke-miterlimit="8" fill="none" fill-rule="evenodd"/><path d="M761.565 462.416 1033.93 462.416" stroke="#4472C4" stroke-width="0.666667" stroke-miterlimit="8" fill="none" fill-rule="evenodd"/><path d="M761.565 579.216 1033.93 579.216" stroke="#4472C4" stroke-width="0.666667" stroke-miterlimit="8" fill="none" fill-rule="evenodd"/><g clip-path="url(#clip35)"><text fill="#FFFFFF" font-family="Calibri,Calibri_MSFontService,sans-serif" font-weight="700" font-size="24" transform="translate(771.499 489)">DIPLOME</text></g><g clip-path="url(#clip36)"><text font-family="Calibri,Calibri_MSFontService,sans-serif" font-weight="700" font-size="24" transform="translate(771.499 528)">CodeDiplome</text></g><path d="M771.499 531.149 816.165 531.149 860.832 531.149 905.499 531.149 905.499 533.149 860.832 533.149 816.165 533.149 771.499 533.149Z" fill-rule="evenodd"/><g clip-path="url(#clip37)"><text font-family="Calibri,Calibri_MSFontService,sans-serif" font-weight="400" font-size="24" transform="translate(771.499 567)">LibelléDiplome</text></g><path d="M1034.5 291 1100.97 291 1100.97 527.988 1047.77 527.988 1047.77 524.988 1099.47 524.988 1097.97 526.488 1097.97 292.5 1099.47 294 1034.5 294ZM1049.27 530.988 1040.27 526.488 1049.27 521.988Z" fill="#4472C4"/><path d="M1034.5 330 1065.77 330 1065.77 513.779 1047.77 513.779 1047.77 510.779 1064.27 510.779 1062.77 512.279 1062.77 331.5 1064.27 333 1034.5 333ZM1049.27 516.779 1040.27 512.279 1049.27 507.779Z" fill="#4472C4"/><path d="M485.5 494 622.571 494 622.571 517.644 621.071 516.144 749.142 516.144 749.142 519.144 619.571 519.144 619.571 495.5 621.071 497 485.5 497ZM747.642 513.144 756.642 517.644 747.642 522.144Z" fill="#4472C4"/><path d="M301.904 108.446 476.449 108.446 476.449 147.379 301.904 147.379Z" fill="#4472C4" fill-rule="evenodd"/><path d="M301.57 147.379 476.783 147.379" stroke="#4472C4" stroke-width="0.666667" stroke-miterlimit="8" fill="none" fill-rule="evenodd"/><path d="M301.57 186.312 476.783 186.312" stroke="#4472C4" stroke-width="0.666667" stroke-miterlimit="8" fill="none" fill-rule="evenodd"/><path d="M301.57 225.246 476.783 225.246" stroke="#4472C4" stroke-width="0.666667" stroke-miterlimit="8" fill="none" fill-rule="evenodd"/><path d="M301.57 264.179 476.783 264.179" stroke="#4472C4" stroke-width="0.666667" stroke-miterlimit="8" fill="none" fill-rule="evenodd"/><path d="M301.904 108.112 301.904 303.446" stroke="#4472C4" stroke-width="0.666667" stroke-miterlimit="8" fill="none" fill-rule="evenodd"/><path d="M476.449 108.112 476.449 303.446" stroke="#4472C4" stroke-width="0.666667" stroke-miterlimit="8" fill="none" fill-rule="evenodd"/><path d="M301.57 108.446 476.783 108.446" stroke="#4472C4" stroke-width="0.666667" stroke-miterlimit="8" fill="none" fill-rule="evenodd"/><path d="M301.57 303.112 476.783 303.112" stroke="#4472C4" stroke-width="0.666667" stroke-miterlimit="8" fill="none" fill-rule="evenodd"/><g clip-path="url(#clip38)"><text fill="#FFFFFF" font-family="Calibri,Calibri_MSFontService,sans-serif" font-weight="700" font-size="24" transform="translate(311.504 135)">INTERVENIR</text></g><g clip-path="url(#clip39)"><text font-family="Calibri,Calibri_MSFontService,sans-serif" font-weight="700" font-size="24" transform="translate(311.504 174)">NumSession</text></g><path d="M311.504 177.179 342.004 177.179 372.504 177.179 403.004 177.179 433.504 177.179 433.504 179.179 403.004 179.179 372.504 179.179 342.004 179.179 311.504 179.179Z" fill-rule="evenodd"/><g clip-path="url(#clip40)"><text font-family="Calibri,Calibri_MSFontService,sans-serif" font-weight="700" font-size="24" transform="translate(311.504 213)">CodeFormation</text></g><path d="M311.504 216.112 349.754 216.112 388.004 216.112 426.254 216.112 464.504 216.112 464.504 218.112 426.254 218.112 388.004 218.112 349.754 218.112 311.504 218.112Z" fill-rule="evenodd"/><g clip-path="url(#clip41)"><text font-family="Calibri,Calibri_MSFontService,sans-serif" font-weight="700" font-size="24" transform="translate(311.504 252)">NumFormateur</text></g><path d="M311.504 255.046 349.754 255.046 388.004 255.046 426.254 255.046 464.504 255.046 464.504 257.046 426.254 257.046 388.004 257.046 349.754 257.046 311.504 257.046Z" fill-rule="evenodd"/><g clip-path="url(#clip42)"><text font-family="Calibri,Calibri_MSFontService,sans-serif" font-weight="400" font-size="24" transform="translate(311.504 291)">NbH</text></g><path d="M0-1.5 1012.51-1.5 1012.51 492.697 994.509 492.697 994.509 489.697 1011.01 489.697 1009.51 491.197 1009.51 0 1011.01 1.5 0 1.5ZM996.009 495.697 987.009 491.197 996.009 486.697Z" fill="#4472C4" transform="matrix(1 0 0 -1 249.5 658.697)"/></g></svg>