<svg width="1280" height="720" xmlns="http://www.w3.org/2000/svg" xmlns:xlink="http://www.w3.org/1999/xlink" overflow="hidden"><g><rect x="0" y="0" width="1280" height="720" fill="#FFFFFF"/><path d="M1036 580C1036 576.686 1038.46 574 1041.5 574 1044.54 574 1047 576.686 1047 580 1047 583.314 1044.54 586 1041.5 586 1038.46 586 1036 583.314 1036 580Z" fill="#FFFFFF" fill-rule="evenodd"/><path d="M468 299C468 295.686 470.462 293 473.5 293 476.538 293 479 295.686 479 299 479 302.314 476.538 305 473.5 305 470.462 305 468 302.314 468 299Z" fill="#FFFFFF" fill-rule="evenodd"/><path d="M423 202.5C423 199.462 425.462 197 428.5 197 431.538 197 434 199.462 434 202.5 434 205.538 431.538 208 428.5 208 425.462 208 423 205.538 423 202.5Z" fill="#FFFFFF" fill-rule="evenodd"/><path d="M467.554 300.334 449.777 300.334 449.777 203 450.777 204 440.667 204 440.667 202 451.777 202 451.777 299.334 450.777 298.334 467.554 298.334ZM442 207 434 203 442 199Z"/><path d="M468 498.5C468 495.462 470.462 493 473.5 493 476.538 493 479 495.462 479 498.5 479 501.538 476.538 504 473.5 504 470.462 504 468 501.538 468 498.5Z" fill="#FFFFFF" fill-rule="evenodd"/><path d="M227.5 290C227.5 286.962 229.962 284.5 233 284.5 236.038 284.5 238.5 286.962 238.5 290 238.5 293.038 236.038 295.5 233 295.5 229.962 295.5 227.5 293.038 227.5 290Z" stroke="#FFFFFF" stroke-width="1.33333" stroke-miterlimit="8" fill="#FFFFFF" fill-rule="evenodd"/><path d="M286.5 198C286.5 194.962 288.962 192.5 292 192.5 295.038 192.5 297.5 194.962 297.5 198 297.5 201.038 295.038 203.5 292 203.5 288.962 203.5 286.5 201.038 286.5 198Z" stroke="#FFFFFF" stroke-width="1.33333" stroke-miterlimit="8" fill="#4472C4" fill-rule="evenodd"/><path d="M226 134.5C226 131.462 228.462 129 231.5 129 234.538 129 237 131.462 237 134.5 237 137.538 234.538 140 231.5 140 228.462 140 226 137.538 226 134.5Z" fill="#FFFFFF" fill-rule="evenodd"/><path d="M286 198C286 194.686 288.462 192 291.5 192 294.538 192 297 194.686 297 198 297 201.314 294.538 204 291.5 204 288.462 204 286 201.314 286 198Z" fill="#FFFFFF" fill-rule="evenodd"/><path d="M596 280C596 276.686 598.462 274 601.5 274 604.538 274 607 276.686 607 280 607 283.314 604.538 286 601.5 286 598.462 286 596 283.314 596 280Z" fill="#FFFFFF" fill-rule="evenodd"/><path d="M643 364.5C643 361.462 645.462 359 648.5 359 651.538 359 654 361.462 654 364.5 654 367.538 651.538 370 648.5 370 645.462 370 643 367.538 643 364.5Z" fill="#FFFFFF" fill-rule="evenodd"/><path d="M591 483C591 479.686 593.462 477 596.5 477 599.538 477 602 479.686 602 483 602 486.314 599.538 489 596.5 489 593.462 489 591 486.314 591 483Z" fill="#FFFFFF" fill-rule="evenodd"/><path d="M399 480.5C399 477.462 401.462 475 404.5 475 407.538 475 410 477.462 410 480.5 410 483.538 407.538 486 404.5 486 401.462 486 399 483.538 399 480.5Z" fill="#FFFFFF" fill-rule="evenodd"/><path d="M0-1 24.8795-1 24.8795 82.9478 23.8795 81.9478 41.0924 81.9478 41.0924 83.9478 22.8795 83.9478 22.8795 0 23.8795 1 0 1ZM39.7591 78.9478 47.7591 82.9478 39.7591 86.9478Z" transform="matrix(1 0 0 -1 238 288.948)"/><path d="M286 206C286 201.029 288.686 197 292 197 295.314 197 298 201.029 298 206 298 210.971 295.314 215 292 215 288.686 215 286 210.971 286 206Z" fill="#FFFFFF" fill-rule="evenodd"/><path d="M643 374.5C643 371.462 645.462 369 648.5 369 651.538 369 654 371.462 654 374.5 654 377.538 651.538 380 648.5 380 645.462 380 643 377.538 643 374.5Z" fill="#FFFFFF" fill-rule="evenodd"/><path d="M775 363C775 359.686 777.462 357 780.5 357 783.538 357 786 359.686 786 363 786 366.314 783.538 369 780.5 369 777.462 369 775 366.314 775 363Z" fill="#FFFFFF" fill-rule="evenodd"/><path d="M838 243.5C838 240.462 840.462 238 843.5 238 846.538 238 849 240.462 849 243.5 849 246.538 846.538 249 843.5 249 840.462 249 838 246.538 838 243.5Z" fill="#FFFFFF" fill-rule="evenodd"/><path d="M1014 294C1014 290.686 1016.46 288 1019.5 288 1022.54 288 1025 290.686 1025 294 1025 297.314 1022.54 300 1019.5 300 1016.46 300 1014 297.314 1014 294Z" fill="#FFFFFF" fill-rule="evenodd"/><path d="M950 263.5C950 260.462 952.686 258 956 258 959.314 258 962 260.462 962 263.5 962 266.538 959.314 269 956 269 952.686 269 950 266.538 950 263.5Z" fill="#FFFFFF" fill-rule="evenodd"/><path d="M840 443C840 439.686 842.686 437 846 437 849.314 437 852 439.686 852 443 852 446.314 849.314 449 846 449 842.686 449 840 446.314 840 443Z" fill="#FFFFFF" fill-rule="evenodd"/><path d="M777 520.5C777 517.462 779.462 515 782.5 515 785.538 515 788 517.462 788 520.5 788 523.538 785.538 526 782.5 526 779.462 526 777 523.538 777 520.5Z" fill="#FFFFFF" fill-rule="evenodd"/><path d="M1026 433.5C1026 430.462 1028.69 428 1032 428 1035.31 428 1038 430.462 1038 433.5 1038 436.538 1035.31 439 1032 439 1028.69 439 1026 436.538 1026 433.5Z" fill="#FFFFFF" fill-rule="evenodd"/><path d="M775 369.5C775 366.462 777.462 364 780.5 364 783.538 364 786 366.462 786 369.5 786 372.538 783.538 375 780.5 375 777.462 375 775 372.538 775 369.5Z" fill="#FFFFFF" fill-rule="evenodd"/><path d="M985 445.5C985 442.462 987.686 440 991 440 994.314 440 997 442.462 997 445.5 997 448.538 994.314 451 991 451 987.686 451 985 448.538 985 445.5Z" fill="#FFFFFF" fill-rule="evenodd"/><rect x="645.5" y="325.5" width="140" height="215" stroke="#172C51" stroke-width="1.33333" stroke-miterlimit="8" fill="#FFFFFF"/><text font-family="Calibri,Calibri_MSFontService,sans-serif" font-weight="400" font-size="16" transform="translate(698.331 344)">CLUB</text><text font-family="Calibri,Calibri_MSFontService,sans-serif" font-weight="700" font-size="16" transform="translate(654.911 373)">CodeAffiliation</text><path d="M654.911 375.432 679.911 375.432 704.911 375.432 729.911 375.432 754.911 375.432 754.911 376.432 729.911 376.432 704.911 376.432 679.911 376.432 654.911 376.432Z" fill-rule="evenodd"/><text font-family="Calibri,Calibri_MSFontService,sans-serif" font-weight="400" font-size="16" transform="translate(654.911 392)">NomClub</text><text font-family="Calibri,Calibri_MSFontService,sans-serif" font-weight="400" font-size="16" transform="translate(654.911 411)">DateCreationClub</text><text font-family="Calibri,Calibri_MSFontService,sans-serif" font-weight="400" font-size="16" transform="translate(654.911 430)">AdresseRueClub</text><text font-family="Calibri,Calibri_MSFontService,sans-serif" font-weight="400" font-size="16" transform="translate(654.911 450)">VilleClub</text><text font-family="Calibri,Calibri_MSFontService,sans-serif" font-weight="400" font-size="16" transform="translate(654.911 469)">TelephoneClub</text><text font-family="Calibri,Calibri_MSFontService,sans-serif" font-weight="400" font-size="16" transform="translate(654.911 488)">SiteInternetClub</text><text font-family="Calibri,Calibri_MSFontService,sans-serif" font-weight="400" font-size="16" transform="translate(654.911 507)">PresidentClub</text><text font-family="Calibri,Calibri_MSFontService,sans-serif" font-style="italic" font-weight="400" font-size="16" transform="translate(654.911 526)">CodeLigue</text><rect x="843.5" y="402.5" width="151" height="181" stroke="#172C51" stroke-width="1.33333" stroke-miterlimit="8" fill="#FFFFFF"/><text font-family="Calibri,Calibri_MSFontService,sans-serif" font-weight="400" font-size="16" transform="translate(857.054 421)">LIGUE_REGIONALE</text><text font-family="Calibri,Calibri_MSFontService,sans-serif" font-weight="700" font-size="16" transform="translate(852.214 450)">CodeLigue</text><path d="M852.214 452.341 875.214 452.341 898.214 452.341 921.214 452.341 921.214 453.341 898.214 453.341 875.214 453.341 852.214 453.341Z" fill-rule="evenodd"/><text font-family="Calibri,Calibri_MSFontService,sans-serif" font-weight="400" font-size="16" transform="translate(852.214 469)">NomLigue</text><text font-family="Calibri,Calibri_MSFontService,sans-serif" font-weight="400" font-size="16" transform="translate(852.214 488)">DateCreationLigue</text><text font-family="Calibri,Calibri_MSFontService,sans-serif" font-weight="400" font-size="16" transform="translate(852.214 507)">AdresseRueLigue</text><text font-family="Calibri,Calibri_MSFontService,sans-serif" font-weight="400" font-size="16" transform="translate(852.214 527)">CodePostalLigue</text><text font-family="Calibri,Calibri_MSFontService,sans-serif" font-weight="400" font-size="16" transform="translate(852.214 546)">VilleLigue</text><text font-family="Calibri,Calibri_MSFontService,sans-serif" font-weight="400" font-size="16" transform="translate(852.214 565)">PresidentLigue</text><rect x="1036.5" y="402.5" width="208" height="206" stroke="#172C51" stroke-width="1.33333" stroke-miterlimit="8" fill="#FFFFFF"/><text font-family="Calibri,Calibri_MSFontService,sans-serif" font-weight="400" font-size="16" transform="translate(1053.41 421)">COMITE_DEPARTEMENTAL</text><text font-family="Calibri,Calibri_MSFontService,sans-serif" font-weight="700" font-size="16" transform="translate(1045.47 450)">CodeComite</text><path d="M1045.47 452.341 1085.97 452.341 1126.47 452.341 1126.47 453.341 1085.97 453.341 1045.47 453.341Z" fill-rule="evenodd"/><text font-family="Calibri,Calibri_MSFontService,sans-serif" font-weight="400" font-size="16" transform="translate(1045.47 469)">NomComite</text><text font-family="Calibri,Calibri_MSFontService,sans-serif" font-weight="400" font-size="16" transform="translate(1045.47 488)">DateCreationComite</text><text font-family="Calibri,Calibri_MSFontService,sans-serif" font-weight="400" font-size="16" transform="translate(1045.47 507)">AdresseRueComite</text><text font-family="Calibri,Calibri_MSFontService,sans-serif" font-weight="400" font-size="16" transform="translate(1045.47 527)">CodePostalComite</text><text font-family="Calibri,Calibri_MSFontService,sans-serif" font-weight="400" font-size="16" transform="translate(1045.47 546)">VilleComite</text><text font-family="Calibri,Calibri_MSFontService,sans-serif" font-weight="400" font-size="16" transform="translate(1045.47 565)">PresidentComite</text><text font-family="Calibri,Calibri_MSFontService,sans-serif" font-style="italic" font-weight="400" font-size="16" transform="translate(1045.47 584)">CodeLigue</text><rect x="1012.5" y="252.5" width="122" height="90" stroke="#172C51" stroke-width="1.33333" stroke-miterlimit="8" fill="#FFFFFF"/><text font-family="Calibri,Calibri_MSFontService,sans-serif" font-weight="400" font-size="16" transform="translate(1054.28 272)">SALLE</text><text font-family="Calibri,Calibri_MSFontService,sans-serif" font-weight="700" font-size="16" transform="translate(1022.06 298)">CodeSalle</text><path d="M1022.06 300.167 1043.72 300.167 1065.39 300.167 1087.06 300.167 1087.06 301.167 1065.39 301.167 1043.72 301.167 1022.06 301.167Z" fill-rule="evenodd"/><text font-family="Calibri,Calibri_MSFontService,sans-serif" font-weight="400" font-size="16" transform="translate(1022.06 317)">LieuSalle</text><rect x="839.5" y="199.5" width="121" height="123" stroke="#172C51" stroke-width="1.33333" stroke-miterlimit="8" fill="#FFFFFF"/><text font-family="Calibri,Calibri_MSFontService,sans-serif" font-weight="400" font-size="16" transform="translate(867.578 219)">DISPOSER</text><text font-family="Calibri,Calibri_MSFontService,sans-serif" font-style="italic" font-weight="700" font-size="16" transform="translate(848.498 248)">CodeAffiliation</text><path d="M848.498 249.774 873.498 249.774 898.498 249.774 923.498 249.774 948.498 249.774 948.498 250.774 923.498 250.774 898.498 250.774 873.498 250.774 848.498 250.774Z" fill-rule="evenodd"/><text font-family="Calibri,Calibri_MSFontService,sans-serif" font-style="italic" font-weight="700" font-size="16" transform="translate(848.498 267)">CodeSalle</text><path d="M848.498 268.774 870.165 268.774 891.832 268.774 913.498 268.774 913.498 269.774 891.832 269.774 870.165 269.774 848.498 269.774Z" fill-rule="evenodd"/><text font-family="Calibri,Calibri_MSFontService,sans-serif" font-weight="400" font-size="16" transform="translate(848.498 286)">Jour</text><text font-family="Calibri,Calibri_MSFontService,sans-serif" font-weight="400" font-size="16" transform="translate(848.498 305)">Horaire</text><rect x="285.5" y="158.5" width="148" height="105" stroke="#172C51" stroke-width="1.33333" stroke-miterlimit="8" fill="#FFFFFF"/><text font-family="Calibri,Calibri_MSFontService,sans-serif" font-weight="400" font-size="16" transform="translate(312.932 178)">INSTRUCTEUR</text><text font-family="Calibri,Calibri_MSFontService,sans-serif" font-weight="700" font-size="16" transform="translate(294.252 207)">CodeInstructeur</text><path d="M294.252 209.07 321.002 209.07 347.752 209.07 374.502 209.07 401.252 209.07 401.252 210.07 374.502 210.07 347.752 210.07 321.002 210.07 294.252 210.07Z" fill-rule="evenodd"/><text font-family="Calibri,Calibri_MSFontService,sans-serif" font-weight="400" font-size="16" transform="translate(294.252 226)">NomInstructeur</text><text font-family="Calibri,Calibri_MSFontService,sans-serif" font-weight="400" font-size="16" transform="translate(294.252 245)">PrenomInstructeur</text><rect x="42.5001" y="89.5001" width="194" height="81" stroke="#172C51" stroke-width="1.33333" stroke-miterlimit="8" fill="#FFFFFF"/><text font-family="Calibri,Calibri_MSFontService,sans-serif" font-weight="400" font-size="16" transform="translate(105.22 109)">PRINCIPAL</text><text font-family="Calibri,Calibri_MSFontService,sans-serif" font-style="italic" font-weight="700" font-size="16" transform="translate(51.1334 138)">CodeInstructeur</text><path d="M51.1334 139.721 86.4668 139.721 121.8 139.721 157.133 139.721 157.133 140.721 121.8 140.721 86.4668 140.721 51.1334 140.721Z" fill-rule="evenodd"/><text font-family="Calibri,Calibri_MSFontService,sans-serif" font-weight="400" font-size="16" transform="translate(51.1334 157)">GradeInstructeurPrincipal</text><rect x="44.5001" y="243.5" width="192" height="80" stroke="#172C51" stroke-width="1.33333" stroke-miterlimit="8" fill="#FFFFFF"/><text font-family="Calibri,Calibri_MSFontService,sans-serif" font-weight="400" font-size="16" transform="translate(98.2727 263)">SECONDAIRE</text><text font-family="Calibri,Calibri_MSFontService,sans-serif" font-style="italic" font-weight="700" font-size="16" transform="translate(53.9127 292)">CodeInstructeur</text><path d="M53.9127 293.587 89.246 293.587 124.579 293.587 159.913 293.587 159.913 294.587 124.579 294.587 89.246 294.587 53.9127 294.587Z" fill-rule="evenodd"/><text font-family="Calibri,Calibri_MSFontService,sans-serif" font-weight="400" font-size="16" transform="translate(53.9127 311)">Diplome</text><rect x="465.5" y="233.5" width="139" height="81" stroke="#172C51" stroke-width="1.33333" stroke-miterlimit="8" fill="#FFFFFF"/><text font-family="Calibri,Calibri_MSFontService,sans-serif" font-weight="400" font-size="16" transform="translate(514.063 253)">AVOIR</text><text font-family="Calibri,Calibri_MSFontService,sans-serif" font-style="italic" font-weight="700" font-size="16" transform="translate(474.863 282)">CodeAffiliation</text><path d="M474.863 284.13 499.863 284.13 524.863 284.13 549.863 284.13 574.863 284.13 574.863 285.13 549.863 285.13 524.863 285.13 499.863 285.13 474.863 285.13Z" fill-rule="evenodd"/><text font-family="Calibri,Calibri_MSFontService,sans-serif" font-style="italic" font-weight="700" font-size="16" transform="translate(474.863 301)">CodeInstructeur</text><path d="M474.863 303.13 501.363 303.13 527.863 303.13 554.363 303.13 580.863 303.13 580.863 304.13 554.363 304.13 527.863 304.13 501.363 304.13 474.863 304.13Z" fill-rule="evenodd"/><rect x="469.5" y="436.5" width="134" height="104" stroke="#172C51" stroke-width="1.33333" stroke-miterlimit="8" fill="#FFFFFF"/><text font-family="Calibri,Calibri_MSFontService,sans-serif" font-weight="400" font-size="16" transform="translate(488.865 456)">COMPRENDRE</text><text font-family="Calibri,Calibri_MSFontService,sans-serif" font-style="italic" font-weight="700" font-size="16" transform="translate(478.212 485)">CodeAffiliation</text><path d="M478.212 486.897 503.212 486.897 528.212 486.897 553.212 486.897 578.212 486.897 578.212 487.897 553.212 487.897 528.212 487.897 503.212 487.897 478.212 487.897Z" fill-rule="evenodd"/><text font-family="Calibri,Calibri_MSFontService,sans-serif" font-style="italic" font-weight="700" font-size="16" transform="translate(478.212 504)">NumeroLicence</text><path d="M478.212 505.897 503.712 505.897 529.212 505.897 554.712 505.897 580.212 505.897 580.212 506.897 554.712 506.897 529.212 506.897 503.712 506.897 478.212 506.897Z" fill-rule="evenodd"/><text font-family="Calibri,Calibri_MSFontService,sans-serif" font-weight="400" font-size="16" transform="translate(478.212 523)">DateAdhesion</text><rect x="217.5" y="438.5" width="192" height="181" stroke="#172C51" stroke-width="1.33333" stroke-miterlimit="8" fill="#FFFFFF"/><text font-family="Calibri,Calibri_MSFontService,sans-serif" font-weight="400" font-size="16" transform="translate(276.922 458)">ADHERENT</text><text font-family="Calibri,Calibri_MSFontService,sans-serif" font-weight="700" font-size="16" transform="translate(226.509 487)">NumeroLicence</text><path d="M226.509 488.591 260.842 488.591 295.176 488.591 329.509 488.591 329.509 489.591 295.176 489.591 260.842 489.591 226.509 489.591Z" fill-rule="evenodd"/><text font-family="Calibri,Calibri_MSFontService,sans-serif" font-weight="400" font-size="16" transform="translate(226.509 506)">NomAdherent</text><text font-family="Calibri,Calibri_MSFontService,sans-serif" font-weight="400" font-size="16" transform="translate(226.509 525)">DateNaissanceAdherent</text><text font-family="Calibri,Calibri_MSFontService,sans-serif" font-weight="400" font-size="16" transform="translate(226.509 544)">AdresseRueAdherent</text><text font-family="Calibri,Calibri_MSFontService,sans-serif" font-weight="400" font-size="16" transform="translate(226.509 564)">VilleAdherent</text><text font-family="Calibri,Calibri_MSFontService,sans-serif" font-weight="400" font-size="16" transform="translate(226.509 583)">TelephoneAdherent</text><text font-family="Calibri,Calibri_MSFontService,sans-serif" font-weight="400" font-size="16" transform="translate(226.509 602)">GradeAdherent</text><path d="M237 133 262.41 133 262.41 197.602 261.41 196.602 279.153 196.602 279.153 198.602 260.41 198.602 260.41 134 261.41 135 237 135ZM277.819 193.602 285.819 197.602 277.819 201.602Z"/><path d="M607 279 625.975 279 625.975 364.461 624.975 363.461 636.284 363.461 636.284 365.461 623.975 365.461 623.975 280 624.975 281 607 281ZM634.95 360.461 642.95 364.461 634.95 368.461Z"/><path d="M467.753 500.094 437.877 500.094 437.877 481 438.877 482 416.667 482 416.667 480 439.877 480 439.877 499.094 438.877 498.094 467.753 498.094ZM418 485 410 481 418 477Z"/><path d="M0-1 21.447-1 21.447 108.528 20.447 107.528 34.2273 107.528 34.2273 109.528 19.447 109.528 19.447 0 20.447 1 0 1ZM32.894 104.528 40.894 108.528 32.894 112.528Z" transform="matrix(1 0 0 -1 602 482.528)"/><path d="M0-1 26.7942-1 26.7942 126.311 25.7942 125.311 44.9217 125.311 44.9217 127.311 24.7942 127.311 24.7942 0 25.7942 1 0 1ZM43.5883 122.311 51.5883 126.311 43.5883 130.311Z" transform="matrix(-1 1.22465e-16 1.22465e-16 1 837.588 243)"/><path d="M0-1 27.1488-1 27.1488 77.8562 26.1488 76.8562 45.6308 76.8562 45.6308 78.8562 25.1488 78.8562 25.1488 0 26.1488 1 0 1ZM44.2974 73.8562 52.2974 77.8562 44.2974 81.8562Z" transform="matrix(1 0 0 -1 788 520.856)"/><path d="M1036.24 581.393 1015.62 581.393 1015.62 446 1016.62 447 1003.67 447 1003.67 445 1017.62 445 1017.62 580.393 1016.62 579.393 1036.24 579.393ZM1005 450 997 446 1005 442Z"/><path d="M962 262 989.073 262 989.073 293.662 988.073 292.662 1007.48 292.662 1007.48 294.662 987.073 294.662 987.073 263 988.073 264 962 264ZM1006.15 289.662 1014.15 293.662 1006.15 297.662Z"/></g></svg>