<svg width="1280" height="720" xmlns="http://www.w3.org/2000/svg" xmlns:xlink="http://www.w3.org/1999/xlink" overflow="hidden"><g><rect x="0" y="0" width="1280" height="720" fill="#FFFFFF"/><path d="M410 239.5C410 236.462 412.686 234 416 234 419.314 234 422 236.462 422 239.5 422 242.538 419.314 245 416 245 412.686 245 410 242.538 410 239.5Z" fill="#FFFFFF" fill-rule="evenodd"/><path d="M362 151C362 147.686 364.462 145 367.5 145 370.538 145 373 147.686 373 151 373 154.314 370.538 157 367.5 157 364.462 157 362 154.314 362 151Z" fill="#FFFFFF" fill-rule="evenodd"/><path d="M410.433 240.577 390.716 240.577 390.716 151 391.716 152 379.667 152 379.667 150 392.716 150 392.716 239.577 391.716 238.577 410.433 238.577ZM381 155 373 151 381 147Z"/><path d="M397 444.5C397 441.462 399.462 439 402.5 439 405.538 439 408 441.462 408 444.5 408 447.538 405.538 450 402.5 450 399.462 450 397 447.538 397 444.5Z" fill="#FFFFFF" fill-rule="evenodd"/><path d="M181.5 233.5C181.5 230.186 184.186 227.5 187.5 227.5 190.814 227.5 193.5 230.186 193.5 233.5 193.5 236.814 190.814 239.5 187.5 239.5 184.186 239.5 181.5 236.814 181.5 233.5Z" stroke="#FFFFFF" stroke-width="1.33333" stroke-miterlimit="8" fill="#FFFFFF" fill-rule="evenodd"/><path d="M241.5 145.5C241.5 142.186 243.962 139.5 247 139.5 250.038 139.5 252.5 142.186 252.5 145.5 252.5 148.814 250.038 151.5 247 151.5 243.962 151.5 241.5 148.814 241.5 145.5Z" stroke="#FFFFFF" stroke-width="1.33333" stroke-miterlimit="8" fill="#4472C4" fill-rule="evenodd"/><path d="M180 78C180 74.6863 182.686 72 186 72 189.314 72 192 74.6863 192 78 192 81.3137 189.314 84 186 84 182.686 84 180 81.3137 180 78Z" fill="#FFFFFF" fill-rule="evenodd"/><path d="M241 145.5C241 142.462 243.462 140 246.5 140 249.538 140 252 142.462 252 145.5 252 148.538 249.538 151 246.5 151 243.462 151 241 148.538 241 145.5Z" fill="#FFFFFF" fill-rule="evenodd"/><path d="M525 225.5C525 222.462 527.462 220 530.5 220 533.538 220 536 222.462 536 225.5 536 228.538 533.538 231 530.5 231 527.462 231 525 228.538 525 225.5Z" fill="#FFFFFF" fill-rule="evenodd"/><path d="M572 312C572 308.686 574.462 306 577.5 306 580.538 306 583 308.686 583 312 583 315.314 580.538 318 577.5 318 574.462 318 572 315.314 572 312Z" fill="#FFFFFF" fill-rule="evenodd"/><path d="M511 423.5C511 420.462 513.462 418 516.5 418 519.538 418 522 420.462 522 423.5 522 426.538 519.538 429 516.5 429 513.462 429 511 426.538 511 423.5Z" fill="#FFFFFF" fill-rule="evenodd"/><path d="M328 449.5C328 446.462 330.462 444 333.5 444 336.538 444 339 446.462 339 449.5 339 452.538 336.538 455 333.5 455 330.462 455 328 452.538 328 449.5Z" fill="#FFFFFF" fill-rule="evenodd"/><path d="M0-1 24.8795-1 24.8795 79.0692 23.8795 78.0692 41.0924 78.0692 41.0924 80.0692 22.8795 80.0692 22.8795 0 23.8795 1 0 1ZM39.7591 75.0692 47.7591 79.0692 39.7591 83.0692Z" transform="matrix(1 0 0 -1 193 233.069)"/><path d="M241 154C241 149.029 243.686 145 247 145 250.314 145 253 149.029 253 154 253 158.971 250.314 163 247 163 243.686 163 241 158.971 241 154Z" fill="#FFFFFF" fill-rule="evenodd"/><path d="M572 322C572 318.686 574.462 316 577.5 316 580.538 316 583 318.686 583 322 583 325.314 580.538 328 577.5 328 574.462 328 572 325.314 572 322Z" fill="#FFFFFF" fill-rule="evenodd"/><path d="M685 311.5C685 308.462 687.462 306 690.5 306 693.538 306 696 308.462 696 311.5 696 314.538 693.538 317 690.5 317 687.462 317 685 314.538 685 311.5Z" fill="#FFFFFF" fill-rule="evenodd"/><path d="M765 191C765 187.686 767.686 185 771 185 774.314 185 777 187.686 777 191 777 194.314 774.314 197 771 197 767.686 197 765 194.314 765 191Z" fill="#FFFFFF" fill-rule="evenodd"/><path d="M943 243.5C943 240.462 945.462 238 948.5 238 951.538 238 954 240.462 954 243.5 954 246.538 951.538 249 948.5 249 945.462 249 943 246.538 943 243.5Z" fill="#FFFFFF" fill-rule="evenodd"/><path d="M880 207C880 203.686 882.462 201 885.5 201 888.538 201 891 203.686 891 207 891 210.314 888.538 213 885.5 213 882.462 213 880 210.314 880 207Z" fill="#FFFFFF" fill-rule="evenodd"/><path d="M769 393.5C769 390.462 771.686 388 775 388 778.314 388 781 390.462 781 393.5 781 396.538 778.314 399 775 399 771.686 399 769 396.538 769 393.5Z" fill="#FFFFFF" fill-rule="evenodd"/><path d="M684 446C684 442.686 686.462 440 689.5 440 692.538 440 695 442.686 695 446 695 449.314 692.538 452 689.5 452 686.462 452 684 449.314 684 446Z" fill="#FFFFFF" fill-rule="evenodd"/><path d="M937 387.5C937 384.462 939.686 382 943 382 946.314 382 949 384.462 949 387.5 949 390.538 946.314 393 943 393 939.686 393 937 390.538 937 387.5Z" fill="#FFFFFF" fill-rule="evenodd"/><path d="M1026 404.5C1026 401.462 1028.69 399 1032 399 1035.31 399 1038 401.462 1038 404.5 1038 407.538 1035.31 410 1032 410 1028.69 410 1026 407.538 1026 404.5Z" fill="#FFFFFF" fill-rule="evenodd"/><path d="M1075 438.5C1075 435.462 1077.46 433 1080.5 433 1083.54 433 1086 435.462 1086 438.5 1086 441.538 1083.54 444 1080.5 444 1077.46 444 1075 441.538 1075 438.5Z" fill="#FFFFFF" fill-rule="evenodd"/><path d="M685 318.5C685 315.462 687.462 313 690.5 313 693.538 313 696 315.462 696 318.5 696 321.538 693.538 324 690.5 324 687.462 324 685 321.538 685 318.5Z" fill="#FFFFFF" fill-rule="evenodd"/><path d="M884 392.5C884 389.462 886.686 387 890 387 893.314 387 896 389.462 896 392.5 896 395.538 893.314 398 890 398 886.686 398 884 395.538 884 392.5Z" fill="#FFFFFF" fill-rule="evenodd"/><rect x="575.5" y="279.5" width="121" height="189" stroke="#172C51" stroke-width="1.33333" stroke-miterlimit="8" fill="#FFFFFF"/><text font-family="Calibri,Calibri_MSFontService,sans-serif" font-weight="400" font-size="13" transform="translate(620.871 296)">CLUB</text><text font-family="Calibri,Calibri_MSFontService,sans-serif" font-weight="700" font-size="13" transform="translate(584.124 320)">CodeAffiliation</text><text font-family="Calibri,Calibri_MSFontService,sans-serif" font-weight="400" font-size="13" transform="translate(584.124 336)">NomClub</text><text font-family="Calibri,Calibri_MSFontService,sans-serif" font-weight="400" font-size="13" transform="translate(584.124 352)">DateCreationClub</text><text font-family="Calibri,Calibri_MSFontService,sans-serif" font-weight="400" font-size="13" transform="translate(584.124 368)">AdresseRueClub</text><text font-family="Calibri,Calibri_MSFontService,sans-serif" font-weight="400" font-size="13" transform="translate(584.124 384)">Ville</text><text font-family="Calibri,Calibri_MSFontService,sans-serif" font-weight="400" font-size="13" transform="translate(607.291 384)">Club</text><text font-family="Calibri,Calibri_MSFontService,sans-serif" font-weight="400" font-size="13" transform="translate(584.124 400)">Telephone</text><text font-family="Calibri,Calibri_MSFontService,sans-serif" font-weight="400" font-size="13" transform="translate(641.624 400)">Club</text><text font-family="Calibri,Calibri_MSFontService,sans-serif" font-weight="400" font-size="13" transform="translate(584.124 416)">SiteInternetClub</text><text font-family="Calibri,Calibri_MSFontService,sans-serif" font-weight="400" font-size="13" transform="translate(584.124 432)">PresidentClub</text><text font-family="Calibri,Calibri_MSFontService,sans-serif" font-weight="400" font-size="13" transform="translate(584.124 448)">CodeLigu</text><text font-family="Calibri,Calibri_MSFontService,sans-serif" font-weight="400" font-size="13" transform="translate(633.957 448)">e</text><rect x="772.5" y="356.5" width="121" height="162" stroke="#172C51" stroke-width="1.33333" stroke-miterlimit="8" fill="#FFFFFF"/><text font-family="Calibri,Calibri_MSFontService,sans-serif" font-weight="400" font-size="13" transform="translate(781.673 373)">LIGUE_REGIONALE</text><text font-family="Calibri,Calibri_MSFontService,sans-serif" font-weight="700" font-size="13" transform="translate(781.427 397)">CodeLigue</text><text font-family="Calibri,Calibri_MSFontService,sans-serif" font-weight="400" font-size="13" transform="translate(781.427 413)">NomLigue</text><text font-family="Calibri,Calibri_MSFontService,sans-serif" font-weight="400" font-size="13" transform="translate(781.427 429)">DateCreationLigue</text><text font-family="Calibri,Calibri_MSFontService,sans-serif" font-weight="400" font-size="13" transform="translate(781.427 445)">AdresseRue</text><text font-family="Calibri,Calibri_MSFontService,sans-serif" font-weight="400" font-size="13" transform="translate(845.26 445)">Ligue</text><text font-family="Calibri,Calibri_MSFontService,sans-serif" font-weight="400" font-size="13" transform="translate(781.427 461)">CodePostalLigue</text><text font-family="Calibri,Calibri_MSFontService,sans-serif" font-weight="400" font-size="13" transform="translate(781.427 477)">VilleLigue</text><text font-family="Calibri,Calibri_MSFontService,sans-serif" font-weight="400" font-size="13" transform="translate(781.427 493)">PresidentLigue</text><rect x="1076.5" y="402.5" width="169" height="170" stroke="#172C51" stroke-width="1.33333" stroke-miterlimit="8" fill="#FFFFFF"/><text font-family="Calibri,Calibri_MSFontService,sans-serif" font-weight="400" font-size="13" transform="translate(1087.5 419)">COMITE_DEPARTEMENTAL</text><text font-family="Calibri,Calibri_MSFontService,sans-serif" font-weight="700" font-size="13" transform="translate(1085.5 443)">CodeComite</text><text font-family="Calibri,Calibri_MSFontService,sans-serif" font-weight="400" font-size="13" transform="translate(1085.5 459)">NomComite</text><text font-family="Calibri,Calibri_MSFontService,sans-serif" font-weight="400" font-size="13" transform="translate(1085.5 475)">DateCreationComite</text><text font-family="Calibri,Calibri_MSFontService,sans-serif" font-weight="400" font-size="13" transform="translate(1085.5 491)">AdresseRue</text><text font-family="Calibri,Calibri_MSFontService,sans-serif" font-weight="400" font-size="13" transform="translate(1149.33 491)">Comite</text><text font-family="Calibri,Calibri_MSFontService,sans-serif" font-weight="400" font-size="13" transform="translate(1085.5 507)">CodePostalComite</text><text font-family="Calibri,Calibri_MSFontService,sans-serif" font-weight="400" font-size="13" transform="translate(1085.5 523)">VilleComite</text><text font-family="Calibri,Calibri_MSFontService,sans-serif" font-weight="400" font-size="13" transform="translate(1085.5 539)">PresidentComite</text><rect x="938.5" y="352.5" width="96.9999" height="81" stroke="#172C51" stroke-width="1.33333" stroke-miterlimit="8" fill="#FFFFFF"/><text font-family="Calibri,Calibri_MSFontService,sans-serif" font-weight="400" font-size="13" transform="translate(968.46 369)">GERER</text><text font-family="Calibri,Calibri_MSFontService,sans-serif" font-weight="700" font-size="13" transform="translate(947.714 393)">CodeLigue</text><text font-family="Calibri,Calibri_MSFontService,sans-serif" font-weight="700" font-size="13" transform="translate(947.714 409)">CodeComit</text><text font-family="Calibri,Calibri_MSFontService,sans-serif" font-weight="700" font-size="13" transform="translate(1008.71 409)">é</text><rect x="942.5" y="207.5" width="121" height="89" stroke="#172C51" stroke-width="1.33333" stroke-miterlimit="8" fill="#FFFFFF"/><text font-family="Calibri,Calibri_MSFontService,sans-serif" font-weight="400" font-size="13" transform="translate(986.518 224)">SALLE</text><text font-family="Calibri,Calibri_MSFontService,sans-serif" font-weight="700" font-size="13" transform="translate(951.271 248)">CodeSalle</text><text font-family="Calibri,Calibri_MSFontService,sans-serif" font-weight="400" font-size="13" transform="translate(951.271 264)">LieuSalle</text><rect x="768.5" y="153.5" width="122" height="104" stroke="#172C51" stroke-width="1.33333" stroke-miterlimit="8" fill="#FFFFFF"/><text font-family="Calibri,Calibri_MSFontService,sans-serif" font-weight="400" font-size="13" transform="translate(802.211 170)">DISPOSER</text><text font-family="Calibri,Calibri_MSFontService,sans-serif" font-weight="700" font-size="13" transform="translate(777.711 194)">CodeAffiliation</text><text font-family="Calibri,Calibri_MSFontService,sans-serif" font-weight="700" font-size="13" transform="translate(777.711 210)">CodeSalle</text><text font-family="Calibri,Calibri_MSFontService,sans-serif" font-weight="400" font-size="13" transform="translate(777.711 226)">Jour</text><text font-family="Calibri,Calibri_MSFontService,sans-serif" font-weight="400" font-size="13" transform="translate(777.711 242)">Horaire</text><rect x="244.5" y="113.5" width="128" height="94" stroke="#172C51" stroke-width="1.33333" stroke-miterlimit="8" fill="#FFFFFF"/><text font-family="Calibri,Calibri_MSFontService,sans-serif" font-weight="400" font-size="13" transform="translate(269.862 129)">INSTRUCTEUR</text><text font-family="Calibri,Calibri_MSFontService,sans-serif" font-weight="700" font-size="13" transform="translate(253.782 153)">CodeInstructeur</text><text font-family="Calibri,Calibri_MSFontService,sans-serif" font-weight="400" font-size="13" transform="translate(253.782 169)">NomInstructeur</text><text font-family="Calibri,Calibri_MSFontService,sans-serif" font-weight="400" font-size="13" transform="translate(253.782 185)">Pren</text><text font-family="Calibri,Calibri_MSFontService,sans-serif" font-weight="400" font-size="13" transform="translate(278.949 185)">omInstructeur</text><rect x="19.5001" y="43.5001" width="171" height="81" stroke="#172C51" stroke-width="1.33333" stroke-miterlimit="8" fill="#FFFFFF"/><text font-family="Calibri,Calibri_MSFontService,sans-serif" font-weight="400" font-size="13" transform="translate(76.3439 60)">PRINCIPAL</text><text font-family="Calibri,Calibri_MSFontService,sans-serif" font-weight="700" font-size="13" transform="translate(28.5106 84)">CodeInstructeur</text><text font-family="Calibri,Calibri_MSFontService,sans-serif" font-weight="400" font-size="13" transform="translate(28.5106 100)">GradeInstructeurPrincipal</text><rect x="19.5001" y="197.5" width="171" height="81" stroke="#172C51" stroke-width="1.33333" stroke-miterlimit="8" fill="#FFFFFF"/><text font-family="Calibri,Calibri_MSFontService,sans-serif" font-weight="400" font-size="13" transform="translate(69.5906 214)">SECONDAIRE</text><text font-family="Calibri,Calibri_MSFontService,sans-serif" font-weight="700" font-size="13" transform="translate(28.5106 238)">CodeInstructeur</text><text font-family="Calibri,Calibri_MSFontService,sans-serif" font-weight="400" font-size="13" transform="translate(28.5106 254)">Diplome</text><rect x="412.5" y="188.5" width="121" height="80" stroke="#172C51" stroke-width="1.33333" stroke-miterlimit="8" fill="#FFFFFF"/><text font-family="Calibri,Calibri_MSFontService,sans-serif" font-weight="400" font-size="13" transform="translate(454.951 205)">AVOIR</text><text font-family="Calibri,Calibri_MSFontService,sans-serif" font-weight="700" font-size="13" transform="translate(421.117 229)">CodeAffiliation</text><text font-family="Calibri,Calibri_MSFontService,sans-serif" font-weight="700" font-size="13" transform="translate(421.117 245)">CodeInstructeur</text><rect x="398.5" y="391.5" width="121" height="103" stroke="#172C51" stroke-width="1.33333" stroke-miterlimit="8" fill="#FFFFFF"/><text font-family="Calibri,Calibri_MSFontService,sans-serif" font-weight="400" font-size="13" transform="translate(419.338 407)">COMPRENDRE</text><text font-family="Calibri,Calibri_MSFontService,sans-serif" font-weight="700" font-size="13" transform="translate(407.424 431)">CodeAffiliation</text><text font-family="Calibri,Calibri_MSFontService,sans-serif" font-weight="700" font-size="13" transform="translate(407.424 447)">NumeroLicence</text><text font-family="Calibri,Calibri_MSFontService,sans-serif" font-weight="400" font-size="13" transform="translate(407.424 463)">DateAdhesion</text><rect x="185.5" y="411.5" width="153" height="169" stroke="#172C51" stroke-width="1.33333" stroke-miterlimit="8" fill="#FFFFFF"/><text font-family="Calibri,Calibri_MSFontService,sans-serif" font-weight="400" font-size="13" transform="translate(231.444 427)">ADHERENT</text><text font-family="Calibri,Calibri_MSFontService,sans-serif" font-weight="700" font-size="13" transform="translate(194.277 451)">NumeroLicence</text><text font-family="Calibri,Calibri_MSFontService,sans-serif" font-weight="400" font-size="13" transform="translate(194.277 467)">NomAdherent</text><text font-family="Calibri,Calibri_MSFontService,sans-serif" font-weight="400" font-size="13" transform="translate(194.277 483)">DateNaissanceAdherent</text><text font-family="Calibri,Calibri_MSFontService,sans-serif" font-weight="400" font-size="13" transform="translate(194.277 499)">AdresseRueAdherent</text><text font-family="Calibri,Calibri_MSFontService,sans-serif" font-weight="400" font-size="13" transform="translate(194.277 515)">Ville</text><text font-family="Calibri,Calibri_MSFontService,sans-serif" font-weight="400" font-size="13" transform="translate(217.444 515)">Adherent</text><text font-family="Calibri,Calibri_MSFontService,sans-serif" font-weight="400" font-size="13" transform="translate(194.277 531)">Telephone</text><text font-family="Calibri,Calibri_MSFontService,sans-serif" font-weight="400" font-size="13" transform="translate(251.777 531)">Adherent</text><text font-family="Calibri,Calibri_MSFontService,sans-serif" font-weight="400" font-size="13" transform="translate(194.277 547)">GradeAdheren</text><text font-family="Calibri,Calibri_MSFontService,sans-serif" font-weight="400" font-size="13" transform="translate(273.944 547)">t</text><path d="M192 77 217.41 77 217.41 145.481 216.41 144.481 234.153 144.481 234.153 146.481 215.41 146.481 215.41 78 216.41 79 192 79ZM232.819 141.481 240.819 145.481 232.819 149.481Z"/><path d="M536 225 554.975 225 554.975 312.4 553.975 311.4 565.284 311.4 565.284 313.4 552.975 313.4 552.975 226 553.975 227 536 227ZM563.95 308.4 571.95 312.4 563.95 316.4Z"/><path d="M0-1 29.8766-1 29.8766 5.17806 28.8766 4.17806 51.0865 4.17806 51.0865 6.17806 27.8766 6.17806 27.8766 0 28.8766 1 0 1ZM49.7532 1.17806 57.7532 5.17806 49.7532 9.17806Z" transform="matrix(-1 1.22465e-16 1.22465e-16 1 396.753 444)"/><path d="M0-1 32.2105-1 32.2105 101.741 31.2105 100.741 42.9542 100.741 42.9542 102.741 30.2105 102.741 30.2105 0 31.2105 1 0 1ZM41.6209 97.7406 49.6209 101.741 41.6209 105.741Z" transform="matrix(1 0 0 -1 522 423.741)"/><path d="M0-1 35.5214-1 35.5214 127.28 34.5214 126.28 62.3761 126.28 62.3761 128.28 33.5214 128.28 33.5214 0 34.5214 1 0 1ZM61.0427 123.28 69.0427 127.28 61.0427 131.28Z" transform="matrix(-1 1.22465e-16 1.22465e-16 1 765.043 191)"/><path d="M0-1 38.3004-1 38.3004 52.644 37.3004 51.644 67.9341 51.644 67.9341 53.644 36.3004 53.644 36.3004 0 37.3004 1 0 1ZM66.6007 48.644 74.6007 52.644 66.6007 56.644Z" transform="matrix(1 0 0 -1 695 445.644)"/><path d="M0-1 21.716-1 21.716 4.61386 20.716 3.61386 34.7654 3.61386 34.7654 5.61386 19.716 5.61386 19.716 0 20.716 1 0 1ZM33.432 0.613858 41.432 4.61386 33.432 8.61386Z" transform="matrix(-1 1.22465e-16 1.22465e-16 1 937.432 388)"/><path d="M1038 404 1057.64 404 1057.64 438.729 1056.64 437.729 1068.61 437.729 1068.61 439.729 1055.64 439.729 1055.64 405 1056.64 406 1038 406ZM1067.27 434.729 1075.27 438.729 1067.27 442.729Z"/><path d="M891 206 918.073 206 918.073 243.48 917.073 242.48 936.48 242.48 936.48 244.48 916.073 244.48 916.073 207 917.073 208 891 208ZM935.147 239.48 943.147 243.48 935.147 247.48Z"/><rect x="570.5" y="57.5001" width="130" height="29" stroke="#000000" stroke-width="1.33333" stroke-miterlimit="8" fill="#FFFFFF"/><text font-family="Calibri,Calibri_MSFontService,sans-serif" font-weight="400" font-size="24" transform="translate(610.904 79)">2014</text></g></svg>