<svg width="1280" height="720" xmlns="http://www.w3.org/2000/svg" xmlns:xlink="http://www.w3.org/1999/xlink" overflow="hidden"><defs><clipPath id="clip0"><rect x="0" y="0" width="1280" height="720"/></clipPath><clipPath id="clip1"><rect x="57" y="-43" width="175" height="202"/></clipPath><clipPath id="clip2"><rect x="57" y="-4" width="175" height="202"/></clipPath><clipPath id="clip3"><rect x="57" y="35" width="175" height="202"/></clipPath><clipPath id="clip4"><rect x="337" y="158" width="175" height="202"/></clipPath><clipPath id="clip5"><rect x="337" y="197" width="175" height="202"/></clipPath><clipPath id="clip6"><rect x="337" y="236" width="175" height="202"/></clipPath><clipPath id="clip7"><rect x="337" y="275" width="175" height="202"/></clipPath><clipPath id="clip8"><rect x="337" y="314" width="175" height="202"/></clipPath><clipPath id="clip9"><rect x="337" y="352" width="175" height="203"/></clipPath><clipPath id="clip10"><rect x="337" y="391" width="175" height="203"/></clipPath><clipPath id="clip11"><rect x="337" y="430" width="175" height="203"/></clipPath><clipPath id="clip12"><rect x="337" y="469" width="175" height="203"/></clipPath><clipPath id="clip13"><rect x="337" y="508" width="175" height="203"/></clipPath><clipPath id="clip14"><rect x="326" y="-43" width="175" height="203"/></clipPath><clipPath id="clip15"><rect x="326" y="-4" width="175" height="203"/></clipPath><clipPath id="clip16"><rect x="326" y="35" width="175" height="203"/></clipPath><clipPath id="clip17"><rect x="834" y="-37" width="175" height="202"/></clipPath><clipPath id="clip18"><rect x="834" y="2" width="175" height="202"/></clipPath><clipPath id="clip19"><rect x="834" y="41" width="175" height="202"/></clipPath><clipPath id="clip20"><rect x="834" y="79" width="175" height="203"/></clipPath><clipPath id="clip21"><rect x="834" y="118" width="175" height="203"/></clipPath><clipPath id="clip22"><rect x="834" y="157" width="175" height="203"/></clipPath><clipPath id="clip23"><rect x="834" y="196" width="175" height="203"/></clipPath><clipPath id="clip24"><rect x="834" y="235" width="175" height="203"/></clipPath><clipPath id="clip25"><rect x="834" y="274" width="175" height="203"/></clipPath><clipPath id="clip26"><rect x="1070" y="-39" width="176" height="202"/></clipPath><clipPath id="clip27"><rect x="1070" y="-1" width="176" height="203"/></clipPath><clipPath id="clip28"><rect x="1070" y="38" width="176" height="203"/></clipPath><clipPath id="clip29"><rect x="1070" y="77" width="176" height="203"/></clipPath><clipPath id="clip30"><rect x="1070" y="116" width="176" height="203"/></clipPath><clipPath id="clip31"><rect x="600" y="-39" width="175" height="203"/></clipPath><clipPath id="clip32"><rect x="600" y="0" width="175" height="203"/></clipPath><clipPath id="clip33"><rect x="600" y="39" width="175" height="203"/></clipPath><clipPath id="clip34"><rect x="600" y="78" width="175" height="203"/></clipPath><clipPath id="clip35"><rect x="600" y="117" width="175" height="202"/></clipPath><clipPath id="clip36"><rect x="600" y="156" width="175" height="202"/></clipPath><clipPath id="clip37"><rect x="600" y="195" width="175" height="202"/></clipPath></defs><g clip-path="url(#clip0)"><rect x="0" y="0" width="1280" height="720" fill="#FFFFFF"/><path d="M836 339.5C836 334.253 840.253 330 845.5 330 850.747 330 855 334.253 855 339.5 855 344.747 850.747 349 845.5 349 840.253 349 836 344.747 836 339.5Z" fill="#FFFFFF" fill-rule="evenodd"/><path d="M602 113.5C602 108.253 606.253 104 611.5 104 616.747 104 621 108.253 621 113.5 621 118.747 616.747 123 611.5 123 606.253 123 602 118.747 602 113.5Z" fill="#FFFFFF" fill-rule="evenodd"/><path d="M499 611.5C499 606.253 503.253 602 508.5 602 513.747 602 518 606.253 518 611.5 518 616.747 513.747 621 508.5 621 503.253 621 499 616.747 499 611.5Z" fill="#FFFFFF" fill-rule="evenodd"/><path d="M213 92.5C213 87.2533 217.253 83 222.5 83 227.747 83 232 87.2533 232 92.5 232 97.7467 227.747 102 222.5 102 217.253 102 213 97.7467 213 92.5Z" fill="#FFFFFF" fill-rule="evenodd"/><path d="M213 87.5C213 82.2533 217.253 78 222.5 78 227.747 78 232 82.2533 232 87.5 232 92.7467 227.747 97 222.5 97 217.253 97 213 92.7467 213 87.5Z" fill="#FFFFFF" fill-rule="evenodd"/><path d="M213 102.5C213 97.2533 217.253 93 222.5 93 227.747 93 232 97.2533 232 102.5 232 107.747 227.747 112 222.5 112 217.253 112 213 107.747 213 102.5Z" fill="#FFFFFF" fill-rule="evenodd"/><text font-family="Calibri Light,Calibri Light_MSFontService,sans-serif" font-weight="300" font-size="48" transform="translate(979.808 682)">2019 simplifié</text><path d="M992 372.5C992 367.253 996.029 363 1001 363 1005.97 363 1010 367.253 1010 372.5 1010 377.747 1005.97 382 1001 382 996.029 382 992 377.747 992 372.5Z" fill="#FFFFFF" fill-rule="evenodd"/><path d="M319 92.5C319 87.2533 323.253 83 328.5 83 333.747 83 338 87.2533 338 92.5 338 97.7467 333.747 102 328.5 102 323.253 102 319 97.7467 319 92.5Z" fill="#FFFFFF" fill-rule="evenodd"/><path d="M221 235C221 230.029 225.253 226 230.5 226 235.747 226 240 230.029 240 235 240 239.971 235.747 244 230.5 244 225.253 244 221 239.971 221 235Z" fill="#FFFFFF" fill-rule="evenodd"/><path d="M334 567.5C334 562.253 338.253 558 343.5 558 348.747 558 353 562.253 353 567.5 353 572.747 348.747 577 343.5 577 338.253 577 334 572.747 334 567.5Z" fill="#FFFFFF" fill-rule="evenodd"/><path d="M481 135.5C481 130.253 485.253 126 490.5 126 495.747 126 500 130.253 500 135.5 500 140.747 495.747 145 490.5 145 485.253 145 481 140.747 481 135.5Z" fill="#FFFFFF" fill-rule="evenodd"/><path d="M754 101.5C754 96.2533 758.253 92 763.5 92 768.747 92 773 96.2533 773 101.5 773 106.747 768.747 111 763.5 111 758.253 111 754 106.747 754 101.5Z" fill="#FFFFFF" fill-rule="evenodd"/><path d="M822 105.5C822 100.253 826.253 96 831.5 96 836.747 96 841 100.253 841 105.5 841 110.747 836.747 115 831.5 115 826.253 115 822 110.747 822 105.5Z" fill="#FFFFFF" fill-rule="evenodd"/><path d="M1071 101C1071 96.0294 1075.25 92 1080.5 92 1085.75 92 1090 96.0294 1090 101 1090 105.971 1085.75 110 1080.5 110 1075.25 110 1071 105.971 1071 101Z" fill="#FFFFFF" fill-rule="evenodd"/><path d="M603 99.5C603 94.2533 607.253 90 612.5 90 617.747 90 622 94.2533 622 99.5 622 104.747 617.747 109 612.5 109 607.253 109 603 104.747 603 99.5Z" fill="#FFFFFF" fill-rule="evenodd"/><path d="M1235 177.5C1235 172.253 1239.25 168 1244.5 168 1249.75 168 1254 172.253 1254 177.5 1254 182.747 1249.75 187 1244.5 187 1239.25 187 1235 182.747 1235 177.5Z" fill="#FFFFFF" fill-rule="evenodd"/><path d="M57.2121 38.8195 231.757 38.8195 231.757 77.7529 57.2121 77.7529Z" fill="#4472C4" fill-rule="evenodd"/><path d="M57.2121 77.7529 231.757 77.7529 231.757 116.686 57.2121 116.686Z" fill="#CFD5EA" fill-rule="evenodd"/><path d="M57.2121 116.686 231.757 116.686 231.757 155.62 57.2121 155.62Z" fill="#E9EBF5" fill-rule="evenodd"/><path d="M56.5454 77.7529 232.424 77.7529" stroke="#FFFFFF" stroke-width="4" stroke-linejoin="round" stroke-miterlimit="10" fill="none" fill-rule="evenodd"/><path d="M56.5454 116.686 232.424 116.686" stroke="#FFFFFF" stroke-width="1.33333" stroke-linejoin="round" stroke-miterlimit="10" fill="none" fill-rule="evenodd"/><path d="M57.2121 38.1529 57.2121 156.286" stroke="#FFFFFF" stroke-width="1.33333" stroke-linejoin="round" stroke-miterlimit="10" fill="none" fill-rule="evenodd"/><path d="M231.757 38.1529 231.757 156.286" stroke="#FFFFFF" stroke-width="1.33333" stroke-linejoin="round" stroke-miterlimit="10" fill="none" fill-rule="evenodd"/><path d="M56.5454 38.8195 232.424 38.8195" stroke="#FFFFFF" stroke-width="1.33333" stroke-linejoin="round" stroke-miterlimit="10" fill="none" fill-rule="evenodd"/><path d="M56.5454 155.62 232.424 155.62" stroke="#FFFFFF" stroke-width="1.33333" stroke-linejoin="round" stroke-miterlimit="10" fill="none" fill-rule="evenodd"/><g clip-path="url(#clip1)"><text fill="#FFFFFF" font-family="Calibri,Calibri_MSFontService,sans-serif" font-weight="700" font-size="24" transform="translate(66.8121 66)">SECTEUR</text></g><g clip-path="url(#clip2)"><text font-family="Calibri,Calibri_MSFontService,sans-serif" font-weight="700" font-size="24" transform="translate(66.8121 105)">NumSecteur</text></g><path d="M66.8121 107.553 97.5621 107.553 128.312 107.553 159.062 107.553 189.812 107.553 189.812 109.553 159.062 109.553 128.312 109.553 97.5621 109.553 66.8121 109.553Z" fill-rule="evenodd"/><g clip-path="url(#clip3)"><text font-family="Calibri,Calibri_MSFontService,sans-serif" font-weight="400" font-size="24" transform="translate(66.8121 143)">NomSecteur</text></g><path d="M337.068 239.905 511.613 239.905 511.613 278.838 337.068 278.838Z" fill="#4472C4" fill-rule="evenodd"/><path d="M337.068 278.838 511.613 278.838 511.613 317.771 337.068 317.771Z" fill="#CFD5EA" fill-rule="evenodd"/><path d="M337.068 317.771 511.613 317.771 511.613 356.705 337.068 356.705Z" fill="#E9EBF5" fill-rule="evenodd"/><path d="M337.068 356.705 511.613 356.705 511.613 395.638 337.068 395.638Z" fill="#CFD5EA" fill-rule="evenodd"/><path d="M337.068 395.638 511.613 395.638 511.613 434.571 337.068 434.571Z" fill="#E9EBF5" fill-rule="evenodd"/><path d="M337.068 434.571 511.613 434.571 511.613 473.505 337.068 473.505Z" fill="#CFD5EA" fill-rule="evenodd"/><path d="M337.068 473.505 511.613 473.505 511.613 512.438 337.068 512.438Z" fill="#E9EBF5" fill-rule="evenodd"/><path d="M337.068 512.438 511.613 512.438 511.613 551.371 337.068 551.371Z" fill="#CFD5EA" fill-rule="evenodd"/><path d="M337.068 551.371 511.613 551.371 511.613 590.305 337.068 590.305Z" fill="#E9EBF5" fill-rule="evenodd"/><path d="M337.068 590.305 511.613 590.305 511.613 629.238 337.068 629.238Z" fill="#CFD5EA" fill-rule="evenodd"/><path d="M336.401 278.838 512.28 278.838" stroke="#FFFFFF" stroke-width="4" stroke-linejoin="round" stroke-miterlimit="10" fill="none" fill-rule="evenodd"/><path d="M336.401 317.771 512.28 317.771" stroke="#FFFFFF" stroke-width="1.33333" stroke-linejoin="round" stroke-miterlimit="10" fill="none" fill-rule="evenodd"/><path d="M336.401 356.705 512.28 356.705" stroke="#FFFFFF" stroke-width="1.33333" stroke-linejoin="round" stroke-miterlimit="10" fill="none" fill-rule="evenodd"/><path d="M336.401 395.638 512.28 395.638" stroke="#FFFFFF" stroke-width="1.33333" stroke-linejoin="round" stroke-miterlimit="10" fill="none" fill-rule="evenodd"/><path d="M336.401 434.571 512.28 434.571" stroke="#FFFFFF" stroke-width="1.33333" stroke-linejoin="round" stroke-miterlimit="10" fill="none" fill-rule="evenodd"/><path d="M336.401 473.505 512.28 473.505" stroke="#FFFFFF" stroke-width="1.33333" stroke-linejoin="round" stroke-miterlimit="10" fill="none" fill-rule="evenodd"/><path d="M336.401 512.438 512.28 512.438" stroke="#FFFFFF" stroke-width="1.33333" stroke-linejoin="round" stroke-miterlimit="10" fill="none" fill-rule="evenodd"/><path d="M336.401 551.371 512.28 551.371" stroke="#FFFFFF" stroke-width="1.33333" stroke-linejoin="round" stroke-miterlimit="10" fill="none" fill-rule="evenodd"/><path d="M336.401 590.305 512.28 590.305" stroke="#FFFFFF" stroke-width="1.33333" stroke-linejoin="round" stroke-miterlimit="10" fill="none" fill-rule="evenodd"/><path d="M337.068 239.238 337.068 629.905" stroke="#FFFFFF" stroke-width="1.33333" stroke-linejoin="round" stroke-miterlimit="10" fill="none" fill-rule="evenodd"/><path d="M511.613 239.238 511.613 629.905" stroke="#FFFFFF" stroke-width="1.33333" stroke-linejoin="round" stroke-miterlimit="10" fill="none" fill-rule="evenodd"/><path d="M336.401 239.905 512.28 239.905" stroke="#FFFFFF" stroke-width="1.33333" stroke-linejoin="round" stroke-miterlimit="10" fill="none" fill-rule="evenodd"/><path d="M336.401 629.238 512.28 629.238" stroke="#FFFFFF" stroke-width="1.33333" stroke-linejoin="round" stroke-miterlimit="10" fill="none" fill-rule="evenodd"/><g clip-path="url(#clip4)"><text fill="#FFFFFF" font-family="Calibri,Calibri_MSFontService,sans-serif" font-weight="700" font-size="24" transform="translate(346.668 267)">EMPLOYE</text></g><g clip-path="url(#clip5)"><text font-family="Calibri,Calibri_MSFontService,sans-serif" font-weight="700" font-size="24" transform="translate(346.668 306)">CodeEmp</text></g><path d="M346.668 308.638 378.001 308.638 409.334 308.638 440.668 308.638 440.668 310.638 409.334 310.638 378.001 310.638 346.668 310.638Z" fill-rule="evenodd"/><g clip-path="url(#clip6)"><text font-family="Calibri,Calibri_MSFontService,sans-serif" font-weight="400" font-size="24" transform="translate(346.668 345)">NomEmp</text></g><g clip-path="url(#clip7)"><text font-family="Calibri,Calibri_MSFontService,sans-serif" font-weight="400" font-size="24" transform="translate(346.668 384)">PrénomEmp</text></g><g clip-path="url(#clip8)"><text font-family="Calibri,Calibri_MSFontService,sans-serif" font-weight="400" font-size="24" transform="translate(346.668 422)">RueEmp</text></g><g clip-path="url(#clip9)"><text font-family="Calibri,Calibri_MSFontService,sans-serif" font-weight="400" font-size="24" transform="translate(346.668 461)">VilleEmp</text></g><g clip-path="url(#clip10)"><text font-family="Calibri,Calibri_MSFontService,sans-serif" font-weight="400" font-size="24" transform="translate(346.668 500)">CodePostalEmp</text></g><g clip-path="url(#clip11)"><text font-family="Calibri,Calibri_MSFontService,sans-serif" font-weight="400" font-size="24" transform="translate(346.668 539)">Salaire</text></g><g clip-path="url(#clip12)"><text font-family="Calibri,Calibri_MSFontService,sans-serif" font-weight="400" font-size="24" transform="translate(346.668 578)">NumSecteur</text></g><g clip-path="url(#clip13)"><text font-family="Calibri,Calibri_MSFontService,sans-serif" font-weight="400" font-size="24" transform="translate(346.668 617)">NumHotel</text></g><path d="M326.207 39.5953 500.752 39.5953 500.752 78.5286 326.207 78.5286Z" fill="#4472C4" fill-rule="evenodd"/><path d="M326.207 78.5286 500.752 78.5286 500.752 117.462 326.207 117.462Z" fill="#CFD5EA" fill-rule="evenodd"/><path d="M326.207 117.462 500.752 117.462 500.752 156.395 326.207 156.395Z" fill="#E9EBF5" fill-rule="evenodd"/><path d="M325.54 78.5286 501.419 78.5286" stroke="#FFFFFF" stroke-width="4" stroke-linejoin="round" stroke-miterlimit="10" fill="none" fill-rule="evenodd"/><path d="M325.54 117.462 501.419 117.462" stroke="#FFFFFF" stroke-width="1.33333" stroke-linejoin="round" stroke-miterlimit="10" fill="none" fill-rule="evenodd"/><path d="M326.207 38.9286 326.207 157.062" stroke="#FFFFFF" stroke-width="1.33333" stroke-linejoin="round" stroke-miterlimit="10" fill="none" fill-rule="evenodd"/><path d="M500.752 38.9286 500.752 157.062" stroke="#FFFFFF" stroke-width="1.33333" stroke-linejoin="round" stroke-miterlimit="10" fill="none" fill-rule="evenodd"/><path d="M325.54 39.5953 501.419 39.5953" stroke="#FFFFFF" stroke-width="1.33333" stroke-linejoin="round" stroke-miterlimit="10" fill="none" fill-rule="evenodd"/><path d="M325.54 156.395 501.419 156.395" stroke="#FFFFFF" stroke-width="1.33333" stroke-linejoin="round" stroke-miterlimit="10" fill="none" fill-rule="evenodd"/><g clip-path="url(#clip14)"><text fill="#FFFFFF" font-family="Calibri,Calibri_MSFontService,sans-serif" font-weight="700" font-size="24" transform="translate(335.807 66)">CONCERNER</text></g><g clip-path="url(#clip15)"><text font-family="Calibri,Calibri_MSFontService,sans-serif" font-weight="700" font-size="24" transform="translate(335.807 105)">NumSecteur</text></g><path d="M335.807 108.329 366.557 108.329 397.307 108.329 428.057 108.329 458.807 108.329 458.807 110.329 428.057 110.329 397.307 110.329 366.557 110.329 335.807 110.329Z" fill-rule="evenodd"/><g clip-path="url(#clip16)"><text font-family="Calibri,Calibri_MSFontService,sans-serif" font-weight="700" font-size="24" transform="translate(335.807 144)">NumHotel</text></g><path d="M335.807 147.262 369.807 147.262 403.807 147.262 437.807 147.262 437.807 149.262 403.807 149.262 369.807 149.262 335.807 149.262Z" fill-rule="evenodd"/><path d="M834.152 44.76 1008.7 44.76 1008.7 83.6933 834.152 83.6933Z" fill="#4472C4" fill-rule="evenodd"/><path d="M834.152 83.6933 1008.7 83.6933 1008.7 122.627 834.152 122.627Z" fill="#CFD5EA" fill-rule="evenodd"/><path d="M834.152 122.627 1008.7 122.627 1008.7 161.56 834.152 161.56Z" fill="#E9EBF5" fill-rule="evenodd"/><path d="M834.152 161.56 1008.7 161.56 1008.7 200.493 834.152 200.493Z" fill="#CFD5EA" fill-rule="evenodd"/><path d="M834.152 200.493 1008.7 200.493 1008.7 239.427 834.152 239.427Z" fill="#E9EBF5" fill-rule="evenodd"/><path d="M834.152 239.427 1008.7 239.427 1008.7 278.36 834.152 278.36Z" fill="#CFD5EA" fill-rule="evenodd"/><path d="M834.152 278.36 1008.7 278.36 1008.7 317.293 834.152 317.293Z" fill="#E9EBF5" fill-rule="evenodd"/><path d="M834.152 317.293 1008.7 317.293 1008.7 356.227 834.152 356.227Z" fill="#CFD5EA" fill-rule="evenodd"/><path d="M834.152 356.227 1008.7 356.227 1008.7 395.16 834.152 395.16Z" fill="#E9EBF5" fill-rule="evenodd"/><path d="M833.485 83.6933 1009.36 83.6933" stroke="#FFFFFF" stroke-width="4" stroke-linejoin="round" stroke-miterlimit="10" fill="none" fill-rule="evenodd"/><path d="M833.485 122.627 1009.36 122.627" stroke="#FFFFFF" stroke-width="1.33333" stroke-linejoin="round" stroke-miterlimit="10" fill="none" fill-rule="evenodd"/><path d="M833.485 161.56 1009.36 161.56" stroke="#FFFFFF" stroke-width="1.33333" stroke-linejoin="round" stroke-miterlimit="10" fill="none" fill-rule="evenodd"/><path d="M833.485 200.493 1009.36 200.493" stroke="#FFFFFF" stroke-width="1.33333" stroke-linejoin="round" stroke-miterlimit="10" fill="none" fill-rule="evenodd"/><path d="M833.485 239.427 1009.36 239.427" stroke="#FFFFFF" stroke-width="1.33333" stroke-linejoin="round" stroke-miterlimit="10" fill="none" fill-rule="evenodd"/><path d="M833.485 278.36 1009.36 278.36" stroke="#FFFFFF" stroke-width="1.33333" stroke-linejoin="round" stroke-miterlimit="10" fill="none" fill-rule="evenodd"/><path d="M833.485 317.293 1009.36 317.293" stroke="#FFFFFF" stroke-width="1.33333" stroke-linejoin="round" stroke-miterlimit="10" fill="none" fill-rule="evenodd"/><path d="M833.485 356.227 1009.36 356.227" stroke="#FFFFFF" stroke-width="1.33333" stroke-linejoin="round" stroke-miterlimit="10" fill="none" fill-rule="evenodd"/><path d="M834.152 44.0933 834.152 395.827" stroke="#FFFFFF" stroke-width="1.33333" stroke-linejoin="round" stroke-miterlimit="10" fill="none" fill-rule="evenodd"/><path d="M1008.7 44.0933 1008.7 395.827" stroke="#FFFFFF" stroke-width="1.33333" stroke-linejoin="round" stroke-miterlimit="10" fill="none" fill-rule="evenodd"/><path d="M833.485 44.76 1009.36 44.76" stroke="#FFFFFF" stroke-width="1.33333" stroke-linejoin="round" stroke-miterlimit="10" fill="none" fill-rule="evenodd"/><path d="M833.485 395.16 1009.36 395.16" stroke="#FFFFFF" stroke-width="1.33333" stroke-linejoin="round" stroke-miterlimit="10" fill="none" fill-rule="evenodd"/><g clip-path="url(#clip17)"><text fill="#FFFFFF" font-family="Calibri,Calibri_MSFontService,sans-serif" font-weight="700" font-size="24" transform="translate(843.752 72)">LODGE</text></g><g clip-path="url(#clip18)"><text font-family="Calibri,Calibri_MSFontService,sans-serif" font-weight="700" font-size="24" transform="translate(843.752 110)">NumLodge</text></g><path d="M843.752 113.493 879.419 113.493 915.085 113.493 950.752 113.493 950.752 115.493 915.085 115.493 879.419 115.493 843.752 115.493Z" fill-rule="evenodd"/><g clip-path="url(#clip19)"><text font-family="Calibri,Calibri_MSFontService,sans-serif" font-weight="400" font-size="24" transform="translate(843.752 149)">NomLodge</text></g><g clip-path="url(#clip20)"><text font-family="Calibri,Calibri_MSFontService,sans-serif" font-weight="400" font-size="24" transform="translate(843.752 188)">CapacitéAccueil</text></g><g clip-path="url(#clip21)"><text font-family="Calibri,Calibri_MSFontService,sans-serif" font-weight="400" font-size="24" transform="translate(843.752 227)">NbPièces</text></g><g clip-path="url(#clip22)"><text font-family="Calibri,Calibri_MSFontService,sans-serif" font-weight="400" font-size="24" transform="translate(843.752 266)">NbLitsSimples</text></g><g clip-path="url(#clip23)"><text font-family="Calibri,Calibri_MSFontService,sans-serif" font-weight="400" font-size="24" transform="translate(843.752 305)">NbLitsDoubles</text></g><g clip-path="url(#clip24)"><text font-family="Calibri,Calibri_MSFontService,sans-serif" font-weight="400" font-size="24" transform="translate(843.752 344)">NumHotel</text></g><g clip-path="url(#clip25)"><text font-family="Calibri,Calibri_MSFontService,sans-serif" font-weight="400" font-size="24" transform="translate(843.752 383)">CodeType</text></g><path d="M1070.55 42.6619 1245.09 42.6619 1245.09 81.5953 1070.55 81.5953Z" fill="#4472C4" fill-rule="evenodd"/><path d="M1070.55 81.5953 1245.09 81.5953 1245.09 120.529 1070.55 120.529Z" fill="#CFD5EA" fill-rule="evenodd"/><path d="M1070.55 120.529 1245.09 120.529 1245.09 159.462 1070.55 159.462Z" fill="#E9EBF5" fill-rule="evenodd"/><path d="M1070.55 159.462 1245.09 159.462 1245.09 198.395 1070.55 198.395Z" fill="#CFD5EA" fill-rule="evenodd"/><path d="M1070.55 198.395 1245.09 198.395 1245.09 237.329 1070.55 237.329Z" fill="#E9EBF5" fill-rule="evenodd"/><path d="M1069.88 81.5953 1245.76 81.5953" stroke="#FFFFFF" stroke-width="4" stroke-linejoin="round" stroke-miterlimit="10" fill="none" fill-rule="evenodd"/><path d="M1069.88 120.529 1245.76 120.529" stroke="#FFFFFF" stroke-width="1.33333" stroke-linejoin="round" stroke-miterlimit="10" fill="none" fill-rule="evenodd"/><path d="M1069.88 159.462 1245.76 159.462" stroke="#FFFFFF" stroke-width="1.33333" stroke-linejoin="round" stroke-miterlimit="10" fill="none" fill-rule="evenodd"/><path d="M1069.88 198.395 1245.76 198.395" stroke="#FFFFFF" stroke-width="1.33333" stroke-linejoin="round" stroke-miterlimit="10" fill="none" fill-rule="evenodd"/><path d="M1070.55 41.9953 1070.55 237.995" stroke="#FFFFFF" stroke-width="1.33333" stroke-linejoin="round" stroke-miterlimit="10" fill="none" fill-rule="evenodd"/><path d="M1245.09 41.9953 1245.09 237.995" stroke="#FFFFFF" stroke-width="1.33333" stroke-linejoin="round" stroke-miterlimit="10" fill="none" fill-rule="evenodd"/><path d="M1069.88 42.6619 1245.76 42.6619" stroke="#FFFFFF" stroke-width="1.33333" stroke-linejoin="round" stroke-miterlimit="10" fill="none" fill-rule="evenodd"/><path d="M1069.88 237.329 1245.76 237.329" stroke="#FFFFFF" stroke-width="1.33333" stroke-linejoin="round" stroke-miterlimit="10" fill="none" fill-rule="evenodd"/><g clip-path="url(#clip26)"><text fill="#FFFFFF" font-family="Calibri,Calibri_MSFontService,sans-serif" font-weight="700" font-size="24" transform="translate(1080.15 69)">Type</text></g><g clip-path="url(#clip27)"><text font-family="Calibri,Calibri_MSFontService,sans-serif" font-weight="700" font-size="24" transform="translate(1080.15 108)">CodeType</text></g><path d="M1080.15 111.395 1112.81 111.395 1145.48 111.395 1178.15 111.395 1178.15 113.395 1145.48 113.395 1112.81 113.395 1080.15 113.395Z" fill-rule="evenodd"/><g clip-path="url(#clip28)"><text font-family="Calibri,Calibri_MSFontService,sans-serif" font-weight="400" font-size="24" transform="translate(1080.15 147)">LibelléType</text></g><g clip-path="url(#clip29)"><text font-family="Calibri,Calibri_MSFontService,sans-serif" font-weight="400" font-size="24" transform="translate(1080.15 186)">TarifSemaine</text></g><g clip-path="url(#clip30)"><text font-family="Calibri,Calibri_MSFontService,sans-serif" font-weight="400" font-size="24" transform="translate(1080.15 225)">TarifNuitée</text></g><path d="M600.243 43.2279 774.788 43.2279 774.788 82.1613 600.243 82.1613Z" fill="#4472C4" fill-rule="evenodd"/><path d="M600.243 82.1613 774.788 82.1613 774.788 121.095 600.243 121.095Z" fill="#CFD5EA" fill-rule="evenodd"/><path d="M600.243 121.095 774.788 121.095 774.788 160.028 600.243 160.028Z" fill="#E9EBF5" fill-rule="evenodd"/><path d="M600.243 160.028 774.788 160.028 774.788 198.961 600.243 198.961Z" fill="#CFD5EA" fill-rule="evenodd"/><path d="M600.243 198.961 774.788 198.961 774.788 237.895 600.243 237.895Z" fill="#E9EBF5" fill-rule="evenodd"/><path d="M600.243 237.895 774.788 237.895 774.788 276.828 600.243 276.828Z" fill="#CFD5EA" fill-rule="evenodd"/><path d="M600.243 276.828 774.788 276.828 774.788 315.761 600.243 315.761Z" fill="#E9EBF5" fill-rule="evenodd"/><path d="M599.576 82.1613 775.455 82.1613" stroke="#FFFFFF" stroke-width="4" stroke-linejoin="round" stroke-miterlimit="10" fill="none" fill-rule="evenodd"/><path d="M599.576 121.095 775.455 121.095" stroke="#FFFFFF" stroke-width="1.33333" stroke-linejoin="round" stroke-miterlimit="10" fill="none" fill-rule="evenodd"/><path d="M599.576 160.028 775.455 160.028" stroke="#FFFFFF" stroke-width="1.33333" stroke-linejoin="round" stroke-miterlimit="10" fill="none" fill-rule="evenodd"/><path d="M599.576 198.961 775.455 198.961" stroke="#FFFFFF" stroke-width="1.33333" stroke-linejoin="round" stroke-miterlimit="10" fill="none" fill-rule="evenodd"/><path d="M599.576 237.895 775.455 237.895" stroke="#FFFFFF" stroke-width="1.33333" stroke-linejoin="round" stroke-miterlimit="10" fill="none" fill-rule="evenodd"/><path d="M599.576 276.828 775.455 276.828" stroke="#FFFFFF" stroke-width="1.33333" stroke-linejoin="round" stroke-miterlimit="10" fill="none" fill-rule="evenodd"/><path d="M600.243 42.5613 600.243 316.428" stroke="#FFFFFF" stroke-width="1.33333" stroke-linejoin="round" stroke-miterlimit="10" fill="none" fill-rule="evenodd"/><path d="M774.788 42.5613 774.788 316.428" stroke="#FFFFFF" stroke-width="1.33333" stroke-linejoin="round" stroke-miterlimit="10" fill="none" fill-rule="evenodd"/><path d="M599.576 43.2279 775.455 43.2279" stroke="#FFFFFF" stroke-width="1.33333" stroke-linejoin="round" stroke-miterlimit="10" fill="none" fill-rule="evenodd"/><path d="M599.576 315.761 775.455 315.761" stroke="#FFFFFF" stroke-width="1.33333" stroke-linejoin="round" stroke-miterlimit="10" fill="none" fill-rule="evenodd"/><g clip-path="url(#clip31)"><text fill="#FFFFFF" font-family="Calibri,Calibri_MSFontService,sans-serif" font-weight="700" font-size="24" transform="translate(609.843 70)">HOTEL</text></g><g clip-path="url(#clip32)"><text font-family="Calibri,Calibri_MSFontService,sans-serif" font-weight="700" font-size="24" transform="translate(609.843 109)">NumHotel</text></g><path d="M609.843 111.961 643.843 111.961 677.843 111.961 711.843 111.961 711.843 113.961 677.843 113.961 643.843 113.961 609.843 113.961Z" fill-rule="evenodd"/><g clip-path="url(#clip33)"><text font-family="Calibri,Calibri_MSFontService,sans-serif" font-weight="400" font-size="24" transform="translate(609.843 148)">NomHotel</text></g><g clip-path="url(#clip34)"><text font-family="Calibri,Calibri_MSFontService,sans-serif" font-weight="400" font-size="24" transform="translate(609.843 187)">NbEtoiles</text></g><g clip-path="url(#clip35)"><text font-family="Calibri,Calibri_MSFontService,sans-serif" font-weight="400" font-size="24" transform="translate(609.843 226)">RueHotel</text></g><g clip-path="url(#clip36)"><text font-family="Calibri,Calibri_MSFontService,sans-serif" font-weight="400" font-size="24" transform="translate(609.843 265)">CPHotel</text></g><g clip-path="url(#clip37)"><text font-family="Calibri,Calibri_MSFontService,sans-serif" font-weight="400" font-size="24" transform="translate(609.843 304)">VilleHotel</text></g><path d="M0-1.5 45.1717-1.5 45.1717 0.268871 43.6717-1.23113 79.8434-1.23113 79.8434 1.76887 42.1717 1.76887 42.1717 0 43.6717 1.5 0 1.5ZM78.3434-4.23113 87.3434 0.268871 78.3434 4.76887Z" fill="#4472C4" transform="matrix(-1 1.22465e-16 1.22465e-16 1 319.843 92.5001)"/><path d="M334.238 569.56 281.869 569.56 281.869 102.5 283.369 104 240 104 240 101 284.869 101 284.869 568.06 283.369 566.56 334.238 566.56ZM241.5 107 232.5 102.5 241.5 98.0001Z" fill="#4472C4"/><path d="M836.493 341.522 803.496 341.522 803.496 102.5 804.996 104 781 104 781 101 806.496 101 806.496 340.022 804.996 338.522 836.493 338.522ZM782.5 107 773.5 102.5 782.5 98Z" fill="#4472C4"/><path d="M0-1.5 31.9704-1.5 31.9704 271.455 30.4704 269.955 53.4406 269.955 53.4406 272.955 28.9704 272.955 28.9704 0 30.4704 1.5 0 1.5ZM51.9406 266.955 60.9406 271.455 51.9406 275.955Z" fill="#4472C4" transform="matrix(1 0 0 -1 1010.5 372.955)"/><path d="M0-1.5 52.9542-1.5 52.9542 35.2663 51.4542 33.7663 95.4084 33.7663 95.4084 36.7663 49.9542 36.7663 49.9542 0 51.4542 1.5 0 1.5ZM93.9083 30.7663 102.908 35.2663 93.9083 39.7663Z" fill="#4472C4" transform="matrix(1 0 0 -1 500.5 135.766)"/><path d="M0-1.5 43.8859-1.5 43.8859 497.938 42.3859 496.438 77.2712 496.438 77.2712 499.438 40.8859 499.438 40.8859 0 42.3859 1.5 0 1.5ZM75.7712 493.438 84.7712 497.938 75.7712 502.438Z" fill="#4472C4" transform="matrix(1 0 0 -1 518.5 611.438)"/></g></svg>