<svg width="1280" height="720" xmlns="http://www.w3.org/2000/svg" xmlns:xlink="http://www.w3.org/1999/xlink" overflow="hidden"><defs><clipPath id="clip0"><rect x="0" y="0" width="1280" height="720"/></clipPath><clipPath id="clip1"><rect x="57" y="83" width="175" height="202"/></clipPath><clipPath id="clip2"><rect x="57" y="122" width="175" height="202"/></clipPath><clipPath id="clip3"><rect x="57" y="160" width="175" height="203"/></clipPath><clipPath id="clip4"><rect x="57" y="199" width="175" height="203"/></clipPath><clipPath id="clip5"><rect x="621" y="386" width="176" height="203"/></clipPath><clipPath id="clip6"><rect x="621" y="425" width="176" height="203"/></clipPath><clipPath id="clip7"><rect x="621" y="464" width="176" height="203"/></clipPath><clipPath id="clip8"><rect x="621" y="503" width="176" height="203"/></clipPath><clipPath id="clip9"><rect x="343" y="85" width="175" height="203"/></clipPath><clipPath id="clip10"><rect x="343" y="124" width="175" height="203"/></clipPath><clipPath id="clip11"><rect x="343" y="163" width="175" height="203"/></clipPath><clipPath id="clip12"><rect x="343" y="202" width="175" height="203"/></clipPath><clipPath id="clip13"><rect x="343" y="155" width="175" height="404"/></clipPath><clipPath id="clip14"><rect x="343" y="155" width="175" height="404"/></clipPath><clipPath id="clip15"><rect x="343" y="308" width="175" height="203"/></clipPath><clipPath id="clip16"><rect x="343" y="347" width="175" height="203"/></clipPath><clipPath id="clip17"><rect x="826" y="107" width="176" height="202"/></clipPath><clipPath id="clip18"><rect x="826" y="146" width="176" height="202"/></clipPath><clipPath id="clip19"><rect x="826" y="185" width="176" height="202"/></clipPath><clipPath id="clip20"><rect x="1070" y="105" width="176" height="202"/></clipPath><clipPath id="clip21"><rect x="1070" y="143" width="176" height="203"/></clipPath><clipPath id="clip22"><rect x="1070" y="182" width="176" height="203"/></clipPath><clipPath id="clip23"><rect x="1070" y="221" width="176" height="203"/></clipPath><clipPath id="clip24"><rect x="600" y="97" width="175" height="202"/></clipPath><clipPath id="clip25"><rect x="600" y="136" width="175" height="202"/></clipPath><clipPath id="clip26"><rect x="600" y="174" width="175" height="203"/></clipPath><clipPath id="clip27"><rect x="600" y="213" width="175" height="203"/></clipPath></defs><g clip-path="url(#clip0)"><rect x="0" y="0" width="1280" height="720" fill="#FFFFFF"/><path d="M995 244.5C995 239.253 999.253 235 1004.5 235 1009.75 235 1014 239.253 1014 244.5 1014 249.747 1009.75 254 1004.5 254 999.253 254 995 249.747 995 244.5Z" fill="#FFFFFF" fill-rule="evenodd"/><path d="M220 221.5C220 216.253 224.253 212 229.5 212 234.747 212 239 216.253 239 221.5 239 226.747 234.747 231 229.5 231 224.253 231 220 226.747 220 221.5Z" fill="#FFFFFF" fill-rule="evenodd"/><path d="M331 449.5C331 444.253 335.253 440 340.5 440 345.747 440 350 444.253 350 449.5 350 454.747 345.747 459 340.5 459 335.253 459 331 454.747 331 449.5Z" fill="#FFFFFF" fill-rule="evenodd"/><path d="M506 408C506 403.029 510.253 399 515.5 399 520.747 399 525 403.029 525 408 525 412.971 520.747 417 515.5 417 510.253 417 506 412.971 506 408Z" fill="#FFFFFF" fill-rule="evenodd"/><path d="M609 522.5C609 517.253 613.253 513 618.5 513 623.747 513 628 517.253 628 522.5 628 527.747 623.747 532 618.5 532 613.253 532 609 527.747 609 522.5Z" fill="#FFFFFF" fill-rule="evenodd"/><path d="M588 237.5C588 232.253 592.253 228 597.5 228 602.747 228 607 232.253 607 237.5 607 242.747 602.747 247 597.5 247 592.253 247 588 242.747 588 237.5Z" fill="#FFFFFF" fill-rule="evenodd"/><path d="M757 272.5C757 267.253 761.253 263 766.5 263 771.747 263 776 267.253 776 272.5 776 277.747 771.747 282 766.5 282 761.253 282 757 277.747 757 272.5Z" fill="#FFFFFF" fill-rule="evenodd"/><path d="M815 249.5C815 244.253 819.029 240 824 240 828.971 240 833 244.253 833 249.5 833 254.747 828.971 259 824 259 819.029 259 815 254.747 815 249.5Z" fill="#FFFFFF" fill-rule="evenodd"/><path d="M1058 321.5C1058 316.253 1062.25 312 1067.5 312 1072.75 312 1077 316.253 1077 321.5 1077 326.747 1072.75 331 1067.5 331 1062.25 331 1058 326.747 1058 321.5Z" fill="#FFFFFF" fill-rule="evenodd"/><path d="M506 223.5C506 218.253 510.253 214 515.5 214 520.747 214 525 218.253 525 223.5 525 228.747 520.747 233 515.5 233 510.253 233 506 228.747 506 223.5Z" fill="#FFFFFF" fill-rule="evenodd"/><path d="M1235 321.5C1235 316.253 1239.25 312 1244.5 312 1249.75 312 1254 316.253 1254 321.5 1254 326.747 1249.75 331 1244.5 331 1239.25 331 1235 326.747 1235 321.5Z" fill="#FFFFFF" fill-rule="evenodd"/><path d="M57.2121 164.686 231.757 164.686 231.757 203.62 57.2121 203.62Z" fill="#4472C4" fill-rule="evenodd"/><path d="M57.2121 203.62 231.757 203.62 231.757 242.553 57.2121 242.553Z" fill="#CFD5EA" fill-rule="evenodd"/><path d="M57.2121 242.553 231.757 242.553 231.757 281.486 57.2121 281.486Z" fill="#E9EBF5" fill-rule="evenodd"/><path d="M57.2121 281.486 231.757 281.486 231.757 320.419 57.2121 320.419Z" fill="#CFD5EA" fill-rule="evenodd"/><path d="M56.5454 203.62 232.424 203.62" stroke="#FFFFFF" stroke-width="4" stroke-linejoin="round" stroke-miterlimit="10" fill="none" fill-rule="evenodd"/><path d="M56.5454 242.553 232.424 242.553" stroke="#FFFFFF" stroke-width="1.33333" stroke-linejoin="round" stroke-miterlimit="10" fill="none" fill-rule="evenodd"/><path d="M56.5454 281.486 232.424 281.486" stroke="#FFFFFF" stroke-width="1.33333" stroke-linejoin="round" stroke-miterlimit="10" fill="none" fill-rule="evenodd"/><path d="M57.2121 164.02 57.2121 321.086" stroke="#FFFFFF" stroke-width="1.33333" stroke-linejoin="round" stroke-miterlimit="10" fill="none" fill-rule="evenodd"/><path d="M231.757 164.02 231.757 321.086" stroke="#FFFFFF" stroke-width="1.33333" stroke-linejoin="round" stroke-miterlimit="10" fill="none" fill-rule="evenodd"/><path d="M56.5454 164.686 232.424 164.686" stroke="#FFFFFF" stroke-width="1.33333" stroke-linejoin="round" stroke-miterlimit="10" fill="none" fill-rule="evenodd"/><path d="M56.5454 320.419 232.424 320.419" stroke="#FFFFFF" stroke-width="1.33333" stroke-linejoin="round" stroke-miterlimit="10" fill="none" fill-rule="evenodd"/><g clip-path="url(#clip1)"><text fill="#FFFFFF" font-family="Calibri,Calibri_MSFontService,sans-serif" font-weight="700" font-size="24" transform="translate(66.8121 191)">GROUPE</text></g><g clip-path="url(#clip2)"><text font-family="Calibri,Calibri_MSFontService,sans-serif" font-weight="400" font-size="24" transform="translate(66.8121 230)">GrpCode</text></g><path d="M66.8121 233.42 95.4787 233.42 124.145 233.42 152.812 233.42 152.812 235.42 124.145 235.42 95.4787 235.42 66.8121 235.42Z" fill-rule="evenodd"/><g clip-path="url(#clip3)"><text font-family="Calibri,Calibri_MSFontService,sans-serif" font-weight="400" font-size="24" transform="translate(66.8121 269)">GrpNom</text></g><g clip-path="url(#clip4)"><text font-family="Calibri,Calibri_MSFontService,sans-serif" font-weight="400" font-size="24" transform="translate(66.8121 308)">PersNum</text></g><path d="M621.505 468.395 796.05 468.395 796.05 507.329 621.505 507.329Z" fill="#4472C4" fill-rule="evenodd"/><path d="M621.505 507.329 796.05 507.329 796.05 546.262 621.505 546.262Z" fill="#CFD5EA" fill-rule="evenodd"/><path d="M621.505 546.262 796.05 546.262 796.05 585.195 621.505 585.195Z" fill="#E9EBF5" fill-rule="evenodd"/><path d="M621.505 585.195 796.05 585.195 796.05 624.129 621.505 624.129Z" fill="#CFD5EA" fill-rule="evenodd"/><path d="M620.838 507.329 796.717 507.329" stroke="#FFFFFF" stroke-width="4" stroke-linejoin="round" stroke-miterlimit="10" fill="none" fill-rule="evenodd"/><path d="M620.838 546.262 796.717 546.262" stroke="#FFFFFF" stroke-width="1.33333" stroke-linejoin="round" stroke-miterlimit="10" fill="none" fill-rule="evenodd"/><path d="M620.838 585.195 796.717 585.195" stroke="#FFFFFF" stroke-width="1.33333" stroke-linejoin="round" stroke-miterlimit="10" fill="none" fill-rule="evenodd"/><path d="M621.505 467.729 621.505 624.795" stroke="#FFFFFF" stroke-width="1.33333" stroke-linejoin="round" stroke-miterlimit="10" fill="none" fill-rule="evenodd"/><path d="M796.05 467.729 796.05 624.795" stroke="#FFFFFF" stroke-width="1.33333" stroke-linejoin="round" stroke-miterlimit="10" fill="none" fill-rule="evenodd"/><path d="M620.838 468.395 796.717 468.395" stroke="#FFFFFF" stroke-width="1.33333" stroke-linejoin="round" stroke-miterlimit="10" fill="none" fill-rule="evenodd"/><path d="M620.838 624.129 796.717 624.129" stroke="#FFFFFF" stroke-width="1.33333" stroke-linejoin="round" stroke-miterlimit="10" fill="none" fill-rule="evenodd"/><g clip-path="url(#clip5)"><text fill="#FFFFFF" font-family="Calibri,Calibri_MSFontService,sans-serif" font-weight="700" font-size="24" transform="translate(631.105 495)">POSTE</text></g><g clip-path="url(#clip6)"><text font-family="Calibri,Calibri_MSFontService,sans-serif" font-weight="400" font-size="24" transform="translate(631.105 534)">PstCode</text></g><path d="M631.105 537.129 657.438 537.129 683.772 537.129 710.105 537.129 710.105 539.129 683.772 539.129 657.438 539.129 631.105 539.129Z" fill-rule="evenodd"/><g clip-path="url(#clip7)"><text font-family="Calibri,Calibri_MSFontService,sans-serif" font-weight="400" font-size="24" transform="translate(631.105 573)">PstQualification</text></g><g clip-path="url(#clip8)"><text font-family="Calibri,Calibri_MSFontService,sans-serif" font-weight="400" font-size="24" transform="translate(631.105 612)">PstTauxHoraire</text></g><path d="M343.273 167.595 517.819 167.595 517.819 206.529 343.273 206.529Z" fill="#4472C4" fill-rule="evenodd"/><path d="M343.273 206.529 517.819 206.529 517.819 245.462 343.273 245.462Z" fill="#CFD5EA" fill-rule="evenodd"/><path d="M343.273 245.462 517.819 245.462 517.819 284.395 343.273 284.395Z" fill="#E9EBF5" fill-rule="evenodd"/><path d="M343.273 284.395 517.819 284.395 517.819 323.329 343.273 323.329Z" fill="#CFD5EA" fill-rule="evenodd"/><path d="M343.273 323.329 517.819 323.329 517.819 390.529 343.273 390.529Z" fill="#E9EBF5" fill-rule="evenodd"/><path d="M343.273 390.529 517.819 390.529 517.819 429.462 343.273 429.462Z" fill="#CFD5EA" fill-rule="evenodd"/><path d="M343.273 429.462 517.819 429.462 517.819 468.395 343.273 468.395Z" fill="#E9EBF5" fill-rule="evenodd"/><path d="M342.607 206.529 518.485 206.529" stroke="#FFFFFF" stroke-width="4" stroke-linejoin="round" stroke-miterlimit="10" fill="none" fill-rule="evenodd"/><path d="M342.607 245.462 518.485 245.462" stroke="#FFFFFF" stroke-width="1.33333" stroke-linejoin="round" stroke-miterlimit="10" fill="none" fill-rule="evenodd"/><path d="M342.607 284.395 518.485 284.395" stroke="#FFFFFF" stroke-width="1.33333" stroke-linejoin="round" stroke-miterlimit="10" fill="none" fill-rule="evenodd"/><path d="M342.607 323.329 518.485 323.329" stroke="#FFFFFF" stroke-width="1.33333" stroke-linejoin="round" stroke-miterlimit="10" fill="none" fill-rule="evenodd"/><path d="M342.607 390.529 518.485 390.529" stroke="#FFFFFF" stroke-width="1.33333" stroke-linejoin="round" stroke-miterlimit="10" fill="none" fill-rule="evenodd"/><path d="M342.607 429.462 518.485 429.462" stroke="#FFFFFF" stroke-width="1.33333" stroke-linejoin="round" stroke-miterlimit="10" fill="none" fill-rule="evenodd"/><path d="M343.273 166.929 343.273 469.062" stroke="#FFFFFF" stroke-width="1.33333" stroke-linejoin="round" stroke-miterlimit="10" fill="none" fill-rule="evenodd"/><path d="M517.819 166.929 517.819 469.062" stroke="#FFFFFF" stroke-width="1.33333" stroke-linejoin="round" stroke-miterlimit="10" fill="none" fill-rule="evenodd"/><path d="M342.607 167.595 518.485 167.595" stroke="#FFFFFF" stroke-width="1.33333" stroke-linejoin="round" stroke-miterlimit="10" fill="none" fill-rule="evenodd"/><path d="M342.607 468.395 518.485 468.395" stroke="#FFFFFF" stroke-width="1.33333" stroke-linejoin="round" stroke-miterlimit="10" fill="none" fill-rule="evenodd"/><g clip-path="url(#clip9)"><text fill="#FFFFFF" font-family="Calibri,Calibri_MSFontService,sans-serif" font-weight="700" font-size="24" transform="translate(352.873 194)">PERSONNEL</text></g><g clip-path="url(#clip10)"><text font-family="Calibri,Calibri_MSFontService,sans-serif" font-weight="400" font-size="24" transform="translate(352.873 233)">PersNum</text></g><path d="M352.873 236.329 382.207 236.329 411.54 236.329 440.873 236.329 440.873 238.329 411.54 238.329 382.207 238.329 352.873 238.329Z" fill-rule="evenodd"/><g clip-path="url(#clip11)"><text font-family="Calibri,Calibri_MSFontService,sans-serif" font-weight="400" font-size="24" transform="translate(352.873 272)">PersNom</text></g><g clip-path="url(#clip12)"><text font-family="Calibri,Calibri_MSFontService,sans-serif" font-weight="400" font-size="24" transform="translate(352.873 311)">PersPrénom</text></g><g clip-path="url(#clip13)"><text font-family="Calibri,Calibri_MSFontService,sans-serif" font-weight="400" font-size="24" transform="translate(352.873 350)">PersDateEmbau</text></g><g clip-path="url(#clip14)"><text font-family="Calibri,Calibri_MSFontService,sans-serif" font-weight="400" font-size="24" transform="translate(352.873 379)">che</text></g><g clip-path="url(#clip15)"><text font-family="Calibri,Calibri_MSFontService,sans-serif" font-weight="400" font-size="24" transform="translate(352.873 417)">PstCode</text></g><g clip-path="url(#clip16)"><text font-family="Calibri,Calibri_MSFontService,sans-serif" font-weight="400" font-size="24" transform="translate(352.873 456)">GrpCode</text></g><path d="M826.685 188.76 1001.23 188.76 1001.23 227.693 826.685 227.693Z" fill="#4472C4" fill-rule="evenodd"/><path d="M826.685 227.693 1001.23 227.693 1001.23 266.627 826.685 266.627Z" fill="#CFD5EA" fill-rule="evenodd"/><path d="M826.685 266.627 1001.23 266.627 1001.23 305.56 826.685 305.56Z" fill="#E9EBF5" fill-rule="evenodd"/><path d="M826.019 227.693 1001.9 227.693" stroke="#FFFFFF" stroke-width="4" stroke-linejoin="round" stroke-miterlimit="10" fill="none" fill-rule="evenodd"/><path d="M826.019 266.627 1001.9 266.627" stroke="#FFFFFF" stroke-width="1.33333" stroke-linejoin="round" stroke-miterlimit="10" fill="none" fill-rule="evenodd"/><path d="M826.685 188.093 826.685 306.227" stroke="#FFFFFF" stroke-width="1.33333" stroke-linejoin="round" stroke-miterlimit="10" fill="none" fill-rule="evenodd"/><path d="M1001.23 188.093 1001.23 306.227" stroke="#FFFFFF" stroke-width="1.33333" stroke-linejoin="round" stroke-miterlimit="10" fill="none" fill-rule="evenodd"/><path d="M826.019 188.76 1001.9 188.76" stroke="#FFFFFF" stroke-width="1.33333" stroke-linejoin="round" stroke-miterlimit="10" fill="none" fill-rule="evenodd"/><path d="M826.019 305.56 1001.9 305.56" stroke="#FFFFFF" stroke-width="1.33333" stroke-linejoin="round" stroke-miterlimit="10" fill="none" fill-rule="evenodd"/><g clip-path="url(#clip17)"><text fill="#FFFFFF" font-family="Calibri,Calibri_MSFontService,sans-serif" font-weight="700" font-size="24" transform="translate(836.285 216)">COMPÉTENCE</text></g><g clip-path="url(#clip18)"><text font-family="Calibri,Calibri_MSFontService,sans-serif" font-weight="400" font-size="24" transform="translate(836.285 254)">CompCode</text></g><path d="M836.285 257.493 872.285 257.493 908.285 257.493 944.285 257.493 944.285 259.493 908.285 259.493 872.285 259.493 836.285 259.493Z" fill-rule="evenodd"/><g clip-path="url(#clip19)"><text font-family="Calibri,Calibri_MSFontService,sans-serif" font-weight="400" font-size="24" transform="translate(836.285 293)">CompTitre</text></g><path d="M1070.55 186.662 1245.09 186.662 1245.09 225.595 1070.55 225.595Z" fill="#4472C4" fill-rule="evenodd"/><path d="M1070.55 225.595 1245.09 225.595 1245.09 264.529 1070.55 264.529Z" fill="#CFD5EA" fill-rule="evenodd"/><path d="M1070.55 264.529 1245.09 264.529 1245.09 303.462 1070.55 303.462Z" fill="#E9EBF5" fill-rule="evenodd"/><path d="M1070.55 303.462 1245.09 303.462 1245.09 342.395 1070.55 342.395Z" fill="#CFD5EA" fill-rule="evenodd"/><path d="M1069.88 225.595 1245.76 225.595" stroke="#FFFFFF" stroke-width="4" stroke-linejoin="round" stroke-miterlimit="10" fill="none" fill-rule="evenodd"/><path d="M1069.88 264.529 1245.76 264.529" stroke="#FFFFFF" stroke-width="1.33333" stroke-linejoin="round" stroke-miterlimit="10" fill="none" fill-rule="evenodd"/><path d="M1069.88 303.462 1245.76 303.462" stroke="#FFFFFF" stroke-width="1.33333" stroke-linejoin="round" stroke-miterlimit="10" fill="none" fill-rule="evenodd"/><path d="M1070.55 185.995 1070.55 343.062" stroke="#FFFFFF" stroke-width="1.33333" stroke-linejoin="round" stroke-miterlimit="10" fill="none" fill-rule="evenodd"/><path d="M1245.09 185.995 1245.09 343.062" stroke="#FFFFFF" stroke-width="1.33333" stroke-linejoin="round" stroke-miterlimit="10" fill="none" fill-rule="evenodd"/><path d="M1069.88 186.662 1245.76 186.662" stroke="#FFFFFF" stroke-width="1.33333" stroke-linejoin="round" stroke-miterlimit="10" fill="none" fill-rule="evenodd"/><path d="M1069.88 342.395 1245.76 342.395" stroke="#FFFFFF" stroke-width="1.33333" stroke-linejoin="round" stroke-miterlimit="10" fill="none" fill-rule="evenodd"/><g clip-path="url(#clip20)"><text fill="#FFFFFF" font-family="Calibri,Calibri_MSFontService,sans-serif" font-weight="700" font-size="24" transform="translate(1080.15 213)">MISSION</text></g><g clip-path="url(#clip21)"><text font-family="Calibri,Calibri_MSFontService,sans-serif" font-weight="400" font-size="24" transform="translate(1080.15 252)">MisCode</text></g><path d="M1080.15 255.395 1108.81 255.395 1137.48 255.395 1166.15 255.395 1166.15 257.395 1137.48 257.395 1108.81 257.395 1080.15 257.395Z" fill-rule="evenodd"/><g clip-path="url(#clip22)"><text font-family="Calibri,Calibri_MSFontService,sans-serif" font-weight="400" font-size="24" transform="translate(1080.15 291)">MisNature</text></g><g clip-path="url(#clip23)"><text font-family="Calibri,Calibri_MSFontService,sans-serif" font-weight="400" font-size="24" transform="translate(1080.15 330)">ComptCode</text></g><path d="M600.243 178.695 774.788 178.695 774.788 217.628 600.243 217.628Z" fill="#4472C4" fill-rule="evenodd"/><path d="M600.243 217.628 774.788 217.628 774.788 256.561 600.243 256.561Z" fill="#CFD5EA" fill-rule="evenodd"/><path d="M600.243 256.561 774.788 256.561 774.788 295.495 600.243 295.495Z" fill="#E9EBF5" fill-rule="evenodd"/><path d="M600.243 295.495 774.788 295.495 774.788 334.428 600.243 334.428Z" fill="#CFD5EA" fill-rule="evenodd"/><path d="M599.576 217.628 775.455 217.628" stroke="#FFFFFF" stroke-width="4" stroke-linejoin="round" stroke-miterlimit="10" fill="none" fill-rule="evenodd"/><path d="M599.576 256.561 775.455 256.561" stroke="#FFFFFF" stroke-width="1.33333" stroke-linejoin="round" stroke-miterlimit="10" fill="none" fill-rule="evenodd"/><path d="M599.576 295.495 775.455 295.495" stroke="#FFFFFF" stroke-width="1.33333" stroke-linejoin="round" stroke-miterlimit="10" fill="none" fill-rule="evenodd"/><path d="M600.243 178.028 600.243 335.095" stroke="#FFFFFF" stroke-width="1.33333" stroke-linejoin="round" stroke-miterlimit="10" fill="none" fill-rule="evenodd"/><path d="M774.788 178.028 774.788 335.095" stroke="#FFFFFF" stroke-width="1.33333" stroke-linejoin="round" stroke-miterlimit="10" fill="none" fill-rule="evenodd"/><path d="M599.576 178.695 775.455 178.695" stroke="#FFFFFF" stroke-width="1.33333" stroke-linejoin="round" stroke-miterlimit="10" fill="none" fill-rule="evenodd"/><path d="M599.576 334.428 775.455 334.428" stroke="#FFFFFF" stroke-width="1.33333" stroke-linejoin="round" stroke-miterlimit="10" fill="none" fill-rule="evenodd"/><g clip-path="url(#clip24)"><text fill="#FFFFFF" font-family="Calibri,Calibri_MSFontService,sans-serif" font-weight="700" font-size="24" transform="translate(609.843 205)">CARACTERISER</text></g><g clip-path="url(#clip25)"><text font-family="Calibri,Calibri_MSFontService,sans-serif" font-weight="400" font-size="24" transform="translate(609.843 244)">PersNum</text></g><path d="M609.843 247.428 639.176 247.428 668.509 247.428 697.843 247.428 697.843 249.428 668.509 249.428 639.176 249.428 609.843 249.428Z" fill-rule="evenodd"/><g clip-path="url(#clip26)"><text font-family="Calibri,Calibri_MSFontService,sans-serif" font-weight="400" font-size="24" transform="translate(609.843 283)">CompCode</text></g><path d="M609.843 286.361 645.843 286.361 681.843 286.361 717.843 286.361 717.843 288.361 681.843 288.361 645.843 288.361 609.843 288.361Z" fill-rule="evenodd"/><g clip-path="url(#clip27)"><text font-family="Calibri,Calibri_MSFontService,sans-serif" font-weight="400" font-size="24" transform="translate(609.843 322)">DateFin</text></g><path d="M332.118 450.955 285.476 450.955 285.476 222.5 285.809 222.833 246.167 222.833 246.167 222.167 286.142 222.167 286.142 450.621 285.809 450.288 332.118 450.288ZM247.5 226.5 239.5 222.5 247.5 218.5Z" fill="#4472C4"/><path d="M525.5 408.167 568.228 408.167 568.228 523.062 567.894 522.729 603.622 522.729 603.622 523.395 567.561 523.395 567.561 408.5 567.894 408.833 525.5 408.833ZM602.289 519.062 610.289 523.062 602.289 527.062Z" fill="#4472C4"/><path d="M0-0.333333 25.8027-0.333333 25.8027 25.3471 25.4694 25.0138 44.2721 25.0138 44.2721 25.6804 25.1361 25.6804 25.1361 0 25.4694 0.333333 0 0.333333ZM42.9388 21.3471 50.9388 25.3471 42.9388 29.3471Z" fill="#4472C4" transform="matrix(1 0 0 -1 776.5 272.847)"/><path d="M1059.08 322.223 1036.45 322.223 1036.45 245.5 1036.79 245.833 1021.17 245.833 1021.17 245.167 1037.12 245.167 1037.12 321.889 1036.79 321.556 1059.08 321.556ZM1022.5 249.5 1014.5 245.5 1022.5 241.5Z" fill="#4472C4"/><path d="M589.026 238.657 556.93 238.657 556.93 224.5 557.263 224.833 532.167 224.833 532.167 224.167 557.597 224.167 557.597 238.324 557.263 237.991 589.026 237.991ZM533.5 228.5 525.5 224.5 533.5 220.5Z" fill="#4472C4"/><text font-family="Calibri Light,Calibri Light_MSFontService,sans-serif" font-weight="300" font-size="59" transform="translate(580.667 79)">2008</text></g></svg>